<svg width="36" height="32" viewBox="0 0 36 32" fill="none" xmlns="http://www.w3.org/2000/svg">
<path d="M18 1.5C18.3174 1.5 18.6157 1.6415 18.8174 1.88574L18.8975 1.99707L34.125 26.2783L34.126 26.2803C34.3707 26.6692 34.5 27.1169 34.5 27.5693C34.5 28.9136 33.4136 30 32.0693 30H3.93066C2.58643 30 1.5 28.9136 1.5 27.5693C1.50004 27.1169 1.62934 26.6692 1.87402 26.2803L1.875 26.2783L17.1055 1.99219L17.1074 1.98828C17.2932 1.68984 17.6308 1.5 18 1.5ZM16.7295 5.41895L11.168 14.2852L10.6201 15.1582L11.2383 15.9824L12.5254 17.6973L12.5264 17.7002C13.5765 19.0948 15.6735 19.0948 16.7236 17.7002L16.7246 17.6982L18.5244 15.3008L18.5303 15.293C18.6638 15.1127 18.8809 15 19.125 15H25.2822L23.8408 12.7031L19.2705 5.41797L18 3.39258L16.7295 5.41895Z" stroke="#EA580C" stroke-width="3"/>
</svg>
