<svg viewBox="0 0 18 14" fill="currentColor" xmlns="http://www.w3.org/2000/svg">
<path fill-rule="evenodd" clip-rule="evenodd" d="M10.22 0.21934C10.0796 0.359965 10.0007 0.550589 10.0007 0.74934C10.0007 0.948091 10.0796 1.13871 10.22 1.27934L14.94 5.99934H0.750004C0.551092 5.99934 0.360325 6.07836 0.219673 6.21901C0.0790215 6.35966 3.8147e-06 6.55043 3.8147e-06 6.74934C3.8147e-06 6.94825 0.0790215 7.13902 0.219673 7.27967C0.360325 7.42032 0.551092 7.49934 0.750004 7.49934H14.94L10.22 12.2193C10.1463 12.288 10.0872 12.3708 10.0462 12.4628C10.0052 12.5548 9.98319 12.6541 9.98141 12.7548C9.97964 12.8555 9.99816 12.9555 10.0359 13.0489C10.0736 13.1423 10.1297 13.2272 10.201 13.2984C10.2722 13.3696 10.357 13.4257 10.4504 13.4635C10.5438 13.5012 10.6438 13.5197 10.7445 13.5179C10.8452 13.5162 10.9445 13.4941 11.0365 13.4531C11.1285 13.4121 11.2113 13.353 11.28 13.2793L17.28 7.27934C17.4205 7.13871 17.4993 6.94809 17.4993 6.74934C17.4993 6.55059 17.4205 6.35997 17.28 6.21934L11.28 0.21934C11.1394 0.0788894 10.9488 0 10.75 0C10.5513 0 10.3606 0.0788894 10.22 0.21934Z" fill="currentColor"/>
</svg>
