<svg viewBox="0 0 20 18" fill="none" xmlns="http://www.w3.org/2000/svg">
<path d="M8.25 3C8.25 2.60218 8.40804 2.22064 8.68934 1.93934C8.97064 1.65804 9.35218 1.5 9.75 1.5C10.1478 1.5 10.5294 1.65804 10.8107 1.93934C11.092 2.22064 11.25 2.60218 11.25 3C11.25 3.39782 11.092 3.77936 10.8107 4.06066C10.5294 4.34196 10.1478 4.5 9.75 4.5C9.35218 4.5 8.97064 4.34196 8.68934 4.06066C8.40804 3.77936 8.25 3.39782 8.25 3ZM9.75 0C8.95435 0 8.19129 0.31607 7.62868 0.87868C7.06607 1.44129 6.75 2.20435 6.75 3C6.75 3.79565 7.06607 4.55871 7.62868 5.12132C8.19129 5.68393 8.95435 6 9.75 6C10.5456 6 11.3087 5.68393 11.8713 5.12132C12.4339 4.55871 12.75 3.79565 12.75 3C12.75 2.20435 12.4339 1.44129 11.8713 0.87868C11.3087 0.31607 10.5456 0 9.75 0ZM7.5 6.75C6.90326 6.75 6.33097 6.98705 5.90901 7.40901C5.48705 7.83097 5.25 8.40326 5.25 9V11.625C5.25 11.8239 5.32902 12.0147 5.46967 12.1553C5.61032 12.296 5.80109 12.375 6 12.375C6.19891 12.375 6.38968 12.296 6.53033 12.1553C6.67098 12.0147 6.75 11.8239 6.75 11.625V9C6.75 8.80109 6.82902 8.61032 6.96967 8.46967C7.11032 8.32902 7.30109 8.25 7.5 8.25H12C12.1989 8.25 12.3897 8.32902 12.5303 8.46967C12.671 8.61032 12.75 8.80109 12.75 9V11.625C12.75 11.8239 12.829 12.0147 12.9697 12.1553C13.1103 12.296 13.3011 12.375 13.5 12.375C13.6989 12.375 13.8897 12.296 14.0303 12.1553C14.171 12.0147 14.25 11.8239 14.25 11.625V9C14.25 8.40326 14.0129 7.83097 13.591 7.40901C13.169 6.98705 12.5967 6.75 12 6.75H7.5ZM1.125 13.5C0.826631 13.5 0.540483 13.6185 0.329505 13.8295C0.118526 14.0405 0 14.3266 0 14.625C0 15.5201 0.355579 16.3785 0.988515 17.0115C1.62145 17.6444 2.47989 18 3.375 18H16.125C17.0201 18 17.8785 17.6444 18.5115 17.0115C19.1444 16.3785 19.5 15.5201 19.5 14.625C19.5 14.3266 19.3815 14.0405 19.1705 13.8295C18.9595 13.6185 18.6734 13.5 18.375 13.5H1.125ZM3.375 16.5C2.94276 16.5001 2.52375 16.3508 2.18891 16.0775C1.85407 15.8041 1.62395 15.4235 1.5375 15H17.9625C17.8761 15.4235 17.6459 15.8041 17.3111 16.0775C16.9762 16.3508 16.5572 16.5001 16.125 16.5H3.375ZM15.2917 8.25H17.25C17.4489 8.25 17.6397 8.32902 17.7803 8.46967C17.921 8.61032 18 8.80109 18 9V11.625C18 11.8239 18.079 12.0147 18.2197 12.1553C18.3603 12.296 18.5511 12.375 18.75 12.375C18.9489 12.375 19.1397 12.296 19.2803 12.1553C19.421 12.0147 19.5 11.8239 19.5 11.625V9C19.5 8.40326 19.2629 7.83097 18.841 7.40901C18.419 6.98705 17.8467 6.75 17.25 6.75H14.5155C14.8905 7.16925 15.1628 7.68225 15.2917 8.25ZM4.9845 6.75H2.25C1.65326 6.75 1.08097 6.98705 0.65901 7.40901C0.237053 7.83097 0 8.40326 0 9V11.625C0 11.8239 0.0790176 12.0147 0.21967 12.1553C0.360322 12.296 0.551088 12.375 0.75 12.375C0.948912 12.375 1.13968 12.296 1.28033 12.1553C1.42098 12.0147 1.5 11.8239 1.5 11.625V9C1.5 8.80109 1.57902 8.61032 1.71967 8.46967C1.86032 8.32902 2.05109 8.25 2.25 8.25H4.209C4.33622 7.69237 4.60307 7.17621 4.9845 6.75ZM3.375 2.25C3.07663 2.25 2.79048 2.36853 2.5795 2.5795C2.36853 2.79048 2.25 3.07663 2.25 3.375C2.25 3.67337 2.36853 3.95952 2.5795 4.1705C2.79048 4.38147 3.07663 4.5 3.375 4.5C3.67337 4.5 3.95952 4.38147 4.1705 4.1705C4.38147 3.95952 4.5 3.67337 4.5 3.375C4.5 3.07663 4.38147 2.79048 4.1705 2.5795C3.95952 2.36853 3.67337 2.25 3.375 2.25ZM0.75 3.375C0.75 2.67881 1.02656 2.01113 1.51884 1.51884C2.01113 1.02656 2.67881 0.75 3.375 0.75C4.07119 0.75 4.73887 1.02656 5.23116 1.51884C5.72344 2.01113 6 2.67881 6 3.375C6 4.07119 5.72344 4.73887 5.23116 5.23116C4.73887 5.72344 4.07119 6 3.375 6C2.67881 6 2.01113 5.72344 1.51884 5.23116C1.02656 4.73887 0.75 4.07119 0.75 3.375ZM15 3.375C15 3.07663 15.1185 2.79048 15.3295 2.5795C15.5405 2.36853 15.8266 2.25 16.125 2.25C16.4234 2.25 16.7095 2.36853 16.9205 2.5795C17.1315 2.79048 17.25 3.07663 17.25 3.375C17.25 3.67337 17.1315 3.95952 16.9205 4.1705C16.7095 4.38147 16.4234 4.5 16.125 4.5C15.8266 4.5 15.5405 4.38147 15.3295 4.1705C15.1185 3.95952 15 3.67337 15 3.375ZM16.125 0.75C15.4288 0.75 14.7611 1.02656 14.2688 1.51884C13.7766 2.01113 13.5 2.67881 13.5 3.375C13.5 4.07119 13.7766 4.73887 14.2688 5.23116C14.7611 5.72344 15.4288 6 16.125 6C16.8212 6 17.4889 5.72344 17.9812 5.23116C18.4734 4.73887 18.75 4.07119 18.75 3.375C18.75 2.67881 18.4734 2.01113 17.9812 1.51884C17.4889 1.02656 16.8212 0.75 16.125 0.75Z" fill="currentColor"/>
</svg>
