<svg viewBox="0 0 26 26" fill="none" xmlns="http://www.w3.org/2000/svg">
<path d="M7.1085 0C7.34113 0 7.56423 0.0924115 7.72873 0.256905C7.89322 0.421399 7.98563 0.6445 7.98563 0.877129V2.51736H17.4047V0.888406C17.4047 0.655777 17.4972 0.432676 17.6616 0.268183C17.8261 0.103689 18.0492 0.0112774 18.2819 0.0112774C18.5145 0.0112774 18.7376 0.103689 18.9021 0.268183C19.0666 0.432676 19.159 0.655777 19.159 0.888406V2.51736H22.5547C23.2192 2.51736 23.8564 2.78122 24.3264 3.25093C24.7963 3.72064 25.0605 4.35775 25.0608 5.02219V22.556C25.0605 23.2204 24.7963 23.8575 24.3264 24.3273C23.8564 24.797 23.2192 25.0608 22.5547 25.0608H2.50608C1.84165 25.0608 1.2044 24.797 0.734457 24.3273C0.264512 23.8575 0.000332219 23.2204 0 22.556L0 5.02219C0.000332219 4.35775 0.264512 3.72064 0.734457 3.25093C1.2044 2.78122 1.84165 2.51736 2.50608 2.51736H6.23137V0.875876C6.23171 0.643464 6.32427 0.420685 6.48872 0.256462C6.65318 0.0922393 6.87609 -2.37155e-07 7.1085 0ZM1.75426 9.70105V22.556C1.75426 22.6547 1.7737 22.7525 1.81149 22.8437C1.84927 22.9349 1.90465 23.0178 1.97446 23.0876C2.04428 23.1574 2.12716 23.2128 2.21837 23.2506C2.30959 23.2884 2.40735 23.3078 2.50608 23.3078H22.5547C22.6535 23.3078 22.7512 23.2884 22.8425 23.2506C22.9337 23.2128 23.0166 23.1574 23.0864 23.0876C23.1562 23.0178 23.2116 22.9349 23.2493 22.8437C23.2871 22.7525 23.3066 22.6547 23.3066 22.556V9.71859L1.75426 9.70105ZM8.35403 18.3182V20.4058H6.26521V18.3182H8.35403ZM13.5742 18.3182V20.4058H11.4866V18.3182H13.5742ZM18.7956 18.3182V20.4058H16.7068V18.3182H18.7956ZM8.35403 13.3349V15.4224H6.26521V13.3349H8.35403ZM13.5742 13.3349V15.4224H11.4866V13.3349H13.5742ZM18.7956 13.3349V15.4224H16.7068V13.3349H18.7956ZM6.23137 4.27037H2.50608C2.40735 4.27037 2.30959 4.28981 2.21837 4.32759C2.12716 4.36538 2.04428 4.42076 1.97446 4.49057C1.90465 4.56038 1.84927 4.64326 1.81149 4.73448C1.7737 4.82569 1.75426 4.92346 1.75426 5.02219V7.94804L23.3066 7.96558V5.02219C23.3066 4.92346 23.2871 4.82569 23.2493 4.73448C23.2116 4.64326 23.1562 4.56038 23.0864 4.49057C23.0166 4.42076 22.9337 4.36538 22.8425 4.32759C22.7512 4.28981 22.6535 4.27037 22.5547 4.27037H19.159V5.43444C19.159 5.66707 19.0666 5.89017 18.9021 6.05466C18.7376 6.21916 18.5145 6.31157 18.2819 6.31157C18.0492 6.31157 17.8261 6.21916 17.6616 6.05466C17.4972 5.89017 17.4047 5.66707 17.4047 5.43444V4.27037H7.98563V5.42316C7.98563 5.65579 7.89322 5.87889 7.72873 6.04339C7.56423 6.20788 7.34113 6.30029 7.1085 6.30029C6.87587 6.30029 6.65277 6.20788 6.48828 6.04339C6.32379 5.87889 6.23137 5.65579 6.23137 5.42316V4.27037Z" fill="#E2231C"/>
</svg>
