<svg viewBox="0 0 40 40" fill="none" xmlns="http://www.w3.org/2000/svg">
<path d="M26.6667 11.6667C26.6667 11.2246 26.8423 10.8007 27.1548 10.4882C27.4674 10.1756 27.8913 10 28.3333 10C28.7754 10 29.1993 10.1756 29.5119 10.4882C29.8244 10.8007 30 11.2246 30 11.6667C30 12.1087 29.8244 12.5326 29.5119 12.8452C29.1993 13.1577 28.7754 13.3333 28.3333 13.3333C27.8913 13.3333 27.4674 13.1577 27.1548 12.8452C26.8423 12.5326 26.6667 12.1087 26.6667 11.6667Z" fill="currentColor"/>
<path fill-rule="evenodd" clip-rule="evenodd" d="M20 12.0833C17.9004 12.0833 15.8867 12.9173 14.4021 14.402C12.9174 15.8867 12.0833 17.9003 12.0833 19.9999C12.0833 22.0995 12.9174 24.1132 14.4021 25.5978C15.8867 27.0825 17.9004 27.9166 20 27.9166C22.0996 27.9166 24.1133 27.0825 25.5979 25.5978C27.0826 24.1132 27.9167 22.0995 27.9167 19.9999C27.9167 17.9003 27.0826 15.8867 25.5979 14.402C24.1133 12.9173 22.0996 12.0833 20 12.0833ZM14.5833 19.9999C14.5833 18.5633 15.154 17.1856 16.1698 16.1698C17.1857 15.1539 18.5634 14.5833 20 14.5833C21.4366 14.5833 22.8143 15.1539 23.8302 16.1698C24.846 17.1856 25.4167 18.5633 25.4167 19.9999C25.4167 21.4365 24.846 22.8143 23.8302 23.8301C22.8143 24.8459 21.4366 25.4166 20 25.4166C18.5634 25.4166 17.1857 24.8459 16.1698 23.8301C15.154 22.8143 14.5833 21.4365 14.5833 19.9999Z" fill="currentColor"/>
<path fill-rule="evenodd" clip-rule="evenodd" d="M28.7633 4.72177C22.939 4.07581 17.061 4.07581 11.2367 4.72177C7.88333 5.09677 5.175 7.73844 4.78166 11.1084C4.09184 17.0162 4.09184 22.9841 4.78166 28.8918C5.175 32.2618 7.88166 34.9034 11.2367 35.2784C17.0611 35.923 22.9389 35.923 28.7633 35.2784C32.1167 34.9034 34.825 32.2618 35.2183 28.8918C35.9082 22.9841 35.9082 17.0162 35.2183 11.1084C34.825 7.73844 32.1183 5.09677 28.7633 4.72177ZM11.5133 7.20511C17.1538 6.57962 22.8462 6.57962 28.4867 7.20511C30.7033 7.45511 32.4783 9.20344 32.7367 11.4001C33.4052 17.114 33.4052 22.8863 32.7367 28.6001C32.603 29.6752 32.1109 30.6738 31.3397 31.4347C30.5686 32.1956 29.5634 32.6743 28.4867 32.7934C22.8462 33.4189 17.1538 33.4189 11.5133 32.7934C10.4366 32.6743 9.43142 32.1956 8.66025 31.4347C7.88909 30.6738 7.39695 29.6752 7.26333 28.6001C6.59476 22.8863 6.59476 17.114 7.26333 11.4001C7.39695 10.325 7.88909 9.32641 8.66025 8.56553C9.43142 7.80465 10.4366 7.32429 11.5133 7.20511Z" fill="currentColor"/>
</svg>
