<svg width="25" height="36" viewBox="0 0 25 36" fill="none" xmlns="http://www.w3.org/2000/svg">
<path d="M17 30.25V30.375C17 32.9305 14.9305 35 12.375 35C9.81947 35 7.75 32.9305 7.75 30.375V30.25H17ZM12.375 1C18.6567 1 23.7499 6.09243 23.75 12.3818C23.75 14.7933 23.0007 17.0218 21.7207 18.8643C21.3776 19.3584 21.0192 19.8478 20.6523 20.3486L20.6504 20.3506C19.4223 22.04 18.0772 23.8699 17.2861 25.9932H7.4668C6.68088 23.8713 5.33431 22.0344 4.09766 20.3418V20.3408C3.73089 19.84 3.37238 19.3515 3.0293 18.8574L3.02832 18.8555L2.79492 18.5068C1.65905 16.7415 1 14.6366 1 12.375C1 6.09291 6.09291 1 12.375 1ZM12.375 3.5C7.47037 3.5 3.5 7.47037 3.5 12.375C3.5 13.546 4.45396 14.5 5.625 14.5C6.79604 14.5 7.75 13.546 7.75 12.375C7.75 9.81947 9.81947 7.75 12.375 7.75C13.546 7.75 14.5 6.79604 14.5 5.625C14.5 4.45396 13.546 3.5 12.375 3.5Z" stroke="#16A34A" stroke-width="2"/>
</svg>
