<svg viewBox="0 0 35 35" fill="none" xmlns="http://www.w3.org/2000/svg">
<path fill-rule="evenodd" clip-rule="evenodd" d="M4.58333 0C3.36776 0 2.20197 0.482886 1.34243 1.34243C0.482886 2.20197 0 3.36776 0 4.58333C0 5.79891 0.482886 6.9647 1.34243 7.82424C2.20197 8.68378 3.36776 9.16667 4.58333 9.16667C5.79891 9.16667 6.9647 8.68378 7.82424 7.82424C8.68378 6.9647 9.16667 5.79891 9.16667 4.58333C9.16667 3.36776 8.68378 2.20197 7.82424 1.34243C6.9647 0.482886 5.79891 0 4.58333 0ZM2.5 4.58333C2.5 4.0308 2.71949 3.50089 3.11019 3.11019C3.50089 2.71949 4.0308 2.5 4.58333 2.5C5.13587 2.5 5.66577 2.71949 6.05647 3.11019C6.44717 3.50089 6.66667 4.0308 6.66667 4.58333C6.66667 5.13587 6.44717 5.66577 6.05647 6.05647C5.66577 6.44717 5.13587 6.66667 4.58333 6.66667C4.0308 6.66667 3.50089 6.44717 3.11019 6.05647C2.71949 5.66577 2.5 5.13587 2.5 4.58333ZM0 11.25C0 10.9185 0.131696 10.6005 0.366116 10.3661C0.600537 10.1317 0.918479 10 1.25 10H7.91667C8.24819 10 8.56613 10.1317 8.80055 10.3661C9.03497 10.6005 9.16667 10.9185 9.16667 11.25V32.9167C9.16667 33.2482 9.03497 33.5661 8.80055 33.8005C8.56613 34.035 8.24819 34.1667 7.91667 34.1667H1.25C0.918479 34.1667 0.600537 34.035 0.366116 33.8005C0.131696 33.5661 0 33.2482 0 32.9167V11.25ZM2.5 12.5V31.6667H6.66667V12.5H2.5ZM11.6667 11.25C11.6667 10.9185 11.7984 10.6005 12.0328 10.3661C12.2672 10.1317 12.5851 10 12.9167 10H19.5833C19.9149 10 20.2328 10.1317 20.4672 10.3661C20.7016 10.6005 20.8333 10.9185 20.8333 11.25V11.9733L21.5583 11.6617C22.8084 11.1277 24.1345 10.793 25.4883 10.67C30.1133 10.25 34.1667 13.8833 34.1667 18.55V32.9167C34.1667 33.2482 34.035 33.5661 33.8005 33.8005C33.5661 34.035 33.2482 34.1667 32.9167 34.1667H26.25C25.9185 34.1667 25.6005 34.035 25.3661 33.8005C25.1317 33.5661 25 33.2482 25 32.9167V21.25C25 20.6975 24.7805 20.1676 24.3898 19.7769C23.9991 19.3862 23.4692 19.1667 22.9167 19.1667C22.3641 19.1667 21.8342 19.3862 21.4435 19.7769C21.0528 20.1676 20.8333 20.6975 20.8333 21.25V32.9167C20.8333 33.2482 20.7016 33.5661 20.4672 33.8005C20.2328 34.035 19.9149 34.1667 19.5833 34.1667H12.9167C12.5851 34.1667 12.2672 34.035 12.0328 33.8005C11.7984 33.5661 11.6667 33.2482 11.6667 32.9167V11.25ZM14.1667 12.5V31.6667H18.3333V21.25C18.3333 20.0344 18.8162 18.8686 19.6758 18.0091C20.5353 17.1495 21.7011 16.6667 22.9167 16.6667C24.1322 16.6667 25.298 17.1495 26.1576 18.0091C27.0171 18.8686 27.5 20.0344 27.5 21.25V31.6667H31.6667V18.55C31.6667 15.3767 28.8983 12.87 25.7167 13.16C24.6236 13.2592 23.5528 13.5291 22.5433 13.96L20.0767 15.0183C19.8864 15.1001 19.6788 15.1332 19.4726 15.1149C19.2663 15.0965 19.0679 15.0272 18.895 14.9132C18.7222 14.7992 18.5804 14.644 18.4823 14.4617C18.3843 14.2793 18.3331 14.0754 18.3333 13.8683V12.5H14.1667Z" fill="currentColor"/>
</svg>
