<svg viewBox="0 0 18 22" fill="none" xmlns="http://www.w3.org/2000/svg">
<path fill-rule="evenodd" clip-rule="evenodd" d="M3.92236 9.13671C3.92236 7.82125 4.44493 6.55967 5.3751 5.6295C6.30527 4.69932 7.56686 4.17676 8.88232 4.17676C10.1978 4.17676 11.4594 4.69932 12.3895 5.6295C13.3197 6.55967 13.8423 7.82125 13.8423 9.13671C13.8423 10.4522 13.3197 11.7138 12.3895 12.6439C11.4594 13.5741 10.1978 14.0967 8.88232 14.0967C7.56686 14.0967 6.30527 13.5741 5.3751 12.6439C4.44493 11.7138 3.92236 10.4522 3.92236 9.13671ZM8.88232 5.74306C7.98227 5.74306 7.11908 6.1006 6.48264 6.73704C5.84621 7.37347 5.48866 8.23666 5.48866 9.13671C5.48866 10.0368 5.84621 10.9 6.48264 11.5364C7.11908 12.1728 7.98227 12.5304 8.88232 12.5304C9.78237 12.5304 10.6456 12.1728 11.282 11.5364C11.9184 10.9 12.276 10.0368 12.276 9.13671C12.276 8.23666 11.9184 7.37347 11.282 6.73704C10.6456 6.1006 9.78237 5.74306 8.88232 5.74306Z" fill="currentColor"/>
<path fill-rule="evenodd" clip-rule="evenodd" d="M0.0316657 7.94324C0.210617 5.77858 1.1968 3.7603 2.79452 2.28889C4.39224 0.81748 6.48473 0.000475927 8.65677 0H9.10786C11.2799 0.000475927 13.3724 0.81748 14.9701 2.28889C16.5678 3.7603 17.554 5.77858 17.733 7.94324C17.932 10.3546 17.187 12.7491 15.655 14.6219L10.6501 20.742C10.436 21.0039 10.1663 21.215 9.86052 21.3599C9.55478 21.5048 9.22066 21.58 8.88231 21.58C8.54397 21.58 8.20985 21.5048 7.90411 21.3599C7.59838 21.215 7.32867 21.0039 7.11448 20.742L2.10963 14.6219C0.57761 12.7491 -0.167393 10.3546 0.0316657 7.94324ZM8.65677 1.5663C6.87809 1.56705 5.16467 2.23631 3.85637 3.44132C2.54808 4.64633 1.74049 6.29906 1.59379 8.07167C1.42806 10.0785 2.04802 12.0713 3.32299 13.63L8.32784 19.7511C8.39512 19.8334 8.47987 19.8998 8.57594 19.9453C8.67202 19.9909 8.77703 20.0145 8.88336 20.0145C8.98969 20.0145 9.0947 19.9909 9.19077 19.9453C9.28685 19.8998 9.37159 19.8334 9.43887 19.7511L14.4437 13.63C15.7179 12.071 16.3372 10.0782 16.1708 8.07167C16.0241 6.29888 15.2164 4.646 13.9079 3.44097C12.5994 2.23593 10.8857 1.56679 9.10682 1.5663H8.65677Z" fill="currentColor"/>
</svg>
