<svg width="32" height="23" viewBox="0 0 32 23" fill="none" xmlns="http://www.w3.org/2000/svg">
<path d="M8.4375 1H9C9.69225 1 10.25 1.55775 10.25 2.25C10.25 2.94225 9.69225 3.5 9 3.5H8.4375C5.71256 3.5 3.5 5.71256 3.5 8.4375V10H9C10.9297 10 12.5 11.5703 12.5 13.5V18C12.5 19.9297 10.9297 21.5 9 21.5H4.5C2.57025 21.5 1 19.9297 1 18V8.4375C1 4.32807 4.32807 1 8.4375 1ZM26.4375 1H27C27.6922 1 28.25 1.55775 28.25 2.25C28.25 2.94225 27.6922 3.5 27 3.5H26.4375C23.7126 3.5 21.5 5.71256 21.5 8.4375V10H27C28.9297 10 30.5 11.5703 30.5 13.5V18C30.5 19.9297 28.9297 21.5 27 21.5H22.5C20.5703 21.5 19 19.9297 19 18V8.4375C19 4.32807 22.3281 1 26.4375 1Z" stroke="#9333EA" stroke-width="2"/>
</svg>
