<svg viewBox="0 0 15 20" fill="none" xmlns="http://www.w3.org/2000/svg">
<path d="M7.23913 12.5304C6.36896 12.5304 5.62932 12.2259 5.0202 11.6167C4.41108 11.0076 4.10652 10.268 4.10652 9.39781V3.1326C4.10652 2.26244 4.41108 1.52279 5.0202 0.913676C5.62932 0.304559 6.36896 0 7.23913 0C8.10929 0 8.84894 0.304559 9.45805 0.913676C10.0672 1.52279 10.3717 2.26244 10.3717 3.1326V9.39781C10.3717 10.268 10.0672 11.0076 9.45805 11.6167C8.84894 12.2259 8.10929 12.5304 7.23913 12.5304ZM6.19492 18.7956V16.6289C4.59382 16.4027 3.22348 15.7239 2.0839 14.5927C0.944333 13.4615 0.252375 12.0866 0.00803229 10.4681C-0.0267744 10.1723 0.0515411 9.91991 0.242978 9.71107C0.434415 9.50223 0.678062 9.39781 0.973919 9.39781C1.26978 9.39781 1.51795 9.49805 1.71843 9.69854C1.91892 9.89903 2.05362 10.1469 2.12254 10.442C2.36619 11.6602 2.97113 12.6609 3.93736 13.4441C4.9036 14.2272 6.00418 14.6188 7.23913 14.6188C8.49217 14.6188 9.59728 14.2231 10.5545 13.4316C11.5116 12.6401 12.1121 11.6435 12.3557 10.442C12.4253 10.1462 12.5604 9.89833 12.7609 9.69854C12.9613 9.49875 13.2092 9.39851 13.5043 9.39781C13.7995 9.39711 14.0431 9.50153 14.2353 9.71107C14.4274 9.92061 14.5057 10.173 14.4702 10.4681C14.2266 12.0518 13.5391 13.418 12.4079 14.5666C11.2767 15.7152 9.90184 16.4027 8.28333 16.6289V18.7956C8.28333 19.0915 8.18308 19.3396 7.9826 19.5401C7.78211 19.7406 7.53429 19.8405 7.23913 19.8398C6.94396 19.8391 6.69614 19.7389 6.49565 19.5391C6.29517 19.3393 6.19492 19.0915 6.19492 18.7956ZM7.23913 10.442C7.53498 10.442 7.78315 10.3418 7.98364 10.1413C8.18413 9.94079 8.28402 9.69297 8.28333 9.39781V3.1326C8.28333 2.83675 8.18308 2.58892 7.9826 2.38913C7.78211 2.18934 7.53429 2.0891 7.23913 2.0884C6.94396 2.08771 6.69614 2.18795 6.49565 2.38913C6.29517 2.59032 6.19492 2.83814 6.19492 3.1326V9.39781C6.19492 9.69367 6.29517 9.94184 6.49565 10.1423C6.69614 10.3428 6.94396 10.4427 7.23913 10.442Z" fill="#E2231C"/>
</svg>
