<svg viewBox="0 0 36 30" fill="none" xmlns="http://www.w3.org/2000/svg">
<path d="M1.25 7.91667C1.25 6.14856 1.95238 4.45286 3.20262 3.20262C4.45286 1.95238 6.14856 1.25 7.91667 1.25H27.9167C29.6848 1.25 31.3805 1.95238 32.6307 3.20262C33.881 4.45286 34.5833 6.14856 34.5833 7.91667V21.25C34.5833 23.0181 33.881 24.7138 32.6307 25.964C31.3805 27.2143 29.6848 27.9167 27.9167 27.9167H7.91667C6.14856 27.9167 4.45286 27.2143 3.20262 25.964C1.95238 24.7138 1.25 23.0181 1.25 21.25V7.91667Z" stroke="currentColor" stroke-width="2.5" stroke-linecap="round" stroke-linejoin="round"/>
<path d="M14.5833 9.58325L22.9167 14.5833L14.5833 19.5833V9.58325Z" stroke="currentColor" stroke-width="2.5" stroke-linecap="round" stroke-linejoin="round"/>
</svg>
