<svg width="263" height="269" viewBox="0 0 263 269" fill="none" xmlns="http://www.w3.org/2000/svg">
<path d="M59.1037 84.3062H97.1328V38.1777L59.1037 38.1777L59.1037 84.3062Z" fill="#EBEBEB"/>
<path d="M63.4527 80.099H92.7885V42.3888L63.4527 42.3888V80.099Z" fill="white"/>
<path d="M91.6448 80.099H92.7885V42.3888H91.6448V80.099Z" fill="#C7C7C7"/>
<path d="M57.959 84.3062H59.1027L59.1027 38.1777H57.959L57.959 84.3062Z" fill="#C7C7C7"/>
<path d="M77.4647 51.1061H70.5464V71.7173H77.4647V51.1061Z" fill="#EBEBEB"/>
<path d="M86.2633 58.0008H67.2144V47.2765H86.2633V58.0008ZM67.8206 57.3759H85.6383V47.9014H67.8393L67.8206 57.3759Z" fill="#EBEBEB"/>
<path d="M166.54 84.3062H204.569V38.1777L166.54 38.1777V84.3062Z" fill="#EBEBEB"/>
<path d="M170.884 80.099H200.22V42.3888L170.884 42.3888V80.099Z" fill="white"/>
<path d="M199.077 80.099H200.22V42.3888H199.077V80.099Z" fill="#C7C7C7"/>
<path d="M165.391 84.3062H166.534V38.1777H165.391V84.3062Z" fill="#C7C7C7"/>
<path d="M183.471 71.7256H190.39V51.1143H183.471V71.7256Z" fill="#EBEBEB"/>
<path d="M193.721 58.0008H174.647V47.2765H193.721V58.0008ZM175.272 57.3759H193.096V47.9014H175.272V57.3759Z" fill="#EBEBEB"/>
<path d="M112.355 91.8238H150.384V45.6953L112.355 45.6953V91.8238Z" fill="#EBEBEB"/>
<path d="M116.7 87.6125H146.036V49.9023L116.7 49.9023V87.6125Z" fill="white"/>
<path d="M144.892 87.6125H146.036V49.9023H144.892V87.6125Z" fill="#C7C7C7"/>
<path d="M111.214 91.8238H112.357V45.6953H111.214V91.8238Z" fill="#C7C7C7"/>
<path d="M128.281 74.6378H134.206V59.6512H128.281V74.6378Z" fill="#EBEBEB"/>
<path d="M138.273 79.3992H121.73V68.4686H138.273V79.3992ZM122.355 78.7742H137.648V69.0935H122.355V78.7742Z" fill="#DBDBDB"/>
<path d="M10.3861 142.696C10.6316 142.546 10.9138 142.466 11.2016 142.466C11.4895 142.466 11.7717 142.546 12.0172 142.696L12.4297 142.934C12.5734 143.009 12.7172 143.084 12.8672 143.152C13.1277 143.273 13.3497 143.464 13.5086 143.703C13.6674 143.943 13.7569 144.222 13.7671 144.509L13.8296 146.515L20.3542 146.308L20.2917 144.309C20.2837 144.021 20.3561 143.737 20.5008 143.489C20.6454 143.24 20.8566 143.037 21.1104 142.902C21.394 142.746 21.6693 142.575 21.9354 142.39C22.1693 142.225 22.4442 142.128 22.7298 142.109C23.0154 142.091 23.3006 142.151 23.5541 142.284L25.3165 143.234L28.4038 137.478L26.6414 136.534C26.3901 136.397 26.1814 136.193 26.0381 135.945C25.8948 135.697 25.8225 135.414 25.8289 135.128C25.8508 134.803 25.8508 134.478 25.8289 134.153C25.8016 133.867 25.8544 133.58 25.9813 133.323C26.1083 133.066 26.3044 132.849 26.5476 132.697L28.2538 131.641L24.8102 126.091L23.0978 127.153C22.854 127.302 22.574 127.38 22.2885 127.38C22.003 127.38 21.723 127.302 21.4792 127.153C21.3417 127.072 21.2042 126.991 21.0604 126.916L20.6355 126.697C20.3679 126.582 20.1381 126.393 19.9724 126.153C19.8067 125.914 19.7116 125.632 19.698 125.341L19.6355 123.335L13.1422 123.535L13.2046 125.529C13.211 125.816 13.1379 126.1 12.9935 126.35C12.8491 126.599 12.6389 126.803 12.3859 126.941C12.0982 127.094 11.8206 127.265 11.5547 127.453C11.3208 127.618 11.0459 127.715 10.7604 127.734C10.4748 127.753 10.1896 127.692 9.93608 127.56L8.14244 126.591L5.05511 132.347L6.81751 133.291C7.06974 133.427 7.27922 133.63 7.42265 133.879C7.56609 134.127 7.63785 134.41 7.62997 134.697C7.62154 135.024 7.63197 135.352 7.66121 135.678C7.68717 135.964 7.63313 136.252 7.50512 136.509C7.37711 136.766 7.18016 136.982 6.93626 137.134L5.2426 138.184L8.67991 143.734L10.3861 142.696ZM12.0235 132.397C12.5229 131.466 13.2873 130.704 14.2198 130.207C15.1523 129.71 16.2112 129.501 17.2626 129.606C18.314 129.711 19.3107 130.125 20.1267 130.796C20.9427 131.467 21.5414 132.365 21.8471 133.377C22.1528 134.388 22.1518 135.468 21.8442 136.478C21.5366 137.489 20.9362 138.386 20.1189 139.056C19.3016 139.726 18.3041 140.138 17.2525 140.241C16.2009 140.344 15.1424 140.132 14.2108 139.634C12.9618 138.964 12.0299 137.825 11.6198 136.468C11.2096 135.111 11.3548 133.647 12.0235 132.397Z" fill="#DBDBDB"/>
<path d="M194.751 102.365C194.923 102.468 195.064 102.617 195.158 102.794C195.251 102.971 195.294 103.171 195.282 103.372C195.282 103.484 195.282 103.597 195.282 103.709C195.282 103.822 195.282 103.94 195.282 104.053C195.295 104.252 195.252 104.451 195.158 104.628C195.064 104.804 194.923 104.951 194.751 105.053L193.538 105.759L195.82 109.715L197.038 109.015C197.213 108.916 197.412 108.867 197.613 108.875C197.814 108.883 198.009 108.946 198.176 109.059C198.369 109.177 198.563 109.296 198.763 109.396C198.948 109.483 199.104 109.62 199.215 109.791C199.325 109.962 199.385 110.161 199.388 110.365V111.765H203.957V110.34C203.96 110.136 204.021 109.938 204.131 109.767C204.241 109.595 204.397 109.458 204.582 109.371C204.788 109.271 204.981 109.152 205.175 109.034C205.342 108.921 205.537 108.858 205.738 108.85C205.939 108.842 206.138 108.891 206.313 108.99L207.563 109.69L209.844 105.734L208.625 105.028C208.452 104.925 208.311 104.777 208.217 104.6C208.124 104.422 208.081 104.222 208.094 104.022C208.094 103.909 208.094 103.797 208.094 103.684C208.094 103.572 208.094 103.459 208.094 103.347C208.082 103.146 208.125 102.946 208.218 102.769C208.312 102.592 208.453 102.443 208.625 102.34L209.844 101.64L207.506 97.7032L206.256 98.4031C206.081 98.5031 205.881 98.5525 205.679 98.5459C205.477 98.5393 205.281 98.4769 205.113 98.3656C204.925 98.2406 204.725 98.1282 204.525 98.0219C204.341 97.9363 204.185 97.8007 204.075 97.6305C203.964 97.4602 203.904 97.2624 203.9 97.0595V95.6596H199.382V97.0595C199.378 97.2624 199.318 97.4602 199.208 97.6305C199.097 97.8007 198.941 97.9363 198.757 98.0219C198.557 98.1282 198.357 98.2406 198.169 98.3656C198.001 98.4769 197.805 98.5393 197.603 98.5459C197.401 98.5525 197.201 98.5031 197.026 98.4031L195.813 97.7032L193.532 101.665L194.751 102.365ZM201.625 99.9655C202.367 99.9655 203.092 100.185 203.709 100.597C204.325 101.01 204.806 101.595 205.09 102.28C205.374 102.966 205.448 103.719 205.303 104.447C205.158 105.174 204.801 105.842 204.277 106.367C203.753 106.891 203.084 107.248 202.357 107.393C201.63 107.538 200.876 107.463 200.19 107.18C199.505 106.896 198.92 106.415 198.508 105.799C198.096 105.182 197.876 104.457 197.876 103.715C197.876 103.221 197.973 102.731 198.163 102.275C198.353 101.818 198.632 101.403 198.983 101.055C199.334 100.706 199.75 100.431 200.208 100.244C200.666 100.057 201.156 99.9622 201.65 99.9655H201.625Z" fill="#DBDBDB"/>
<path d="M217.607 88.1246C217.6 91.6486 218.64 95.0954 220.593 98.0285C222.546 100.962 225.326 103.25 228.58 104.602C231.834 105.955 235.417 106.313 238.874 105.629C242.331 104.945 245.507 103.251 248.002 100.761C250.496 98.2717 252.195 95.0981 252.885 91.6422C253.575 88.1862 253.224 84.6033 251.877 81.3469C250.529 78.0905 248.247 75.3069 245.317 73.3483C242.387 71.3898 238.942 70.3444 235.418 70.3444C230.7 70.3444 226.174 72.2166 222.834 75.5502C219.495 78.8837 217.615 83.4061 217.607 88.1246ZM227.1 88.1246C227.099 86.4791 227.585 84.8702 228.499 83.5015C229.412 82.1327 230.711 81.0656 232.23 80.435C233.75 79.8045 235.423 79.6389 237.037 79.9591C238.651 80.2794 240.134 81.0711 241.298 82.2342C242.462 83.3973 243.255 84.8794 243.576 86.4932C243.897 88.1069 243.733 89.7798 243.104 91.3001C242.474 92.8204 241.408 94.1199 240.04 95.0342C238.672 95.9485 237.063 96.4366 235.418 96.4366C233.213 96.4366 231.098 95.561 229.538 94.0024C227.979 92.4438 227.101 90.3296 227.1 88.1246Z" fill="#EBEBEB"/>
<path d="M231.993 71.0566H238.836L238.461 66.2069H232.368L231.993 71.0566Z" fill="#EBEBEB"/>
<path d="M245.023 73.3609L249.867 78.2043L253.029 74.5108L248.723 70.2048L245.023 73.3609Z" fill="#EBEBEB"/>
<path d="M252.611 84.2118V91.0614L257.46 90.6802V84.5868L252.611 84.2118Z" fill="#EBEBEB"/>
<path d="M250.304 97.2419L245.461 102.085L249.154 105.248L253.46 100.942L250.304 97.2419Z" fill="#EBEBEB"/>
<path d="M239.456 104.829H232.606L232.987 109.679H239.075L239.456 104.829Z" fill="#EBEBEB"/>
<path d="M226.426 102.522L221.582 97.679L218.42 101.373L222.726 105.679L226.426 102.522Z" fill="#EBEBEB"/>
<path d="M218.837 91.6729V84.8295L213.988 85.2045V91.2979L218.837 91.6729Z" fill="#EBEBEB"/>
<path d="M221.143 78.6436L225.986 73.8002L222.293 70.6379L217.98 74.9439L221.143 78.6436Z" fill="#EBEBEB"/>
<path d="M17.3873 22.6975C17.3873 26.219 18.4315 29.6614 20.388 32.5895C22.3445 35.5175 25.1253 37.7997 28.3787 39.1473C31.6322 40.4949 35.2122 40.8475 38.6661 40.1605C42.12 39.4735 45.2926 37.7777 47.7827 35.2876C50.2728 32.7975 51.9686 29.625 52.6556 26.1711C53.3426 22.7172 52.99 19.1372 51.6424 15.8837C50.2948 12.6303 48.0126 9.84947 45.0846 7.89301C42.1565 5.93655 38.714 4.8923 35.1925 4.8923C30.4708 4.89395 25.9429 6.77038 22.6041 10.1091C19.2654 13.4479 17.3889 17.9758 17.3873 22.6975ZM26.8742 22.6975C26.873 21.052 27.3598 19.4431 28.2731 18.0744C29.1863 16.7056 30.485 15.6385 32.0049 15.008C33.5248 14.3774 35.1975 14.2118 36.8115 14.532C38.4255 14.8523 39.9082 15.644 41.0722 16.8071C42.2362 17.9702 43.029 19.4524 43.3505 21.0661C43.672 22.6799 43.5076 24.3527 42.8782 25.873C42.2488 27.3934 41.1826 28.6929 39.8145 29.6072C38.4465 30.5215 36.838 31.0095 35.1925 31.0095C32.9907 31.0045 30.8807 30.1268 29.3249 28.5687C27.7692 27.0106 26.8946 24.8993 26.893 22.6975H26.8742Z" fill="#EBEBEB"/>
<path d="M31.7669 5.62919H38.6165L38.2415 0.779478H32.1481L31.7669 5.62919Z" fill="#EBEBEB"/>
<path d="M44.8032 7.93352L49.6466 12.777L52.8027 9.0772L48.4967 4.77121L44.8032 7.93352Z" fill="#EBEBEB"/>
<path d="M52.3914 18.7782V25.6278L57.2349 25.2528V19.1594L52.3914 18.7782Z" fill="#EBEBEB"/>
<path d="M50.0779 31.8144L45.2407 36.6579L48.9342 39.8139L53.2402 35.508L50.0779 31.8144Z" fill="#EBEBEB"/>
<path d="M39.2346 39.4018H32.385L32.7662 44.2452H38.8534L39.2346 39.4018Z" fill="#EBEBEB"/>
<path d="M26.199 37.095L21.3555 32.2516L18.1995 35.9451L22.5055 40.2511L26.199 37.095Z" fill="#EBEBEB"/>
<path d="M18.611 26.2455V19.3959L13.7675 19.7772V25.8643L18.611 26.2455Z" fill="#EBEBEB"/>
<path d="M20.9243 13.2099L25.7615 8.37271L22.068 5.2104L17.762 9.51639L20.9243 13.2099Z" fill="#EBEBEB"/>
<path d="M0 268.526L32.8169 268.376L65.6338 268.32L131.261 268.213L196.889 268.32L229.706 268.376L262.522 268.526L229.706 268.682L196.889 268.732L131.261 268.838L65.6338 268.732L32.8169 268.682L0 268.526Z" fill="#263238"/>
<path d="M113.806 16.8544C113.515 19.6491 112.452 22.3078 110.737 24.5339C109.023 26.7599 106.723 28.4656 104.095 29.4606C101.467 30.4555 98.6146 30.7007 95.8555 30.1687C93.0964 29.6366 90.5394 28.3483 88.47 26.4475L80.8829 27.56L84.6827 21.0041C83.6909 18.5774 83.3455 15.9349 83.6803 13.3347C84.0151 10.7346 85.0187 8.2658 86.5929 6.1695C88.1672 4.0732 90.2583 2.42112 92.662 1.37467C95.0657 0.328216 97.6998 -0.0768242 100.307 0.199127C104.305 0.619754 107.972 2.61019 110.503 5.73313C113.034 8.85607 114.222 12.8561 113.806 16.8544Z" fill="white"/>
<path d="M113.806 16.8534C113.511 19.6484 112.451 22.308 110.743 24.5404C109.907 25.6648 108.904 26.6552 107.769 27.4777C106.652 28.3258 105.421 29.0117 104.113 29.5151C102.798 30.0275 101.418 30.3556 100.013 30.49C99.3105 30.5525 98.6046 30.565 97.9005 30.5275C97.1977 30.5138 96.4973 30.4406 95.8069 30.3088C93.0121 29.7953 90.4154 28.5143 88.3073 26.609L88.4885 26.659L80.9202 27.8465L80.3702 27.9277L80.6515 27.4402L84.4013 20.8719V21.1344C83.5112 18.9602 83.1323 16.6107 83.2937 14.267C83.4552 11.9233 84.1527 9.64797 85.3324 7.61642C86.5154 5.59545 88.139 3.86727 90.0822 2.56048C92.4999 0.953692 95.3243 0.0669793 98.2266 0.003647C101.129 -0.0596852 103.989 0.70297 106.475 2.20276C108.96 3.70255 110.968 5.87773 112.265 8.47487C113.562 11.072 114.094 13.9842 113.8 16.8721L113.806 16.8534ZM113.806 16.8534C114.048 14.5697 113.762 12.261 112.971 10.1052C112.18 7.94935 110.905 6.00395 109.243 4.41893C107.581 2.83392 105.578 1.65162 103.387 0.963171C101.196 0.274722 98.8765 0.0985063 96.6068 0.448106C94.3606 0.795459 92.2233 1.65041 90.3572 2.94796C88.5062 4.23539 86.9544 5.90655 85.8074 7.84766C84.69 9.81458 84.0319 12.0088 83.8825 14.266C83.744 16.52 84.1091 18.7765 84.9512 20.8719L85.0075 21.0031L84.9325 21.1281L81.1139 27.6777L80.8452 27.2715L88.4385 26.209H88.5448L88.6198 26.2778C90.6426 28.1781 93.1554 29.4766 95.8756 30.0276C96.5561 30.1608 97.2454 30.2444 97.938 30.2776C98.6288 30.3244 99.322 30.3244 100.013 30.2776C101.398 30.1708 102.761 29.87 104.063 29.3839C105.373 28.9134 106.605 28.2498 107.719 27.4152C108.853 26.6041 109.858 25.6265 110.7 24.5154C112.419 22.295 113.494 19.6441 113.806 16.8534Z" fill="#263238"/>
<path d="M95.188 15.8093C95.1888 16.0945 95.2774 16.3725 95.4418 16.6056C95.6062 16.8386 95.8385 17.0153 96.1069 17.1116C96.3754 17.2079 96.667 17.2192 96.942 17.1438C97.2171 17.0685 97.4623 16.9102 97.6442 16.6905C97.7298 16.5819 97.847 16.5026 97.9796 16.4634C98.1122 16.4242 98.2537 16.4271 98.3846 16.4716C98.5155 16.5162 98.6294 16.6002 98.7106 16.7121C98.7917 16.8241 98.8362 16.9585 98.8378 17.0967V20.5715H89.3134V17.0967C89.3125 17.0095 89.3291 16.923 89.3621 16.8422C89.3951 16.7615 89.4439 16.6881 89.5055 16.6264C89.5672 16.5648 89.6406 16.516 89.7213 16.483C89.8021 16.45 89.8886 16.4334 89.9758 16.4343C90.077 16.4345 90.1769 16.4576 90.2678 16.502C90.3587 16.5464 90.4384 16.6109 90.5008 16.6905C90.6322 16.8482 90.7965 16.9753 90.9822 17.0627C91.1679 17.1502 91.3705 17.1959 91.5758 17.1967C91.81 17.197 92.0406 17.138 92.2459 17.0251C92.4512 16.9123 92.6246 16.7493 92.7499 16.5513C92.8752 16.3533 92.9483 16.1269 92.9625 15.893C92.9766 15.6591 92.9313 15.4255 92.8307 15.2139C92.7302 15.0023 92.5777 14.8196 92.3875 14.6828C92.1972 14.546 91.9755 14.4597 91.7428 14.4318C91.5102 14.4039 91.2743 14.4353 91.0571 14.5232C90.84 14.6111 90.6486 14.7525 90.5008 14.9344C90.4375 15.013 90.3576 15.0767 90.2669 15.121C90.1762 15.1653 90.0768 15.189 89.9758 15.1906C89.8001 15.1906 89.6316 15.1208 89.5074 14.9966C89.3832 14.8723 89.3134 14.7038 89.3134 14.5281V11.0471H92.7882C92.8754 11.0479 92.9619 11.0314 93.0427 10.9984C93.1234 10.9654 93.1968 10.9166 93.2585 10.8549C93.3202 10.7932 93.3689 10.7199 93.4019 10.6391C93.4349 10.5584 93.4515 10.4719 93.4506 10.3846C93.4504 10.2834 93.4273 10.1836 93.3829 10.0927C93.3385 10.0018 93.2741 9.92208 93.1944 9.85966C93.0139 9.71121 92.8738 9.51956 92.7871 9.30249C92.7004 9.08542 92.67 8.84998 92.6986 8.61801C92.7273 8.38604 92.8141 8.16507 92.9509 7.9756C93.0878 7.78614 93.2703 7.63432 93.4815 7.53423C93.6928 7.43415 93.9258 7.38906 94.1591 7.40313C94.3924 7.4172 94.6184 7.48998 94.8161 7.61472C95.0137 7.73946 95.1767 7.91211 95.2898 8.11665C95.4029 8.3212 95.4625 8.551 95.463 8.78473C95.4632 8.99078 95.4173 9.19427 95.3286 9.38026C95.2399 9.56626 95.1108 9.73006 94.9506 9.85966C94.8719 9.92298 94.8082 10.0028 94.7639 10.0936C94.7196 10.1843 94.6959 10.2837 94.6943 10.3846C94.6943 10.5603 94.7641 10.7288 94.8884 10.8531C95.0126 10.9773 95.1811 11.0471 95.3568 11.0471H98.8378V14.5281C98.8362 14.7044 98.765 14.8729 98.6398 14.9969C98.5145 15.121 98.3454 15.1906 98.1691 15.1906C98.0682 15.189 97.9688 15.1653 97.8781 15.121C97.7873 15.0767 97.7075 15.013 97.6442 14.9344C97.5158 14.7743 97.3531 14.6451 97.1682 14.5564C96.9832 14.4677 96.7806 14.4218 96.5755 14.4219C96.2075 14.4219 95.8546 14.5681 95.5944 14.8283C95.3342 15.0884 95.188 15.4413 95.188 15.8093Z" fill="#E2231C"/>
<path d="M108.567 9.84696L110.055 19.2589L106.618 19.7964C106.532 19.8106 106.444 19.8076 106.359 19.7876C106.275 19.7675 106.195 19.7309 106.124 19.6797C106.054 19.6285 105.994 19.5638 105.949 19.4894C105.904 19.4151 105.874 19.3324 105.861 19.2464C105.843 19.1464 105.85 19.0435 105.88 18.9466C105.911 18.8497 105.964 18.7617 106.036 18.6902C106.172 18.5351 106.271 18.3525 106.328 18.1549C106.386 17.9574 106.399 17.7497 106.368 17.5465C106.348 17.3593 106.29 17.178 106.199 17.0137C106.107 16.8494 105.982 16.7055 105.833 16.5908C105.684 16.4761 105.513 16.393 105.33 16.3465C105.148 16.3 104.958 16.2912 104.772 16.3205C104.586 16.3498 104.408 16.4166 104.248 16.5169C104.089 16.6172 103.952 16.7489 103.845 16.9039C103.738 17.059 103.664 17.2341 103.627 17.4187C103.59 17.6033 103.591 17.7935 103.63 17.9777C103.661 18.1808 103.737 18.3744 103.853 18.5442C103.969 18.714 104.121 18.8557 104.299 18.9589C104.387 19.0092 104.463 19.0784 104.522 19.1616C104.58 19.2448 104.619 19.34 104.636 19.4401C104.65 19.5263 104.646 19.6143 104.625 19.699C104.604 19.7837 104.567 19.8635 104.515 19.9337C104.464 20.004 104.399 20.0634 104.324 20.1084C104.249 20.1535 104.166 20.1834 104.08 20.1963L100.643 20.74L100.105 17.309C100.093 17.2221 100.062 17.1387 100.017 17.0636C99.9715 16.9884 99.9116 16.9231 99.8406 16.8713C99.7697 16.8196 99.6892 16.7824 99.6037 16.7621C99.5183 16.7417 99.4297 16.7386 99.343 16.7528C99.2441 16.7712 99.1504 16.811 99.0684 16.8692C98.9863 16.9275 98.918 17.0029 98.868 17.0903C98.7493 17.2917 98.5816 17.4598 98.3806 17.579C98.1795 17.6983 97.9516 17.7648 97.7179 17.7724C97.4843 17.78 97.2525 17.7284 97.0441 17.6225C96.8357 17.5165 96.6575 17.3597 96.5259 17.1664C96.3944 16.9732 96.3138 16.7498 96.2916 16.5171C96.2695 16.2844 96.3065 16.0498 96.3993 15.8353C96.492 15.6207 96.6375 15.433 96.8221 15.2897C97.0068 15.1463 97.2247 15.052 97.4556 15.0154C97.6584 14.9822 97.866 14.9954 98.063 15.0538C98.26 15.1123 98.4412 15.2145 98.593 15.3529C98.667 15.4214 98.7553 15.4726 98.8515 15.5029C98.9477 15.5331 99.0494 15.5417 99.1493 15.5279C99.2355 15.5149 99.3184 15.485 99.393 15.44C99.4677 15.3949 99.5328 15.3355 99.5844 15.2653C99.6361 15.195 99.6734 15.1152 99.6942 15.0305C99.7149 14.9458 99.7188 14.8579 99.7055 14.7717L99.1618 11.3281L102.599 10.7906C102.736 10.7675 102.878 10.7883 103.003 10.8501C103.127 10.9118 103.23 11.0114 103.295 11.1346C103.36 11.2578 103.384 11.3984 103.365 11.5363C103.346 11.6743 103.283 11.8026 103.187 11.9031C103.05 12.0558 102.949 12.2372 102.891 12.4341C102.834 12.631 102.822 12.8382 102.855 13.0405C102.912 13.4027 103.111 13.7273 103.408 13.9429C103.704 14.1586 104.074 14.2476 104.436 14.1904C104.799 14.1333 105.123 13.9345 105.339 13.638C105.555 13.3415 105.644 12.9715 105.586 12.6093C105.556 12.4075 105.481 12.2152 105.366 12.0465C105.251 11.8777 105.1 11.7369 104.924 11.6343C104.836 11.5841 104.76 11.5148 104.701 11.4316C104.643 11.3484 104.604 11.2533 104.586 11.1531C104.572 11.0669 104.575 10.9787 104.595 10.8937C104.615 10.8086 104.652 10.7283 104.703 10.6574C104.754 10.5866 104.818 10.5265 104.893 10.4807C104.967 10.4349 105.05 10.4043 105.136 10.3907L108.567 9.84696Z" fill="#455A64"/>
<path d="M100.519 158.644V186.111H127.986V158.644H100.519Z" fill="#C7C7C7"/>
<path d="M100.519 131.178V158.645H127.986V131.178H100.519Z" fill="#C7C7C7"/>
<path d="M73.0521 131.178V158.645H100.519V131.178H73.0521Z" fill="#C7C7C7"/>
<path d="M73.0521 103.71V131.177H100.519V103.71H73.0521Z" fill="#C7C7C7"/>
<path d="M73.0521 131.178C75.3395 131.04 77.6331 130.978 79.9267 130.928C82.2204 130.878 84.5015 130.859 86.8013 130.847C89.1012 130.834 91.3823 130.847 93.6759 130.928L97.1132 131.015C98.2569 131.072 99.4006 131.103 100.544 131.178C99.4006 131.253 98.2569 131.284 97.1132 131.34L93.6759 131.434C91.3886 131.49 89.1012 131.503 86.8013 131.509C84.5015 131.515 82.2266 131.509 79.9267 131.434C77.6269 131.359 75.3395 131.315 73.0521 131.178Z" fill="#A6A6A6"/>
<path d="M100.519 158.644C102.807 158.506 105.094 158.444 107.394 158.394C109.694 158.344 111.969 158.325 114.268 158.313C116.568 158.3 118.849 158.313 121.143 158.394L124.58 158.481C125.724 158.538 126.868 158.569 128.011 158.644C126.868 158.719 125.724 158.75 124.58 158.806L121.143 158.9C118.856 158.956 116.568 158.969 114.268 158.975C111.969 158.981 109.694 158.975 107.394 158.9C105.094 158.825 102.807 158.781 100.519 158.644Z" fill="#A6A6A6"/>
<path d="M100.52 158.645C100.382 156.357 100.32 154.07 100.27 151.77C100.22 149.47 100.201 147.195 100.188 144.895C100.176 142.596 100.188 140.314 100.263 138.021L100.357 134.59C100.413 133.44 100.445 132.296 100.52 131.152C100.595 132.296 100.626 133.44 100.682 134.59L100.776 138.021C100.832 140.308 100.845 142.596 100.851 144.895C100.857 147.195 100.851 149.47 100.77 151.77C100.688 154.07 100.638 156.357 100.52 158.645Z" fill="#A6A6A6"/>
<path d="M100.513 131.183H114.45V103.722H100.513V131.183Z" fill="#A6A6A6"/>
<path d="M127.979 186.111H141.916V131.183H127.979V186.111Z" fill="#A6A6A6"/>
<path d="M210.388 213.578V241.045H237.855V213.578H210.388Z" fill="#E2231C"/>
<path d="M182.921 213.578V241.045H210.388V213.578H182.921Z" fill="#E2231C"/>
<path d="M210.388 241.046V268.513H237.855V241.046H210.388Z" fill="#E2231C"/>
<path d="M210.388 186.112V213.579H237.855V186.112H210.388Z" fill="#E2231C"/>
<path d="M237.848 268.513H251.784V186.118H237.848V268.513Z" fill="#E2231C"/>
<path opacity="0.1" d="M237.848 268.513H251.784V186.118H237.848V268.513Z" fill="black"/>
<path opacity="0.1" d="M210.375 241.047C210.238 238.759 210.175 236.472 210.119 234.172C210.063 231.872 210.05 229.597 210.044 227.297C210.038 224.998 210.044 222.717 210.119 220.423L210.213 216.992C210.269 215.842 210.3 214.698 210.375 213.555C210.45 214.698 210.481 215.842 210.538 216.992L210.625 220.423C210.688 222.71 210.694 224.998 210.706 227.297C210.719 229.597 210.706 231.872 210.625 234.172C210.544 236.472 210.506 238.759 210.375 241.047Z" fill="black"/>
<path opacity="0.1" d="M210.375 241.046C212.662 240.909 214.95 240.846 217.25 240.796C219.55 240.746 221.831 240.727 224.124 240.715C226.418 240.702 228.705 240.715 230.999 240.79L234.43 240.884C235.574 240.94 236.724 240.971 237.867 241.046C236.724 241.121 235.574 241.152 234.43 241.209L230.999 241.302C228.712 241.359 226.418 241.371 224.124 241.377C221.831 241.384 219.55 241.377 217.25 241.302C214.95 241.227 212.662 241.184 210.375 241.046Z" fill="black"/>
<path opacity="0.1" d="M210.375 213.578C212.662 213.441 214.95 213.378 217.25 213.328C219.55 213.278 221.831 213.259 224.124 213.247C226.418 213.234 228.705 213.247 230.999 213.322L234.43 213.416C235.574 213.472 236.724 213.503 237.867 213.578C236.724 213.653 235.574 213.684 234.43 213.741L230.999 213.834C228.712 213.891 226.418 213.903 224.124 213.909C221.831 213.916 219.55 213.909 217.25 213.834C214.95 213.759 212.662 213.716 210.375 213.578Z" fill="black"/>
<path d="M100.519 213.578V241.045H127.986V213.578H100.519Z" fill="#263238"/>
<path d="M100.519 186.112V213.579H127.986V186.112H100.519Z" fill="#263238"/>
<path d="M127.986 186.112V213.579H155.454V186.112H127.986Z" fill="#263238"/>
<path d="M127.986 158.644V186.111H155.454V158.644H127.986Z" fill="#263238"/>
<path d="M127.986 213.579C127.849 211.291 127.786 209.004 127.73 206.704C127.674 204.404 127.661 202.129 127.655 199.829C127.649 197.53 127.655 195.248 127.73 192.955L127.824 189.524C127.88 188.374 127.911 187.23 127.986 186.087C128.061 187.23 128.092 188.374 128.149 189.524L128.242 192.955C128.299 195.242 128.311 197.53 128.317 199.829C128.324 202.129 128.317 204.404 128.236 206.704C128.155 209.004 128.136 211.291 127.986 213.579Z" fill="#455A64"/>
<path d="M127.986 186.118C130.274 185.98 132.561 185.918 134.861 185.862C137.161 185.805 139.436 185.793 141.736 185.787C144.035 185.78 146.317 185.787 148.61 185.862L152.047 185.955C153.191 186.012 154.335 186.043 155.479 186.118C154.335 186.193 153.191 186.224 152.047 186.28L148.61 186.368C146.323 186.43 144.035 186.437 141.736 186.449C139.436 186.462 137.161 186.449 134.861 186.368C132.561 186.287 130.274 186.255 127.986 186.118Z" fill="#455A64"/>
<path d="M100.519 213.578C102.807 213.441 105.094 213.378 107.394 213.328C109.694 213.278 111.969 213.259 114.268 213.247C116.568 213.234 118.849 213.247 121.143 213.322L124.58 213.416C125.724 213.472 126.868 213.503 128.011 213.578C126.868 213.653 125.724 213.684 124.58 213.741L121.143 213.834C118.856 213.891 116.568 213.903 114.268 213.909C111.969 213.916 109.694 213.909 107.394 213.834C105.094 213.759 102.807 213.716 100.519 213.578Z" fill="#455A64"/>
<path d="M155.454 213.579H127.986V241.046H155.454V213.579Z" fill="#C7C7C7"/>
<path d="M182.921 213.579H155.453V241.046H182.921V213.579Z" fill="#C7C7C7"/>
<path d="M182.921 186.111H155.453V213.578H182.921V186.111Z" fill="#C7C7C7"/>
<path d="M210.388 186.111H182.921V213.578H210.388V186.111Z" fill="#C7C7C7"/>
<path d="M182.92 213.579C182.783 211.291 182.72 209.004 182.664 206.704C182.608 204.404 182.595 202.129 182.589 199.829C182.583 197.53 182.589 195.248 182.664 192.955L182.758 189.524C182.814 188.374 182.845 187.23 182.92 186.087C182.995 187.23 183.027 188.374 183.083 189.524L183.177 192.955C183.233 195.242 183.245 197.53 183.252 199.829C183.258 202.129 183.252 204.404 183.17 206.704C183.089 209.004 183.058 211.291 182.92 213.579Z" fill="#A6A6A6"/>
<path d="M155.453 241.047C155.316 238.759 155.253 236.472 155.197 234.172C155.141 231.872 155.128 229.597 155.122 227.297C155.116 224.998 155.122 222.717 155.197 220.423L155.291 216.992C155.347 215.842 155.378 214.698 155.453 213.555C155.528 214.698 155.56 215.842 155.616 216.992L155.71 220.423C155.766 222.71 155.778 224.998 155.785 227.297C155.791 229.597 155.785 231.872 155.703 234.172C155.622 236.472 155.591 238.759 155.453 241.047Z" fill="#A6A6A6"/>
<path d="M155.453 213.578C157.741 213.441 160.028 213.378 162.328 213.328C164.628 213.278 166.903 213.259 169.203 213.247C171.503 213.234 173.784 213.247 176.077 213.322L179.515 213.416C180.658 213.472 181.802 213.503 182.946 213.578C181.802 213.653 180.658 213.684 179.515 213.741L176.077 213.834C173.79 213.891 171.503 213.903 169.203 213.909C166.903 213.916 164.628 213.909 162.328 213.834C160.028 213.759 157.741 213.716 155.453 213.578Z" fill="#A6A6A6"/>
<path d="M73.0521 241.046V268.513H100.519V241.046H73.0521Z" fill="#E2231C"/>
<path d="M73.0521 213.578V241.045H100.519V213.578H73.0521Z" fill="#E2231C"/>
<path d="M73.0521 186.112V213.579H100.519V186.112H73.0521Z" fill="#E2231C"/>
<path d="M73.0521 158.644V186.111H100.519V158.644H73.0521Z" fill="#E2231C"/>
<path opacity="0.1" d="M73.0521 186.112C75.3395 185.975 77.6331 185.912 79.9267 185.862C82.2204 185.812 84.5015 185.793 86.8013 185.781C89.1012 185.768 91.3823 185.781 93.6759 185.862L97.1132 185.95C98.2569 186.006 99.4006 186.037 100.544 186.112C99.4006 186.187 98.2569 186.218 97.1132 186.274L93.6759 186.368C91.3886 186.424 89.1012 186.437 86.8013 186.443C84.5015 186.449 82.2266 186.443 79.9267 186.368C77.6269 186.293 75.3395 186.249 73.0521 186.112Z" fill="black"/>
<path opacity="0.1" d="M73.0521 213.578C75.3395 213.441 77.6331 213.378 79.9267 213.328C82.2204 213.278 84.5015 213.259 86.8013 213.247C89.1012 213.234 91.3823 213.247 93.6759 213.322L97.1132 213.416C98.2569 213.472 99.4006 213.503 100.544 213.578C99.4006 213.653 98.2569 213.684 97.1132 213.741L93.6759 213.834C91.3886 213.891 89.1012 213.903 86.8013 213.909C84.5015 213.916 82.2266 213.909 79.9267 213.834C77.6269 213.759 75.3395 213.716 73.0521 213.578Z" fill="black"/>
<path opacity="0.1" d="M73.0521 241.046C75.3395 240.909 77.6331 240.846 79.9267 240.796C82.2204 240.746 84.5015 240.727 86.8013 240.715C89.1012 240.702 91.3823 240.715 93.6759 240.79L97.1132 240.884C98.2569 240.94 99.4006 240.971 100.544 241.046C99.4006 241.121 98.2569 241.152 97.1132 241.209L93.6759 241.302C91.3886 241.359 89.1012 241.371 86.8013 241.377C84.5015 241.384 82.2266 241.377 79.9267 241.302C77.6269 241.227 75.3395 241.184 73.0521 241.046Z" fill="black"/>
<path d="M127.986 241.045H100.519V268.512H127.986V241.045Z" fill="#455A64"/>
<path d="M155.454 241.045H127.986V268.512H155.454V241.045Z" fill="#455A64"/>
<path d="M182.921 241.045H155.453V268.512H182.921V241.045Z" fill="#455A64"/>
<path d="M210.388 241.045H182.921V268.512H210.388V241.045Z" fill="#455A64"/>
<path d="M127.986 268.506C127.849 266.219 127.786 263.932 127.73 261.632C127.674 259.332 127.661 257.051 127.655 254.757C127.649 252.464 127.655 250.182 127.73 247.883L127.824 244.452C127.88 243.308 127.911 242.164 127.986 241.021C128.061 242.164 128.092 243.308 128.149 244.452L128.242 247.883C128.299 250.176 128.311 252.464 128.317 254.757C128.324 257.051 128.317 259.338 128.236 261.632C128.155 263.925 128.136 266.219 127.986 268.506Z" fill="#37474F"/>
<path d="M155.453 268.506C155.316 266.219 155.253 263.932 155.197 261.632C155.141 259.332 155.128 257.051 155.122 254.757C155.116 252.464 155.122 250.182 155.197 247.883L155.291 244.452C155.347 243.308 155.378 242.164 155.453 241.021C155.528 242.164 155.56 243.308 155.616 244.452L155.71 247.883C155.766 250.176 155.778 252.464 155.785 254.757C155.791 257.051 155.785 259.338 155.703 261.632C155.622 263.925 155.591 266.219 155.453 268.506Z" fill="#37474F"/>
<path d="M182.92 268.506C182.783 266.219 182.72 263.932 182.664 261.632C182.608 259.332 182.595 257.051 182.589 254.757C182.583 252.464 182.589 250.182 182.664 247.883L182.758 244.452C182.814 243.308 182.845 242.164 182.92 241.021C182.995 242.164 183.027 243.308 183.083 244.452L183.177 247.883C183.233 250.176 183.245 252.464 183.252 254.757C183.258 257.051 183.252 259.338 183.17 261.632C183.089 263.925 183.058 266.219 182.92 268.506Z" fill="#37474F"/>
<path d="M210.388 186.111H237.855V158.644H210.388V186.111Z" fill="#455A64"/>
<path d="M182.92 186.111H210.388V158.644H182.92V186.111Z" fill="#455A64"/>
<path d="M155.453 186.111H182.921V158.644H155.453V186.111Z" fill="#455A64"/>
<path d="M155.453 158.645H182.921V131.178H155.453V158.645Z" fill="#455A64"/>
<path d="M237.848 186.111H251.784V158.65H237.848V186.111Z" fill="#37474F"/>
<path d="M182.92 186.113C182.783 183.825 182.72 181.538 182.664 179.238C182.608 176.938 182.595 174.663 182.589 172.363C182.583 170.064 182.589 167.782 182.664 165.489L182.758 162.058C182.814 160.908 182.845 159.764 182.92 158.621C182.995 159.764 183.027 160.908 183.083 162.058L183.177 165.489C183.233 167.776 183.245 170.064 183.252 172.363C183.258 174.663 183.252 176.938 183.17 179.238C183.089 181.538 183.058 183.825 182.92 186.113Z" fill="#37474F"/>
<path d="M210.387 186.113C210.25 183.825 210.187 181.538 210.131 179.238C210.075 176.938 210.062 174.663 210.056 172.363C210.05 170.064 210.056 167.782 210.131 165.489L210.225 162.058C210.281 160.908 210.312 159.764 210.387 158.621C210.462 159.764 210.494 160.908 210.55 162.058L210.644 165.489C210.7 167.776 210.706 170.064 210.719 172.363C210.731 174.663 210.719 176.938 210.637 179.238C210.556 181.538 210.525 183.825 210.387 186.113Z" fill="#37474F"/>
<path d="M155.453 158.644C157.741 158.506 160.028 158.444 162.328 158.394C164.628 158.344 166.903 158.325 169.203 158.313C171.503 158.3 173.784 158.313 176.077 158.394L179.515 158.481C180.658 158.538 181.802 158.569 182.946 158.644C181.802 158.719 180.658 158.75 179.515 158.806L176.077 158.9C173.79 158.956 171.503 158.969 169.203 158.975C166.903 158.981 164.628 158.975 162.328 158.9C160.028 158.825 157.741 158.781 155.453 158.644Z" fill="#37474F"/>
<path d="M210.388 158.645H237.855V131.178H210.388V158.645Z" fill="#C7C7C7"/>
<path d="M182.92 158.645H210.388V131.178H182.92V158.645Z" fill="#C7C7C7"/>
<path d="M210.388 131.177H237.855V103.71H210.388V131.177Z" fill="#C7C7C7"/>
<path d="M182.92 131.177H210.388V103.71H182.92V131.177Z" fill="#C7C7C7"/>
<path d="M237.848 158.651H251.784V103.73H237.848V158.651Z" fill="#A6A6A6"/>
<path d="M210.375 131.179C210.238 128.891 210.175 126.604 210.119 124.304C210.063 122.004 210.05 119.729 210.044 117.429C210.038 115.13 210.044 112.848 210.119 110.555L210.213 107.124C210.269 105.98 210.3 104.83 210.375 103.687C210.45 104.83 210.481 105.98 210.538 107.124L210.625 110.555C210.688 112.842 210.694 115.13 210.706 117.429C210.719 119.729 210.706 122.004 210.625 124.304C210.544 126.604 210.506 128.891 210.375 131.179Z" fill="#A6A6A6"/>
<path d="M210.375 158.645C210.238 156.357 210.175 154.07 210.119 151.77C210.063 149.47 210.05 147.195 210.044 144.895C210.038 142.596 210.044 140.314 210.119 138.021L210.213 134.59C210.269 133.44 210.3 132.296 210.375 131.152C210.45 132.296 210.481 133.44 210.538 134.59L210.625 138.021C210.688 140.308 210.694 142.596 210.706 144.895C210.719 147.195 210.706 149.47 210.625 151.77C210.544 154.07 210.506 156.357 210.375 158.645Z" fill="#A6A6A6"/>
<path d="M210.375 131.178C212.662 131.04 214.95 130.978 217.25 130.928C219.55 130.878 221.831 130.859 224.124 130.847C226.418 130.834 228.705 130.847 230.999 130.928L234.43 131.015C235.574 131.072 236.724 131.103 237.867 131.178C236.724 131.253 235.574 131.284 234.43 131.34L230.999 131.434C228.712 131.49 226.418 131.503 224.124 131.509C221.831 131.515 219.55 131.509 217.25 131.434C214.95 131.359 212.662 131.315 210.375 131.178Z" fill="#A6A6A6"/>
<path d="M182.783 131.178C185.071 131.04 187.358 130.978 189.658 130.928C191.958 130.878 194.233 130.859 196.533 130.847C198.832 130.834 201.114 130.847 203.407 130.928L206.844 131.015C207.988 131.072 209.132 131.103 210.275 131.178C209.132 131.253 207.988 131.284 206.844 131.34L203.407 131.434C201.12 131.49 198.832 131.503 196.533 131.509C194.233 131.515 191.958 131.509 189.658 131.434C187.358 131.359 185.071 131.315 182.783 131.178Z" fill="#A6A6A6"/>
<path d="M101.151 268.382C99.5071 268.919 52.6223 268.494 50.8536 267.344C50.1724 266.919 49.8349 260.082 49.6662 251.814C49.6662 251.727 49.6662 251.639 49.6662 251.558C49.6287 249.852 50.2912 222.185 50.2912 222.185L80.9144 222.372L79.8707 251.514V252.027C79.8707 252.027 97.7447 260.214 99.5633 261.688C101.382 263.163 102.794 267.832 101.151 268.382Z" fill="#AD6359"/>
<path d="M101.157 268.382C99.5066 268.913 52.628 268.501 50.8469 267.351C50.1657 266.92 49.8345 260.089 49.6657 251.814C49.6657 251.727 49.6657 251.639 49.6657 251.558C49.6657 251.233 49.6657 249.446 49.722 247.615L80.0515 247.677L79.914 251.489V252.002C79.914 252.002 97.788 260.189 99.6066 261.664C101.425 263.139 102.794 267.832 101.157 268.382Z" fill="white"/>
<path d="M101.626 268.55C99.9571 269.094 52.1661 268.788 50.3787 267.625C49.6913 267.188 49.3288 260.226 49.1288 251.801L79.9395 251.908C79.9395 251.908 98.1385 260.213 100.013 261.701C101.888 263.188 103.301 268 101.626 268.55Z" fill="#A6A6A6"/>
<path d="M100.956 266.632C92.9443 266.382 60.6212 266.139 52.6841 266.501C52.6154 266.501 52.6154 266.551 52.6841 266.551C60.6149 266.97 92.9443 266.957 100.956 266.764C101.125 266.757 101.125 266.639 100.956 266.632Z" fill="#263238"/>
<path d="M96.9501 259.965C96.0593 259.935 95.1719 260.09 94.3444 260.421C93.517 260.753 92.7677 261.253 92.1441 261.89C91.0141 263.025 90.3631 264.551 90.3255 266.152C90.3255 266.202 90.413 266.202 90.4192 266.152C90.7033 264.568 91.4933 263.118 92.6707 262.021C93.8482 260.923 95.3497 260.237 96.9501 260.065C97.0126 260.059 97.0126 259.965 96.9501 259.965Z" fill="#263238"/>
<path d="M83.0142 252.727C79.8081 252.665 76.0833 253.771 74.0772 256.377C73.9959 256.477 74.1459 256.59 74.2397 256.54C77.0529 255.088 80.0133 253.942 83.0704 253.121C83.1183 253.109 83.16 253.08 83.1875 253.039C83.2149 252.998 83.2263 252.948 83.2193 252.899C83.2123 252.85 83.1875 252.806 83.1496 252.774C83.1118 252.742 83.0635 252.726 83.0142 252.727Z" fill="#263238"/>
<path d="M85.4828 253.709C82.2767 253.64 78.5519 254.753 76.5458 257.359C76.4645 257.459 76.6145 257.571 76.7083 257.521C79.5207 256.064 82.4812 254.911 85.539 254.084C85.5763 254.065 85.6067 254.035 85.6258 253.997C85.645 253.96 85.6519 253.918 85.6457 253.876C85.6395 253.835 85.6204 253.796 85.5912 253.766C85.5619 253.736 85.524 253.716 85.4828 253.709Z" fill="#263238"/>
<path d="M87.9513 254.708C84.7452 254.64 81.0204 255.752 79.0143 258.358C78.933 258.458 79.083 258.571 79.1768 258.521C81.99 257.069 84.9504 255.923 88.0075 255.102C88.0554 255.09 88.097 255.061 88.1245 255.02C88.152 254.979 88.1634 254.929 88.1564 254.88C88.1494 254.831 88.1246 254.787 88.0867 254.755C88.0489 254.723 88.0006 254.707 87.9513 254.708Z" fill="#263238"/>
<path d="M90.4193 255.671C87.2133 255.602 83.4947 256.715 81.4823 259.321C81.4073 259.421 81.5511 259.533 81.6448 259.483C84.458 258.032 87.4185 256.886 90.4756 256.065C90.5234 256.053 90.5651 256.023 90.5926 255.982C90.6201 255.941 90.6314 255.891 90.6244 255.843C90.6175 255.794 90.5927 255.749 90.5548 255.717C90.5169 255.686 90.4687 255.669 90.4193 255.671Z" fill="#263238"/>
<path d="M86.5391 244.196C84.9205 242.84 82.8706 244.14 81.8581 245.527C80.1726 247.948 79.1512 250.769 78.8958 253.708C78.8933 253.721 78.8942 253.735 78.8984 253.748C78.9027 253.761 78.9101 253.773 78.9201 253.782C78.9301 253.791 78.9422 253.798 78.9555 253.801C78.9687 253.805 78.9826 253.805 78.9958 253.801C79.0065 253.862 79.0317 253.919 79.0692 253.968C79.1068 254.017 79.1556 254.056 79.2115 254.081C79.2674 254.107 79.3287 254.119 79.3902 254.116C79.4516 254.113 79.5115 254.095 79.5645 254.064C81.8581 252.501 84.508 251.114 86.2516 248.889C87.2703 247.596 88.064 245.477 86.5391 244.196ZM82.5581 250.958C81.4519 251.752 80.3082 252.489 79.227 253.326C79.8145 251.733 80.3207 250.127 81.0644 248.589C81.4133 247.846 81.8099 247.125 82.2519 246.433C82.9581 245.377 86.1204 242.721 86.4141 246.208C86.5766 248.158 83.883 250.033 82.5581 250.958Z" fill="#263238"/>
<path d="M70.9204 254.845C73.7077 255.295 76.5951 254.52 79.3387 254.107C79.398 254.092 79.453 254.064 79.4994 254.024C79.5458 253.984 79.5823 253.934 79.6059 253.878C79.6296 253.821 79.6398 253.76 79.6357 253.699C79.6316 253.638 79.6134 253.579 79.5824 253.526C79.5928 253.518 79.6012 253.507 79.607 253.496C79.6128 253.484 79.6158 253.471 79.6158 253.457C79.6158 253.444 79.6128 253.431 79.607 253.419C79.6012 253.407 79.5928 253.397 79.5824 253.389C77.4094 251.41 74.7575 250.034 71.8891 249.395C70.2017 249.064 67.8081 249.501 67.5143 251.589C67.2706 253.57 69.2892 254.589 70.9204 254.845ZM68.9955 253.007C66.8456 250.245 70.9704 250.051 72.2078 250.345C73.0015 250.553 73.7804 250.814 74.5389 251.126C76.0973 251.79 77.6201 252.535 79.1012 253.357C77.745 253.476 76.4013 253.707 75.0514 253.876C73.4327 254.082 70.1829 254.532 68.9955 253.007Z" fill="#263238"/>
<path opacity="0.1" d="M74.1205 268.7C62.4087 268.532 51.2156 268.176 50.3719 267.619C49.6844 267.188 49.3157 260.226 49.1219 251.795H50.0719C57.5152 257.02 66.7397 263.495 74.1205 268.7Z" fill="black"/>
<path d="M82.4646 245.921L47.3041 245.833C47.3041 245.833 51.9476 171.294 51.6789 169.919C51.3539 168.15 31.4238 84.5242 31.4238 84.5242L60.0409 84.6992C60.0409 84.6992 83.1396 162.288 83.9708 169.775C85.3582 181.862 82.4646 245.921 82.4646 245.921Z" fill="#263238"/>
<path d="M80.1197 239.783C74.82 239.377 52.94 239.283 49.8152 239.783C49.7652 239.783 49.7652 239.883 49.8152 239.889C52.1776 240.283 71.0265 240.452 80.1197 239.889C80.1267 239.882 80.1323 239.874 80.1361 239.865C80.1398 239.856 80.1418 239.846 80.1418 239.836C80.1418 239.826 80.1398 239.817 80.1361 239.808C80.1323 239.798 80.1267 239.79 80.1197 239.783Z" fill="#37474F"/>
<path d="M37.8977 90.9663C38.5727 93.0224 39.1477 95.1035 39.7726 97.1784C40.3976 99.2533 40.9351 101.334 41.5413 103.428C42.735 107.54 43.8724 111.665 45.0161 115.79C47.3222 124.121 49.5158 132.483 51.672 140.851C52.7344 145.017 53.776 149.167 54.7968 153.3C55.8405 157.456 56.9341 161.618 57.8653 165.799C58.3412 167.764 58.5389 169.786 58.4528 171.805C58.3278 173.874 53.2031 236.901 52.4782 238.051C52.4782 238.101 52.3657 238.095 52.3719 238.051C52.7031 230.402 58.0778 170.699 57.8091 168.58C57.49 166.513 57.0518 164.466 56.4967 162.449C55.9967 160.393 55.4842 158.337 54.978 156.281C53.9489 152.115 52.9073 147.965 51.8532 143.832C49.7283 135.499 47.5493 127.179 45.3161 118.871C43.0829 110.563 40.8476 102.303 38.6102 94.0911C38.329 93.0724 38.054 92.0475 37.804 91.0225C37.7965 91.0101 37.7943 90.9952 37.7978 90.9811C37.8014 90.9671 37.8103 90.955 37.8227 90.9475C37.8352 90.9401 37.8501 90.9379 37.8641 90.9414C37.8782 90.9449 37.8903 90.9539 37.8977 90.9663Z" fill="#37474F"/>
<path d="M31.4354 84.5242C31.4354 84.5242 43.2598 134.146 48.8344 157.751L57.7777 84.6805L31.4354 84.5242Z" fill="#37474F"/>
<path d="M63.1407 268.688C61.4908 269.201 14.6185 268.063 12.8623 266.87C12.1874 266.438 11.9561 259.595 11.9186 251.327V251.064C11.9186 249.358 13.0436 220.785 13.0436 220.785L43.6668 221.447L42.1544 251.446V251.958C42.1544 251.958 59.8972 260.42 61.6971 261.92C63.4969 263.42 64.8031 268.182 63.1407 268.688Z" fill="#AD6359"/>
<path d="M63.1403 268.688C61.4842 269.194 14.6181 268.063 12.8557 266.875C12.1807 266.431 11.9557 259.594 11.912 251.326V251.064C11.912 250.745 11.9682 248.957 12.0307 247.12L42.354 247.658L42.154 251.47V251.982C42.154 251.982 59.8968 260.444 61.6967 261.944C63.4966 263.444 64.7965 268.181 63.1403 268.688Z" fill="white"/>
<path d="M63.6215 268.864C61.9403 269.383 14.1681 268.333 12.3744 267.145C11.6932 266.696 11.437 259.727 11.3682 251.303L42.1727 251.89C42.1727 251.89 60.2967 260.471 62.1153 261.99C63.934 263.508 65.3026 268.339 63.6215 268.864Z" fill="#A6A6A6"/>
<path d="M62.9774 266.932C54.9716 266.563 22.6547 265.814 14.7114 266.057C14.6489 266.057 14.6489 266.101 14.7114 266.107C22.6359 266.651 54.9653 267.132 62.9774 267.063C63.1399 267.063 63.1399 266.945 62.9774 266.932Z" fill="#263238"/>
<path d="M59.0781 260.202C58.186 260.162 57.2954 260.309 56.4627 260.631C55.63 260.954 54.8735 261.446 54.2409 262.077C53.0961 263.197 52.425 264.713 52.366 266.314C52.366 266.364 52.4535 266.364 52.4598 266.314C52.7676 264.736 53.5782 263.301 54.7702 262.223C55.9622 261.144 57.4715 260.481 59.0719 260.333C59.0805 260.333 59.0891 260.332 59.0972 260.329C59.1054 260.326 59.1128 260.322 59.1192 260.316C59.1256 260.31 59.1308 260.303 59.1344 260.295C59.1381 260.287 59.1402 260.279 59.1406 260.27C59.1411 260.262 59.1398 260.253 59.1368 260.245C59.1339 260.237 59.1294 260.229 59.1236 260.223C59.1178 260.217 59.1108 260.211 59.103 260.208C59.0952 260.204 59.0868 260.202 59.0781 260.202Z" fill="#263238"/>
<path d="M45.2607 252.752C42.0546 252.639 38.3111 253.689 36.2612 256.264C36.1862 256.364 36.33 256.476 36.4237 256.426C39.2598 255.022 42.2367 253.922 45.3044 253.145C45.3512 253.133 45.3921 253.105 45.4196 253.065C45.447 253.026 45.4592 252.977 45.4539 252.929C45.4486 252.881 45.4261 252.837 45.3906 252.804C45.3551 252.772 45.3089 252.753 45.2607 252.752Z" fill="#263238"/>
<path d="M47.7095 253.769C44.5035 253.657 40.7662 254.707 38.7163 257.282C38.6351 257.382 38.7788 257.494 38.8788 257.444C41.714 256.038 44.6911 254.938 47.7595 254.163C47.8068 254.151 47.8479 254.122 47.8753 254.082C47.9027 254.042 47.9145 253.993 47.9083 253.944C47.9022 253.896 47.8786 253.851 47.842 253.819C47.8054 253.787 47.7583 253.769 47.7095 253.769Z" fill="#263238"/>
<path d="M50.166 254.789C46.9599 254.677 43.2164 255.727 41.1665 258.302C41.0915 258.402 41.2352 258.514 41.329 258.47C44.1627 257.061 47.1402 255.961 50.2097 255.189C50.254 255.174 50.2918 255.144 50.3169 255.105C50.3419 255.065 50.3528 255.019 50.3477 254.972C50.3426 254.925 50.3219 254.882 50.2888 254.849C50.2558 254.816 50.2125 254.795 50.166 254.789Z" fill="#263238"/>
<path d="M52.6157 255.807C49.4159 255.695 45.6724 256.745 43.6225 259.32C43.5412 259.42 43.685 259.532 43.785 259.488C46.6183 258.078 49.5959 256.978 52.6657 256.207C52.7102 256.192 52.7479 256.161 52.7727 256.121C52.7975 256.081 52.8078 256.034 52.802 255.987C52.7961 255.941 52.7745 255.897 52.7406 255.864C52.7067 255.832 52.6626 255.812 52.6157 255.807Z" fill="#263238"/>
<path d="M48.9096 244.277C47.3159 242.896 45.241 244.165 44.2098 245.527C42.4861 247.918 41.4214 250.72 41.1225 253.652C41.1203 253.664 41.1212 253.678 41.1252 253.69C41.1291 253.702 41.136 253.714 41.1451 253.723C41.1543 253.732 41.1656 253.739 41.1779 253.743C41.1903 253.747 41.2034 253.748 41.2162 253.745C41.2275 253.807 41.253 253.864 41.2908 253.914C41.3286 253.963 41.3775 254.003 41.4336 254.029C41.4897 254.056 41.5513 254.069 41.6135 254.068C41.6757 254.066 41.7366 254.05 41.7912 254.02C44.1036 252.489 46.7909 251.146 48.5533 248.946C49.5908 247.69 50.4157 245.583 48.9096 244.277ZM44.8285 251.002C43.7036 251.783 42.5537 252.502 41.46 253.32C42.0175 251.718 42.6558 250.146 43.3724 248.608C43.7283 247.87 44.1355 247.158 44.591 246.477C45.3098 245.433 48.5158 242.821 48.7596 246.315C48.8908 248.239 46.166 250.071 44.8285 251.002Z" fill="#263238"/>
<path d="M33.1419 254.708C35.923 255.202 38.8229 254.471 41.5727 254.083C41.6324 254.07 41.6881 254.043 41.7353 254.004C41.7825 253.965 41.8198 253.915 41.8442 253.859C41.8686 253.803 41.8793 253.742 41.8756 253.681C41.8719 253.62 41.8537 253.561 41.8227 253.508C41.8331 253.5 41.8415 253.49 41.8473 253.478C41.8531 253.466 41.8561 253.453 41.8561 253.439C41.8561 253.426 41.8531 253.413 41.8473 253.401C41.8415 253.389 41.8331 253.379 41.8227 253.371C39.6718 251.351 37.0271 249.933 34.1544 249.258C32.4795 248.896 30.0796 249.296 29.7796 251.383C29.4984 253.352 31.5045 254.402 33.1419 254.708ZM31.2671 252.833C29.1547 250.033 33.2919 249.902 34.5169 250.221C35.3075 250.438 36.0822 250.71 36.8355 251.033C38.3841 251.722 39.8964 252.49 41.3665 253.333C40.0041 253.433 38.6604 253.646 37.3042 253.789C35.6418 253.952 32.3982 254.358 31.2671 252.833Z" fill="#263238"/>
<path d="M60.0471 84.6618C60.0471 84.6618 59.7846 98.3298 56.5848 109.154C56.3286 110.054 56.0536 110.929 55.7536 111.779C55.7536 111.779 54.5037 111.779 49.5039 114.779L44.5542 245.908L10.8062 245.346C10.8062 245.346 16.6183 175.869 16.5996 171.413C16.5996 164.257 20.8118 115.791 20.4056 114.585C16.2871 102.042 24.1554 83.8244 24.1554 83.8244L60.0471 84.6618Z" fill="#263238"/>
<path d="M43.4345 239.658C33.9288 239.033 15.5049 238.771 13.1425 239.114C13.1315 239.118 13.1219 239.125 13.1151 239.135C13.1084 239.145 13.1047 239.156 13.1047 239.168C13.1047 239.179 13.1084 239.191 13.1151 239.2C13.1219 239.21 13.1315 239.217 13.1425 239.221C15.4924 239.652 37.8723 240.221 43.4408 239.808C43.4607 239.807 43.4794 239.799 43.4929 239.784C43.5064 239.769 43.5135 239.75 43.5126 239.73C43.5118 239.71 43.5031 239.691 43.4885 239.678C43.4738 239.664 43.4544 239.657 43.4345 239.658Z" fill="#37474F"/>
<path d="M45.9539 204.755C45.6102 213.23 45.329 221.71 44.904 230.185C44.8985 230.206 44.886 230.225 44.8684 230.239C44.8509 230.253 44.8293 230.26 44.8071 230.26C44.7849 230.26 44.7634 230.253 44.7458 230.239C44.7283 230.225 44.7158 230.206 44.7103 230.185C44.8915 215.073 45.3727 199.955 45.8727 184.85C46.3727 169.745 46.9851 154.789 47.6851 139.765C48.0851 131.291 48.885 123.516 49.4287 115.017C49.4287 114.955 49.4531 114.897 49.4965 114.853C49.5398 114.81 49.5987 114.785 49.66 114.785C49.7213 114.785 49.7801 114.81 49.8235 114.853C49.8669 114.897 49.8912 114.955 49.8912 115.017C49.4287 130.122 48.3538 144.552 47.7663 159.658" fill="#37474F"/>
<path d="M19.3544 205.678C20.1168 195.823 20.9293 185.967 21.723 176.118L24.1041 146.588C24.4978 141.657 24.8853 136.733 25.2978 131.808C25.5019 129.345 25.7103 126.881 25.9227 124.415C26.2222 121.986 26.3849 119.543 26.4102 117.096C26.329 114.428 25.2228 112.047 24.6166 109.484C24.0607 107.04 23.8171 104.534 23.8916 102.028C23.9979 96.8787 24.9041 92.4665 26.504 86.9605C26.5852 86.6856 26.7665 86.6606 26.6977 86.9605C25.579 91.5603 24.5541 96.2037 24.3353 100.953C24.2098 103.317 24.3608 105.687 24.7853 108.016C25.2103 110.253 26.129 112.328 26.6602 114.534C27.1914 116.74 26.8727 119.159 26.6602 121.465C26.454 123.927 26.2727 126.389 26.079 128.852C25.7103 133.683 25.3103 138.514 24.9228 143.338C23.3354 162.95 21.798 182.561 20.1356 202.166C19.2044 213.197 18.4107 224.252 17.267 235.289C17.267 235.37 17.1358 235.37 17.142 235.289C17.717 225.377 18.5919 215.528 19.3544 205.678Z" fill="#37474F"/>
<path d="M28.1421 102.843C28.7108 102.624 31.1607 102.03 31.7544 101.774C32.8752 101.292 33.9262 100.661 34.8792 99.8994C35.7981 99.1027 36.5029 98.0886 36.9291 96.9496C37.1853 96.3246 38.4228 93.081 38.504 93.0685C38.5198 93.0641 38.5367 93.0654 38.5516 93.0723C38.5665 93.0791 38.5784 93.0911 38.5852 93.106C38.704 93.306 38.3228 94.5185 38.2165 94.9184C38.0228 95.6184 37.8353 96.3183 37.5915 97.0058C37.2396 98.3096 36.5244 99.4865 35.5292 100.399C34.4923 101.27 33.3037 101.941 32.0231 102.38C31.3725 102.621 30.7009 102.801 30.017 102.918C29.3853 103.072 28.7306 103.108 28.0858 103.024C28.0483 102.993 28.0796 102.843 28.1421 102.843Z" fill="#37474F"/>
<path d="M54.0226 107.041C54.1101 105.866 54.21 104.687 54.3225 103.503C54.5725 100.816 54.8725 98.1163 55.36 95.4602C55.3975 95.254 55.6912 95.3352 55.6725 95.5352C55.4725 97.6226 55.2225 99.7037 55.0162 101.785C54.81 103.866 54.5413 105.953 54.4975 108.034C54.4975 108.659 54.4975 109.728 55.285 109.909C56.3162 110.147 56.8099 108.791 57.0661 108.034C57.6678 106.181 58.1131 104.281 58.3973 102.354C58.7473 100.16 58.941 97.9413 59.166 95.7352C59.166 95.654 59.3098 95.6665 59.3035 95.7352C59.3035 100.11 59.2035 104.697 57.5411 108.822C57.2161 109.628 56.6537 110.447 55.7162 110.547H55.6725C55.6786 110.571 55.6786 110.597 55.6725 110.622C55.6725 110.747 55.6162 110.866 55.5975 110.991C55.5787 111.116 55.56 111.197 55.535 111.297C55.4912 111.509 55.4537 111.722 55.4037 111.922C55.3932 111.959 55.3698 111.991 55.3377 112.013C55.3055 112.034 55.2668 112.043 55.2284 112.039C55.19 112.034 55.1544 112.016 55.1282 111.988C55.1019 111.96 55.0866 111.923 55.085 111.884C55.058 111.874 55.0347 111.856 55.018 111.833C55.0013 111.81 54.992 111.782 54.9912 111.753C55.0124 111.322 55.1119 110.898 55.285 110.503C55.0327 110.45 54.7978 110.334 54.6013 110.168C54.4049 110.001 54.2532 109.787 54.16 109.547C53.926 108.733 53.879 107.876 54.0226 107.041Z" fill="#37474F"/>
<path d="M57.159 110.966C53.7933 112.349 50.5542 114.022 47.4783 115.966C47.4551 115.981 47.4382 116.004 47.431 116.031C47.4237 116.057 47.4265 116.086 47.4389 116.11C47.4513 116.135 47.4723 116.155 47.498 116.165C47.5238 116.175 47.5523 116.175 47.5783 116.166C50.8469 114.603 54.1779 113.097 57.3528 111.36C57.405 111.334 57.4448 111.289 57.4636 111.234C57.4823 111.179 57.4784 111.118 57.4527 111.066C57.4271 111.014 57.3817 110.974 57.3266 110.955C57.2715 110.937 57.2112 110.94 57.159 110.966Z" fill="#37474F"/>
<path d="M53.9343 58.2949C56.3529 72.4065 65.0461 92.2616 70.4771 93.8365C73.0582 94.5864 77.5142 96.48 81.7264 94.4614C90.9447 90.0117 98.5505 81.3747 102.794 77.3187C104.725 75.4751 94.157 61.2322 91.7696 62.7946C86.1824 66.4444 78.6141 74.5501 77.8766 74.2814C75.1456 73.3002 66.946 61.0759 60.9026 52.7139C54.1405 43.3333 52.9718 52.6702 53.9343 58.2949Z" fill="#AD6359"/>
<path d="M101.456 78.0064C103.387 77.1252 111.868 72.3005 113.955 70.4319C116.043 68.5633 121.555 62.7574 120.28 61.0575C119.005 59.3576 117.255 60.9075 117.255 60.9075C117.255 60.9075 119.205 58.0826 117.767 56.464C116.33 54.8453 113.674 57.3827 113.674 57.3827C113.674 57.3827 115.468 54.3329 113.918 52.8205C112.368 51.308 110.124 54.3079 110.124 54.3079C110.124 54.3079 111.893 51.5955 110.124 50.8893C107.956 50.0394 105.262 55.4016 102.831 57.2952C102.281 57.7202 91.0315 65.2072 91.0315 65.2072L101.456 78.0064Z" fill="#AD6359"/>
<path d="M110.3 54.0258C108.306 57.963 106.757 59.3442 103.026 61.5753C102.957 61.6191 103.026 61.7378 103.082 61.7003C106.932 59.8254 109.131 58.3943 110.494 54.1133C110.563 53.907 110.394 53.8383 110.3 54.0258Z" fill="#263238"/>
<path d="M113.806 57.0368C111.375 60.949 109.706 62.4552 105.975 65.08C105.925 65.1175 105.975 65.2113 106.038 65.18C109.913 62.9114 112.069 61.4302 113.981 57.193C114.069 56.9993 113.912 56.8555 113.806 57.0368Z" fill="#263238"/>
<path d="M117.036 61.0067C114.412 64.619 112.662 66.3564 108.706 68.4375C108.612 68.4875 108.706 68.6312 108.768 68.5875C113.005 66.8563 115.218 64.7065 117.136 61.0879C117.268 60.8504 117.199 60.7817 117.036 61.0067Z" fill="#263238"/>
<path d="M88.5832 66.4118C88.5832 66.4118 90.6331 61.2808 92.0267 59.2185C93.4204 57.1561 101.457 51.4127 102.801 53.0751C104.532 55.225 100.545 59.456 98.3264 61.2746C98.3264 61.2746 102.339 66.243 100.133 69.8991C97.9264 73.5551 88.5832 66.4118 88.5832 66.4118Z" fill="#AD6359"/>
<path d="M103.081 53.82C103.244 56.9448 100.175 59.1197 98.1501 61.0446C98.1191 61.072 98.0951 61.1066 98.0803 61.1453C98.0655 61.1841 98.0604 61.2259 98.0653 61.267C98.0702 61.3082 98.085 61.3476 98.1085 61.3818C98.132 61.416 98.1635 61.4439 98.2001 61.4633C99.7376 63.6569 101.275 67.2004 100.306 69.8565C100.299 69.8714 100.298 69.8887 100.303 69.9045C100.308 69.9204 100.319 69.9334 100.334 69.9409C100.349 69.9484 100.367 69.9496 100.382 69.9443C100.398 69.939 100.411 69.9277 100.419 69.9128C101.85 67.2004 100.625 63.5944 98.7814 61.3008C100.887 59.3634 103.869 57.0198 103.112 53.8012C103.137 53.8012 103.081 53.8012 103.081 53.82Z" fill="#263238"/>
<path d="M87.2569 65.6494L98.6875 83.2483C98.6875 83.2483 85.007 95.5413 78.0636 95.5913C71.1203 95.6413 69.4454 94.2914 67.8455 93.354C66.2456 92.4165 56.9773 77.6299 53.9338 58.856C51.0527 41.1259 58.9335 48.9441 64.1769 56.5999C67.1518 60.9747 77.3012 73.1552 77.8324 73.1614C78.3636 73.1677 87.2569 65.6494 87.2569 65.6494Z" fill="#455A64"/>
<path d="M84.7952 68.7947C86.6076 71.4696 88.3325 74.2006 90.0386 76.9192C90.8761 78.2629 93.9947 83.7376 94.9009 85.2937C94.9384 85.3562 94.7696 85.45 94.7259 85.3937C93.7822 84.0188 90.3824 78.5191 89.5699 77.188C87.9138 74.4194 86.2701 71.6383 84.7202 68.8072C84.7154 68.8013 84.7122 68.7942 84.711 68.7866C84.7097 68.7791 84.7105 68.7713 84.7132 68.7641C84.7159 68.757 84.7205 68.7507 84.7264 68.7458C84.7323 68.7409 84.7394 68.7377 84.7469 68.7365C84.7545 68.7352 84.7622 68.7359 84.7694 68.7386C84.7766 68.7413 84.7829 68.7458 84.7878 68.7517C84.7927 68.7576 84.796 68.7647 84.7973 68.7722C84.7985 68.7798 84.7978 68.7875 84.7952 68.7947Z" fill="#263238"/>
<path opacity="0.1" d="M65.6407 90.548C62.2534 85.2858 56.2662 73.2428 53.9226 58.8562C52.3914 49.4192 53.9226 47.2194 56.4724 48.3818C57.5161 52.8003 62.7971 77.2488 65.6407 90.548Z" fill="black"/>
<path d="M24.1736 83.8256L60.6215 88.3254L62.4276 77.776C62.4276 77.776 66.0649 74.0262 66.4337 69.3515C66.8336 64.4081 59.0653 50.2964 58.3966 49.4777C55.728 46.1904 50.7533 45.3217 48.0285 47.0654C33.4606 56.4023 24.1736 83.8256 24.1736 83.8256Z" fill="#263238"/>
<path d="M24.1736 83.8256L60.6215 88.3254L62.4276 77.776C62.4276 77.776 66.0649 74.0262 66.4337 69.3515C66.8336 64.4081 59.0653 50.2964 58.3966 49.4777C55.728 46.1904 50.7533 45.3217 48.0285 47.0654C33.4606 56.4023 24.1736 83.8256 24.1736 83.8256Z" fill="#455A64"/>
<path d="M66.4395 69.3513C66.0646 74.0072 62.4273 77.7758 62.4273 77.7758L60.6399 88.3189L24.192 83.8254C26.4543 77.5033 29.2387 71.3805 32.5165 65.5202C33.2227 65.6515 38.0849 69.695 45.3345 66.214C49.7093 64.1203 50.8404 56.2583 50.8404 56.2583L61.9898 56.0896C64.2272 60.708 66.6645 66.5202 66.4395 69.3513Z" fill="#263238"/>
<path d="M52.3406 57.6376C52.3383 57.7276 52.3176 57.8162 52.2799 57.898C52.2422 57.9797 52.1882 58.053 52.1213 58.1132C52.0543 58.1734 51.9758 58.2193 51.8905 58.2481C51.8052 58.2769 51.7149 58.2881 51.6251 58.2809C51.5354 58.2736 51.448 58.2482 51.3685 58.2061C51.2889 58.1639 51.2187 58.106 51.1623 58.0359C51.1058 57.9657 51.0642 57.8848 51.0401 57.7981C51.016 57.7113 51.0098 57.6206 51.0219 57.5314C51.021 57.4414 51.0396 57.3523 51.0763 57.2701C51.113 57.188 51.1671 57.1147 51.2347 57.0554C51.3024 56.996 51.382 56.952 51.4683 56.9263C51.5545 56.9006 51.6453 56.8938 51.7344 56.9064C51.8226 56.9134 51.9086 56.938 51.9872 56.9788C52.0658 57.0196 52.1354 57.0758 52.1919 57.144C52.2484 57.2121 52.2907 57.2909 52.3162 57.3757C52.3418 57.4605 52.35 57.5496 52.3406 57.6376Z" fill="#E2231C"/>
<path d="M62.065 56.906C62.1138 56.9739 62.1466 57.052 62.161 57.1344C62.1755 57.2168 62.1712 57.3013 62.1484 57.3818C62.1256 57.4623 62.085 57.5366 62.0295 57.5993C61.9741 57.6619 61.9052 57.7112 61.828 57.7435C61.7509 57.7758 61.6674 57.7903 61.5839 57.7859C61.5003 57.7815 61.4189 57.7583 61.3456 57.718C61.2722 57.6778 61.2089 57.6215 61.1603 57.5534C61.1118 57.4853 61.0792 57.4071 61.065 57.3247C61.022 57.2571 60.9943 57.1809 60.9838 57.1015C60.9733 57.0221 60.9803 56.9414 61.0043 56.8649C61.0282 56.7885 61.0686 56.7182 61.1225 56.659C61.1765 56.5998 61.2427 56.5531 61.3166 56.5222C61.3905 56.4913 61.4702 56.4768 61.5503 56.4799C61.6303 56.483 61.7087 56.5036 61.78 56.5401C61.8513 56.5767 61.9137 56.6283 61.9629 56.6915C62.0121 56.7547 62.047 56.8279 62.065 56.906Z" fill="#E2231C"/>
<path d="M24.1794 83.8244L33.2851 85.0743C36.3162 85.4806 39.3473 85.9118 42.3846 86.2867C45.4219 86.6617 48.453 87.0742 51.4903 87.4304C54.5276 87.7867 57.5712 88.1116 60.6273 88.3429C57.5587 88.3054 54.5027 88.0616 51.4528 87.7867C48.403 87.5117 45.3594 87.1304 42.3221 86.7492C39.2848 86.368 36.2662 85.8868 33.2289 85.4056C30.1915 84.9243 27.1855 84.4119 24.1794 83.8244Z" fill="#455A64"/>
<path d="M25.4542 80.4135L34.3912 81.5947C37.3723 81.9884 40.3471 82.4071 43.3282 82.7696C46.3093 83.1321 49.2841 83.532 52.2652 83.8758C55.2463 84.2195 58.2336 84.5382 61.2334 84.7695C58.2273 84.732 55.2213 84.5007 52.2277 84.232C49.2341 83.9633 46.2468 83.607 43.2657 83.2321C40.2846 82.8571 37.3098 82.4196 34.3412 81.9509C31.3726 81.4822 28.4041 80.9697 25.4542 80.4135Z" fill="#455A64"/>
<path d="M27.7294 80.7747C27.47 81.3061 27.2608 81.8606 27.1044 82.4308C27.0248 82.7118 26.9643 82.9979 26.9232 83.287C26.8732 83.5745 26.8732 83.8682 26.8419 84.1745C26.6433 83.5846 26.6281 82.9483 26.7982 82.3496C26.9558 81.7481 27.2783 81.2027 27.7294 80.7747Z" fill="#455A64"/>
<path d="M28.5295 80.8363C28.273 81.3689 28.0639 81.9231 27.9046 82.4924C27.83 82.7743 27.7716 83.0601 27.7296 83.3486C27.6796 83.6361 27.6733 83.9298 27.6483 84.236C27.4497 83.6461 27.4345 83.0099 27.6046 82.4112C27.7604 81.8104 28.0808 81.265 28.5295 80.8363Z" fill="#455A64"/>
<path d="M38.0851 82.2872C37.8311 82.8231 37.622 83.3792 37.4601 83.9496C37.3826 84.2287 37.3242 84.5126 37.2851 84.7996C37.2351 85.0933 37.2289 85.387 37.2039 85.6933C37.0053 85.1034 36.99 84.4671 37.1601 83.8684C37.3127 83.2645 37.6334 82.7162 38.0851 82.2872Z" fill="#455A64"/>
<path d="M38.8841 82.3488C38.6257 82.8828 38.4165 83.4392 38.2592 84.0112C38.1817 84.2902 38.1232 84.5742 38.0842 84.8611C38.0342 85.1549 38.0279 85.4486 38.0029 85.7548C37.8012 85.1655 37.7859 84.5283 37.9592 83.93C38.1134 83.3267 38.4338 82.7788 38.8841 82.3488Z" fill="#455A64"/>
<path d="M48.6855 87.3042C48.9395 86.7705 49.1486 86.2166 49.3105 85.6481C49.3873 85.3668 49.4458 85.0808 49.4854 84.7919C49.5354 84.5044 49.5417 84.2107 49.5667 83.9044C49.7657 84.4943 49.7809 85.1306 49.6104 85.7293C49.4527 86.3293 49.1327 86.8743 48.6855 87.3042Z" fill="#455A64"/>
<path d="M47.8848 87.2181C48.1405 86.6851 48.3496 86.131 48.5098 85.562C48.5867 85.2807 48.6451 84.9947 48.6848 84.7058C48.7348 84.4183 48.741 84.1246 48.766 83.8121C48.9679 84.4036 48.9832 85.0428 48.8098 85.6432C48.6571 86.2453 48.3363 86.7915 47.8848 87.2181Z" fill="#455A64"/>
<path d="M56.6474 87.9426C56.903 87.4096 57.1121 86.8555 57.2724 86.2864C57.3492 86.0051 57.4077 85.7191 57.4474 85.4302C57.4974 85.1428 57.5036 84.849 57.5286 84.5366C57.7305 85.128 57.7457 85.7672 57.5723 86.3677C57.4196 86.9697 57.0988 87.516 56.6474 87.9426Z" fill="#455A64"/>
<path d="M55.8467 87.881C56.1061 87.3475 56.3153 86.7909 56.4717 86.2186C56.5492 85.9396 56.6076 85.6556 56.6467 85.3687C56.6967 85.0749 56.7029 84.7812 56.7279 84.475C56.9297 85.0643 56.945 85.7015 56.7717 86.2999C56.6204 86.9043 56.2995 87.4529 55.8467 87.881Z" fill="#455A64"/>
<path d="M51.179 74.0253C53.117 74.302 55.0279 74.7432 56.8911 75.344C57.8161 75.6564 58.7223 76.0189 59.6222 76.4001C60.0722 76.5876 60.5284 76.7626 60.9784 76.9314C61.4474 77.1262 61.9421 77.2524 62.4471 77.3063C62.4908 77.3063 62.4846 77.3876 62.4471 77.3876C61.9728 77.3981 61.4984 77.3709 61.0284 77.3063C60.5717 77.2294 60.1223 77.1144 59.6847 76.9626C58.7473 76.6564 57.8098 76.3002 56.8849 75.9814C55.01 75.3565 53.1351 74.7315 51.179 74.2315C51.0602 74.1878 51.0852 74.0128 51.179 74.0253Z" fill="#263238"/>
<path d="M46.3478 75.8429C47.9398 75.7066 49.5388 75.6732 51.1351 75.7429C51.935 75.7867 52.7287 75.8804 53.5224 75.9992C53.8974 76.0554 54.2786 76.1179 54.6536 76.1867C55.0286 76.2554 55.4723 76.4054 55.9036 76.4741C55.9473 76.4741 55.941 76.5616 55.9036 76.5554C55.5098 76.5054 55.1098 76.5241 54.7099 76.4991L53.5224 76.4241C52.7225 76.3679 51.9288 76.3304 51.1351 76.2679C49.5414 76.1492 47.954 76.0492 46.3603 75.9929C46.2666 75.9679 46.2666 75.8492 46.3478 75.8429Z" fill="#263238"/>
<path d="M50.8101 56.2567L47.3228 47.451L48.029 47.0635L51.6225 56.2442L50.8101 56.2567Z" fill="#263238"/>
<path d="M60.9345 56.1058L57.0598 48.2313L58.0159 48.6813L61.722 56.0933L60.9345 56.1058Z" fill="#263238"/>
<path d="M58.7646 24.2774C58.9673 24.422 59.1154 24.6308 59.1847 24.87C59.2541 25.1092 59.2407 25.3648 59.1467 25.5955C59.0527 25.8261 58.8836 26.0183 58.6668 26.1409C58.45 26.2635 58.1982 26.3093 57.9521 26.271C57.9833 26.4236 57.9833 26.5809 57.9521 26.7335C57.8784 27.0265 57.7011 27.2829 57.4529 27.4553C57.2047 27.6276 56.9025 27.7042 56.6022 27.6709C56.6269 27.801 56.6269 27.9346 56.6022 28.0647C56.5352 28.351 56.3576 28.5993 56.1082 28.755C55.8587 28.9108 55.5577 28.9614 55.271 28.8959C55.0245 28.8383 54.8045 28.6996 54.6461 28.5021C54.5608 28.7667 54.3791 28.9894 54.1371 29.1261C53.895 29.2627 53.6104 29.3033 53.3399 29.2396C53.1875 29.2038 53.0447 29.1356 52.9212 29.0396V29.1334C52.8666 29.3611 52.7416 29.5659 52.5639 29.7184C52.3862 29.871 52.1648 29.9635 51.9314 29.9829C51.698 30.0023 51.4644 29.9476 51.264 29.8264C51.0635 29.7053 50.9064 29.524 50.815 29.3083C50.7198 29.5115 50.5649 29.6809 50.3711 29.794C50.1773 29.9071 49.9537 29.9587 49.7299 29.9417C49.5062 29.9247 49.2929 29.8401 49.1183 29.6991C48.9438 29.5581 48.8162 29.3673 48.7526 29.1521C48.5004 29.268 48.2167 29.2965 47.9464 29.2334C47.7881 29.1977 47.6387 29.1299 47.5076 29.0342C47.3764 28.9386 47.2663 28.817 47.184 28.6771C47.0492 28.7635 46.8983 28.8218 46.7405 28.8486C46.5827 28.8755 46.4211 28.8703 46.2653 28.8334C46.0104 28.7698 45.782 28.6274 45.6126 28.4266C45.4432 28.2258 45.3414 27.9767 45.3216 27.7147C45.1792 27.7425 45.0328 27.7425 44.8904 27.7147C44.6286 27.6552 44.3975 27.5026 44.24 27.2853C44.0824 27.0679 44.0093 26.8008 44.0342 26.5335C43.8594 26.5741 43.6777 26.5741 43.5029 26.5335C43.3123 26.4927 43.1343 26.4062 42.9844 26.2816C42.8344 26.1569 42.7169 25.9977 42.642 25.8177C42.567 25.6377 42.5368 25.4422 42.554 25.2479C42.5711 25.0537 42.6351 24.8665 42.7405 24.7024C42.6762 24.7111 42.611 24.7111 42.5468 24.7024C42.2609 24.6369 42.0127 24.4605 41.8568 24.212C41.701 23.9636 41.6501 23.6634 41.7156 23.3775C41.7629 23.1781 41.8621 22.9949 42.003 22.8462C41.7161 22.7512 41.4749 22.5524 41.3269 22.2888C41.1789 22.0252 41.1348 21.7158 41.2031 21.4213C41.2526 21.1983 41.3655 20.9943 41.5281 20.8339C41.3466 20.7142 41.2004 20.5481 41.1047 20.3529C41.009 20.1576 40.9673 19.9404 40.9839 19.7236C41.0005 19.5068 41.0747 19.2984 41.199 19.12C41.3232 18.9416 41.493 18.7997 41.6906 18.709C41.6023 18.5823 41.5417 18.4383 41.5128 18.2866C41.4838 18.1349 41.4871 17.9788 41.5225 17.8285C41.5579 17.6782 41.6245 17.537 41.7181 17.4141C41.8116 17.2912 41.93 17.1894 42.0655 17.1153C41.9438 16.9713 41.8577 16.8006 41.8143 16.6171C41.7709 16.4336 41.7713 16.2425 41.8155 16.0591C41.8737 15.8065 42.0112 15.5791 42.2081 15.4104C42.4049 15.2417 42.6507 15.1405 42.9092 15.1217C42.8653 14.9474 42.8653 14.7648 42.9092 14.5905C42.9701 14.3283 43.1239 14.097 43.3423 13.9395C43.5606 13.7821 43.8286 13.7092 44.0967 13.7343C44.053 13.5641 44.053 13.3857 44.0967 13.2156C44.132 13.0592 44.198 12.9114 44.2908 12.7807C44.3836 12.65 44.5015 12.539 44.6375 12.4542C44.7735 12.3693 44.925 12.3123 45.0831 12.2864C45.2413 12.2604 45.4031 12.2661 45.5591 12.3031C45.6508 12.3211 45.7392 12.3527 45.8216 12.3969C45.8263 12.3315 45.8368 12.2667 45.8528 12.2031C45.9329 11.8924 46.1293 11.6244 46.4016 11.4545C46.6738 11.2846 47.0009 11.226 47.3152 11.2907C47.4134 11.3129 47.5081 11.3487 47.5965 11.3969C47.5812 11.2829 47.5812 11.1673 47.5965 11.0532C47.6765 10.7412 47.8739 10.4721 48.1476 10.3021C48.4212 10.1321 48.7499 10.0743 49.0651 10.1408C49.2267 10.1767 49.379 10.2458 49.5124 10.3437C49.6458 10.4416 49.7574 10.5661 49.8401 10.7095C49.9694 10.5866 50.1235 10.4928 50.292 10.4344C50.4606 10.3761 50.6397 10.3544 50.8173 10.371C50.9949 10.3876 51.1669 10.442 51.3217 10.5305C51.4766 10.6191 51.6107 10.7398 51.715 10.8845C51.8155 10.6932 51.9702 10.5358 52.1596 10.4319C52.349 10.328 52.5649 10.2822 52.7802 10.3002C52.9955 10.3182 53.2007 10.3992 53.3703 10.5331C53.5399 10.667 53.6662 10.8479 53.7336 11.0532C53.8643 10.9554 54.0148 10.8873 54.1746 10.8539C54.3344 10.8204 54.4996 10.8223 54.6586 10.8595C54.8841 10.911 55.0877 11.0324 55.2403 11.2063C55.3928 11.3802 55.4867 11.5978 55.5085 11.8282C55.6471 11.7293 55.8053 11.6614 55.9725 11.629C56.1396 11.5967 56.3117 11.6007 56.4772 11.6407C56.7569 11.7038 57.0052 11.864 57.178 12.0928C57.3507 12.3216 57.4368 12.6043 57.4209 12.8906C57.6005 12.859 57.7852 12.8729 57.9581 12.9309C58.131 12.989 58.2867 13.0893 58.4109 13.2229C58.5351 13.3564 58.624 13.5189 58.6694 13.6955C58.7148 13.8722 58.7153 14.0574 58.6708 14.2343C58.6449 14.3647 58.5916 14.4883 58.5146 14.5967H58.5896C58.9016 14.6768 59.1707 14.8742 59.3407 15.1478C59.5107 15.4215 59.5685 15.7502 59.502 16.0654C59.4791 16.181 59.4346 16.2913 59.3708 16.3904C59.4681 16.3747 59.5672 16.3747 59.6645 16.3904C59.878 16.4399 60.072 16.5518 60.2218 16.7117C60.3716 16.8717 60.4705 17.0725 60.506 17.2888C60.5415 17.5051 60.5119 17.727 60.4211 17.9264C60.3302 18.1259 60.1822 18.2938 59.9958 18.409C60.124 18.5223 60.224 18.6638 60.2879 18.8225C60.3518 18.9812 60.3778 19.1526 60.3638 19.3231C60.3499 19.4936 60.2963 19.6585 60.2075 19.8046C60.1186 19.9508 59.9969 20.0743 59.852 20.1652C60.0589 20.3034 60.2198 20.5002 60.3141 20.7304C60.4085 20.9606 60.432 21.2137 60.3816 21.4573C60.3313 21.7009 60.2094 21.924 60.0315 22.098C59.8537 22.2719 59.628 22.3888 59.3833 22.4338C59.5198 22.5639 59.6195 22.7278 59.6722 22.9089C59.7249 23.0901 59.7287 23.2819 59.6833 23.465C59.6274 23.6759 59.5103 23.8656 59.3468 24.0101C59.1834 24.1547 58.9808 24.2477 58.7646 24.2774Z" fill="#263238"/>
<path d="M79.4768 23.5454C79.6786 23.6899 79.8259 23.898 79.8951 24.1364C79.9643 24.3747 79.9514 24.6294 79.8583 24.8595C79.7653 25.0896 79.5976 25.2817 79.3821 25.4049C79.1667 25.5282 78.9161 25.5754 78.6706 25.539C78.7016 25.6937 78.7016 25.853 78.6706 26.0077C78.6044 26.3045 78.4285 26.5654 78.1782 26.738C77.9279 26.9107 77.6216 26.9825 77.3207 26.9389C77.3457 27.069 77.3457 27.2026 77.3207 27.3327C77.2537 27.619 77.0761 27.8672 76.8266 28.023C76.5772 28.1788 76.2762 28.2294 75.9895 28.1639C75.741 28.1111 75.5194 27.9715 75.3645 27.7701C75.3092 27.9386 75.2143 28.0915 75.0878 28.2159C74.9613 28.3403 74.807 28.4326 74.6376 28.4852C74.4681 28.5378 74.2886 28.5492 74.1139 28.5182C73.9392 28.4873 73.7745 28.4151 73.6334 28.3076C73.6394 28.3407 73.6394 28.3745 73.6334 28.4076C73.5807 28.6361 73.4569 28.8419 73.2796 28.9954C73.1024 29.1489 72.881 29.2421 72.6473 29.2615C72.4137 29.281 72.1799 29.2257 71.9797 29.1037C71.7795 28.9817 71.6232 28.7992 71.5335 28.5826C71.4377 28.7856 71.2824 28.9547 71.0882 29.0674C70.8939 29.18 70.67 29.2309 70.4462 29.2133C70.2224 29.1956 70.0092 29.1103 69.8351 28.9686C69.6609 28.827 69.534 28.6356 69.4711 28.4201C69.2196 28.538 68.9359 28.5688 68.6649 28.5076C68.5067 28.4716 68.3575 28.4037 68.2264 28.308C68.0953 28.2124 67.9851 28.091 67.9025 27.9514C67.6278 28.1199 67.2987 28.1759 66.9838 28.1076C66.7251 28.0491 66.4927 27.9074 66.3223 27.7042C66.1518 27.5011 66.0527 27.2476 66.0401 26.9827C65.8977 27.0106 65.7512 27.0106 65.6088 26.9827C65.346 26.9231 65.1139 26.7695 64.9562 26.5508C64.7986 26.3322 64.7262 26.0635 64.7526 25.7952C64.5761 25.8389 64.3917 25.8389 64.2152 25.7952C64.0588 25.7599 63.911 25.6939 63.7803 25.6011C63.6496 25.5083 63.5386 25.3904 63.4538 25.2544C63.3689 25.1184 63.3119 24.967 63.286 24.8088C63.26 24.6506 63.2657 24.4888 63.3027 24.3328C63.3303 24.2019 63.3811 24.0771 63.4527 23.9641C63.3906 23.9735 63.3274 23.9735 63.2652 23.9641C63.0677 23.9247 62.8849 23.8319 62.7365 23.6957C62.5882 23.5595 62.4801 23.3852 62.424 23.1918C62.3679 22.9984 62.366 22.7933 62.4184 22.5989C62.4709 22.4044 62.5757 22.2282 62.7215 22.0892C62.4297 21.9928 62.1837 21.7923 62.0304 21.526C61.877 21.2597 61.8272 20.9463 61.8903 20.6456C61.9441 20.426 62.0564 20.2251 62.2153 20.0643C62.0101 19.9233 61.8517 19.7243 61.7604 19.4927C61.6691 19.2611 61.6491 19.0075 61.7028 18.7644C61.7437 18.584 61.826 18.4156 61.9431 18.2724C62.0602 18.1293 62.209 18.0153 62.3778 17.9395C62.29 17.8124 62.2297 17.6683 62.2006 17.5166C62.1716 17.3649 62.1744 17.2088 62.209 17.0583C62.2445 16.9063 62.3119 16.7637 62.4067 16.6397C62.5015 16.5158 62.6216 16.4135 62.759 16.3396C62.6376 16.1965 62.5512 16.0272 62.5067 15.8449C62.4622 15.6626 62.4609 15.4725 62.5028 15.2896C62.565 15.0385 62.7036 14.8128 62.8995 14.6438C63.0954 14.4748 63.3389 14.3707 63.5965 14.3459C63.5525 14.1716 63.5525 13.9891 63.5965 13.8147C63.656 13.5535 63.8089 13.323 64.0264 13.1665C64.2439 13.01 64.511 12.9383 64.7776 12.9648C64.7405 12.7918 64.7405 12.6128 64.7776 12.4398C64.8577 12.1291 65.0542 11.861 65.3264 11.6912C65.5986 11.5213 65.9258 11.4627 66.2401 11.5274C66.334 11.5475 66.4245 11.5812 66.5088 11.6273C66.5027 11.5608 66.5027 11.4939 66.5088 11.4274C66.5888 11.1166 66.7853 10.8486 67.0576 10.6787C67.3298 10.5089 67.6569 10.4502 67.9712 10.5149C68.072 10.5382 68.1689 10.5761 68.2587 10.6274C68.2401 10.5115 68.2401 10.3934 68.2587 10.2774C68.3387 9.96539 68.5362 9.6963 68.8098 9.5263C69.0834 9.3563 69.4121 9.29851 69.7274 9.36499C69.8886 9.4016 70.0406 9.47097 70.1739 9.56881C70.3072 9.66664 70.419 9.79085 70.5023 9.9337C70.6473 9.78102 70.8298 9.66896 71.0315 9.60865C71.2332 9.54835 71.4472 9.54191 71.6522 9.58997C71.9563 9.6637 72.2217 9.84879 72.396 10.1087C72.4982 9.91812 72.654 9.76168 72.8442 9.65874C73.0344 9.55579 73.2506 9.51085 73.466 9.52947C73.6815 9.54809 73.8867 9.62945 74.0564 9.7635C74.2261 9.89755 74.3528 10.0784 74.4208 10.2837C74.5767 10.163 74.7621 10.0864 74.9577 10.062C75.1533 10.0375 75.3519 10.0661 75.5326 10.1446C75.7134 10.2232 75.8698 10.3489 75.9853 10.5086C76.1009 10.6683 76.1714 10.8561 76.1895 11.0524C76.3283 10.9539 76.4865 10.8862 76.6536 10.8539C76.8206 10.8215 76.9927 10.8253 77.1582 10.8649C77.4355 10.9333 77.681 11.0947 77.8539 11.3221C78.0267 11.5495 78.1164 11.8293 78.1081 12.1148C78.2878 12.0833 78.4724 12.0971 78.6453 12.1552C78.8182 12.2132 78.9739 12.3136 79.0981 12.4471C79.2223 12.5806 79.3112 12.7431 79.3566 12.9198C79.402 13.0964 79.4025 13.2816 79.3581 13.4585C79.3306 13.5904 79.2775 13.7157 79.2018 13.8272H79.2706C79.5824 13.9059 79.852 14.1019 80.0231 14.3742C80.1942 14.6466 80.2537 14.9745 80.1893 15.2896C80.1597 15.4052 80.1156 15.5165 80.058 15.6209C80.1556 15.6088 80.2542 15.6088 80.3517 15.6209C80.5652 15.6704 80.7592 15.7823 80.909 15.9422C81.0588 16.1022 81.1577 16.303 81.1932 16.5193C81.2287 16.7355 81.1991 16.9575 81.1083 17.1569C81.0175 17.3563 80.8694 17.5243 80.683 17.6395C80.8293 17.7728 80.9376 17.9425 80.9969 18.1314C81.0562 18.3202 81.0643 18.5214 81.0205 18.7144C80.9901 18.8553 80.9319 18.9887 80.8493 19.1067C80.7666 19.2248 80.6612 19.3251 80.5392 19.4019C80.7627 19.5356 80.9389 19.7357 81.0431 19.9744C81.1473 20.213 81.1743 20.4783 81.1205 20.7331C81.0645 20.9784 80.9331 21.2001 80.7449 21.3671C80.5566 21.534 80.3208 21.638 80.0705 21.6642C80.2151 21.8095 80.3164 21.9921 80.3633 22.1917C80.4101 22.3912 80.4006 22.5998 80.3358 22.7943C80.271 22.9887 80.1534 23.1613 79.9962 23.2928C79.839 23.4244 79.6484 23.5096 79.4455 23.5391L79.4768 23.5454Z" fill="#263238"/>
<path d="M50.7532 47.8957C50.7969 48.6644 53.5093 54.1016 56.9341 54.5328C58.0465 54.6703 59.0715 48.6144 59.0715 48.6144L59.2464 48.1894L61.7463 42.171L55.2154 36.1839L54.2592 35.3777C54.2592 35.3777 53.6905 37.0651 53.0093 39.1775C53.0093 39.2775 52.9468 39.3712 52.9155 39.4775C52.8843 39.5837 52.8281 39.7087 52.7968 39.8212C52.6906 40.1337 52.5781 40.4462 52.4781 40.7774C52.3781 41.1086 52.3281 41.2586 52.2531 41.5211C52.1781 41.7836 52.1031 42.0336 52.0219 42.2898C51.4685 44.1265 51.0446 45.9997 50.7532 47.8957Z" fill="#AD6359"/>
<path d="M52.9784 39.1775C53.3046 41.0429 54.0324 42.815 55.1116 44.3711C56.1907 45.9273 57.5953 47.2301 59.228 48.1894L61.7279 42.171L55.197 36.1839L54.2408 35.3777C54.2408 35.3777 53.6721 37.0651 52.9784 39.1775Z" fill="#263238"/>
<path d="M72.5771 35.1273C70.9772 46.4391 64.0213 46.7516 61.5839 46.3766C59.3903 46.0829 51.8908 44.7205 52.3032 33.3149C52.7157 21.9094 58.4966 19.097 63.5963 19.5283C68.696 19.9595 74.1832 23.8218 72.5771 35.1273Z" fill="#AD6359"/>
<path d="M70.8263 32.3223C70.5638 32.241 70.3388 32.1223 70.0888 32.0223C69.8165 31.9581 69.5714 31.8093 69.3888 31.5973C69.3479 31.5162 69.3349 31.4238 69.3518 31.3345C69.3688 31.2453 69.4148 31.1641 69.4826 31.1036C69.6324 31.0025 69.8068 30.9438 69.9873 30.9339C70.1678 30.924 70.3476 30.9632 70.5075 31.0474C70.8613 31.1601 71.1587 31.4038 71.3387 31.7286C71.3705 31.8037 71.3805 31.8862 71.3678 31.9668C71.3551 32.0474 71.3202 32.1228 71.2669 32.1846C71.2136 32.2463 71.1441 32.2919 71.0662 32.3163C70.9884 32.3406 70.9052 32.3427 70.8263 32.3223Z" fill="#263238"/>
<path d="M62.8339 32.7448C63.0855 32.8329 63.3422 32.9059 63.6026 32.9635C63.8603 33.0836 64.1513 33.1123 64.4275 33.0448C64.5094 33.0064 64.5763 32.9421 64.6181 32.862C64.6599 32.7818 64.6742 32.6901 64.6588 32.601C64.6042 32.4286 64.5039 32.2741 64.3685 32.1542C64.2332 32.0342 64.0678 31.9532 63.8901 31.9198C63.5422 31.7854 63.1567 31.7854 62.8089 31.9198C62.7244 31.9525 62.6521 32.0105 62.602 32.086C62.5519 32.1615 62.5265 32.2506 62.5293 32.3411C62.532 32.4317 62.5628 32.5191 62.6173 32.5914C62.6719 32.6637 62.7475 32.7173 62.8339 32.7448Z" fill="#263238"/>
<path d="M64.04 34.0971C64.04 34.0971 63.9712 34.0971 63.9712 34.1596C63.9025 34.9408 63.6837 35.8282 62.9463 36.0345V36.0782C63.8275 35.972 64.0962 34.822 64.04 34.0971Z" fill="#263238"/>
<path d="M63.4472 33.1644C62.1973 32.9144 61.7911 35.4205 62.9473 35.6642C64.1035 35.9079 64.4847 33.3769 63.4472 33.1644Z" fill="#263238"/>
<path d="M62.9267 33.221C62.6892 33.3272 62.4329 33.5397 62.1642 33.521C61.8955 33.5022 61.6642 33.2022 61.508 32.896C61.508 32.8648 61.4642 32.896 61.458 32.896C61.3767 33.3772 61.458 33.8959 61.983 34.0522C62.5079 34.2084 62.8454 33.8272 63.0454 33.3647C63.0829 33.321 63.0267 33.1772 62.9267 33.221Z" fill="#263238"/>
<path d="M68.7645 34.7969C68.7645 34.7969 68.8207 34.8469 68.8145 34.8782C68.6333 35.6406 68.552 36.5468 69.1957 36.9468C69.1957 36.9468 69.1957 36.9968 69.1957 36.9905C68.3395 36.6968 68.452 35.4906 68.7645 34.7969Z" fill="#263238"/>
<path d="M69.6034 34.1329C70.8533 34.2892 70.4533 36.7953 69.2847 36.6328C68.116 36.4703 68.5472 34.0017 69.6034 34.1329Z" fill="#263238"/>
<path d="M70.0952 34.3837C70.2702 34.5462 70.4265 34.8211 70.6639 34.8774C70.9014 34.9336 71.1764 34.7024 71.3952 34.4712C71.3952 34.4712 71.4327 34.4712 71.4327 34.5024C71.3639 34.9836 71.1264 35.4524 70.6515 35.4711C70.1765 35.4899 69.9765 35.0274 69.939 34.5337C69.9327 34.4399 70.014 34.3149 70.0952 34.3837Z" fill="#263238"/>
<path d="M62.6957 39.9019C62.8206 40.1331 62.9269 40.4331 63.1894 40.5268C63.4716 40.6069 63.7673 40.6281 64.0581 40.5893C64.0581 40.5893 64.0956 40.5893 64.0581 40.6331C63.905 40.7478 63.7239 40.8194 63.5337 40.8403C63.3435 40.8612 63.1512 40.8306 62.9769 40.7518C62.8364 40.6634 62.7248 40.5359 62.6559 40.3848C62.5871 40.2338 62.5639 40.0659 62.5894 39.9019C62.6144 39.8706 62.6769 39.8706 62.6957 39.9019Z" fill="#263238"/>
<path d="M66.5651 38.4199C66.5651 38.4199 66.4401 39.6011 66.3089 40.1386C66.3089 40.1886 66.1589 40.1823 65.9776 40.1386C65.4958 40.1108 65.0311 39.9501 64.6351 39.6743C64.2391 39.3985 63.9272 39.0184 63.734 38.5762C63.7302 38.5641 63.7306 38.5512 63.7351 38.5394C63.7396 38.5276 63.7479 38.5177 63.7588 38.5112C63.7696 38.5047 63.7823 38.502 63.7948 38.5036C63.8073 38.5052 63.8189 38.5109 63.8277 38.5199C64.3979 39.1615 65.1613 39.6002 66.0026 39.7699C66.0714 39.6324 66.1464 37.745 66.2276 37.7575C66.6371 37.8991 67.0259 38.0946 67.3838 38.3387C67.7088 35.8888 67.6463 33.4077 68.0088 30.9766C68.0088 30.9567 68.0167 30.9377 68.0307 30.9236C68.0448 30.9095 68.0639 30.9016 68.0838 30.9016C68.1036 30.9016 68.1227 30.9095 68.1368 30.9236C68.1508 30.9377 68.1587 30.9567 68.1587 30.9766C68.3097 33.6332 68.1967 36.2982 67.8213 38.9324C67.765 39.2449 66.7588 38.5637 66.5651 38.4199Z" fill="#263238"/>
<path d="M67.0084 23.1343C67.0331 24.1555 66.7523 25.1609 66.2022 26.0216C64.4273 28.2527 61.5462 26.8965 60.2837 27.6527C59.0213 28.4089 58.9963 30.3713 57.9026 31.1025C56.3902 32.115 55.7778 30.9963 55.4028 31.8212C55.0278 32.6462 53.7904 35.2773 52.6029 35.3773C51.4155 35.4773 50.5343 15.5847 64.8772 19.4845C64.8772 19.4845 67.1521 19.3657 69.7957 21.7156C73.5455 25.0654 72.983 30.9275 72.983 30.9275C72.5038 30.7086 72.0775 30.3889 71.7331 29.9901C71.1769 29.2151 70.9394 28.6714 70.5144 28.159C69.8582 27.3465 69.2645 27.6777 68.5645 26.8715C67.5146 25.6529 67.0084 23.1343 67.0084 23.1343Z" fill="#263238"/>
<path d="M67.0208 22.4913C67.0794 23.2629 67.0501 24.0387 66.9333 24.8037C66.8599 25.557 66.5834 26.2763 66.1333 26.8848C65.6101 27.4139 64.913 27.7358 64.1709 27.791C63.4272 27.891 62.6523 27.791 61.8398 27.9097C61.4226 27.9752 61.0302 28.1498 60.7024 28.4159C60.4103 28.7085 60.1769 29.0543 60.0149 29.4346C59.7744 30.1447 59.3417 30.7742 58.765 31.2533C58.4587 31.4651 58.11 31.6078 57.7431 31.6714C57.3762 31.7351 56.9998 31.7182 56.6401 31.622C55.9089 31.4533 55.1527 31.0658 54.3652 31.222C55.1652 31.1283 55.8464 31.5595 56.5964 31.797C56.9832 31.9174 57.3918 31.9518 57.7934 31.8979C58.1949 31.8439 58.5799 31.7028 58.9212 31.4845C59.5627 31.0099 60.0514 30.3583 60.3274 29.6096C60.4754 29.272 60.6877 28.9663 60.9524 28.7097C61.2331 28.4901 61.5676 28.3498 61.9211 28.3034C62.646 28.1785 63.4335 28.2659 64.2272 28.1535C64.6289 28.1048 65.0209 27.9953 65.3896 27.8285C65.7715 27.6687 66.1069 27.4151 66.3646 27.091C66.8192 26.4293 67.083 25.6553 67.127 24.8537C67.1852 24.0648 67.1495 23.2718 67.0208 22.4913Z" fill="#263238"/>
<path d="M67.1459 23.2158C67.1329 23.9338 67.2149 24.6503 67.3896 25.3469C67.5504 26.0832 67.9293 26.754 68.477 27.2718C68.7566 27.5109 69.0603 27.7204 69.3832 27.8967C69.6661 28.0651 69.8957 28.3099 70.0457 28.6029C70.1582 28.9499 70.3047 29.2848 70.4832 29.6029C70.6848 29.906 70.9517 30.1601 71.2644 30.3466C71.0024 30.1118 70.7899 29.8271 70.6394 29.5091C70.4976 29.1855 70.3888 28.8484 70.3144 28.5029C70.168 28.137 69.91 27.8264 69.577 27.6155C69.273 27.4339 68.9863 27.2247 68.7208 26.9905C68.2278 26.5083 67.8664 25.9081 67.6708 25.2469C67.4513 24.5821 67.276 23.9036 67.1459 23.2158Z" fill="#263238"/>
<path d="M54.8161 33.8517C54.8161 33.8517 53.1911 29.8145 51.4162 30.3145C49.6413 30.8144 50.2976 36.2703 51.9912 37.389C52.198 37.5475 52.4348 37.6624 52.6872 37.727C52.9396 37.7915 53.2025 37.8043 53.4599 37.7646C53.7174 37.7249 53.9642 37.6335 54.1855 37.496C54.4067 37.3584 54.5978 37.1774 54.7473 36.9641L54.8161 33.8517Z" fill="#AD6359"/>
<path d="M51.6408 31.8785C51.6408 31.8785 51.5971 31.8785 51.6408 31.9223C52.8158 32.7472 53.222 34.1097 53.4095 35.4658C53.3617 35.3205 53.2833 35.1872 53.1796 35.0748C53.0759 34.9624 52.9492 34.8736 52.8082 34.8143C52.6672 34.7551 52.5151 34.7268 52.3623 34.7314C52.2094 34.7359 52.0593 34.7733 51.9221 34.8409C51.914 34.8441 51.907 34.8497 51.9021 34.8569C51.8972 34.8642 51.8946 34.8727 51.8946 34.8815C51.8946 34.8902 51.8972 34.8988 51.9021 34.906C51.907 34.9132 51.914 34.9189 51.9221 34.9221C52.1674 34.9011 52.413 34.9573 52.6248 35.0828C52.8366 35.2083 53.0039 35.3969 53.1033 35.6221C53.2672 35.9975 53.3908 36.3892 53.472 36.7907C53.5095 36.922 53.7345 36.9095 53.7157 36.7907V36.7532C54.1282 35.0658 53.3782 32.4535 51.6408 31.8785Z" fill="#263238"/>
<path d="M80.4453 83.981L104.575 70.8579L91.4517 46.7286L67.3222 59.8516L80.4453 83.981Z" fill="#E2231C"/>
<path d="M93.5608 108.112L117.69 94.9889L104.567 70.8596L80.4378 83.9826L93.5608 108.112Z" fill="#E2231C"/>
<path d="M104.579 70.8585L128.708 57.7355L115.585 33.6061L91.4555 46.7291L104.579 70.8585Z" fill="#E2231C"/>
<path d="M56.315 97.1013L80.4445 83.9783L67.3215 59.8489L43.192 72.9719L56.315 97.1013Z" fill="#E2231C"/>
<path d="M128.701 57.7425L140.945 51.084L127.822 26.9546L115.578 33.6132L128.701 57.7425Z" fill="#E2231C"/>
<path opacity="0.1" d="M128.701 57.7425L140.945 51.084L127.822 26.9546L115.578 33.6132L128.701 57.7425Z" fill="black"/>
<path d="M117.689 94.9878L129.933 88.3292L116.81 64.1998L104.566 70.8584L117.689 94.9878Z" fill="#E2231C"/>
<path opacity="0.1" d="M117.689 94.9878L129.933 88.3292L116.81 64.1998L104.566 70.8584L117.689 94.9878Z" fill="black"/>
<path opacity="0.1" d="M80.4581 83.994C79.2082 82.0441 78.0957 80.0693 76.9521 78.0819C75.8084 76.0945 74.7084 74.0946 73.6023 72.0822C72.4961 70.0699 71.4336 68.0575 70.3899 66.0139L68.8338 62.9578C68.3338 61.9266 67.8151 60.9017 67.3339 59.833C67.9588 60.8017 68.5213 61.7891 69.115 62.7703L70.8399 65.7451C71.9836 67.7262 73.0835 69.7324 74.1835 71.7385C75.2834 73.7446 76.3583 75.7695 77.3958 77.8069C78.4332 79.8443 79.4832 81.9191 80.4581 83.994Z" fill="black"/>
<path opacity="0.1" d="M104.588 70.8695C103.369 68.9259 102.225 66.9448 101.081 64.9574C99.9378 62.97 98.8378 60.9701 97.7316 58.964C96.6255 56.9579 95.563 54.933 94.5193 52.8956L92.9632 49.8333C92.4632 48.8021 91.9445 47.7834 91.4633 46.7085C92.0882 47.6772 92.6507 48.6709 93.2444 49.6458L94.9693 52.6206C96.113 54.6018 97.2129 56.6079 98.3129 58.614C99.4128 60.6201 100.488 62.645 101.525 64.6886C102.563 66.7323 103.613 68.7946 104.588 70.8695Z" fill="black"/>
<path opacity="0.1" d="M80.4445 83.9677C82.3882 82.7553 84.3693 81.6053 86.3567 80.4679C88.3441 79.3305 90.344 78.218 92.3501 77.1181C94.3562 76.0182 96.3811 74.9495 98.4185 73.9058L101.481 72.3497C102.512 71.8497 103.531 71.331 104.606 70.8497C103.637 71.4747 102.643 72.0372 101.668 72.6309L98.6935 74.3495C96.7123 75.4995 94.7062 76.5994 92.7001 77.6993C90.6939 78.7993 88.669 79.8742 86.6254 80.9116C84.5818 81.9491 82.5132 82.999 80.4445 83.9677Z" fill="black"/>
<path d="M41.8289 52.3448C35.0668 59.9818 18.9114 88.7051 24.3924 93.7173C29.8733 98.7295 59.4904 90.9987 67.7461 86.7864C70.2023 85.5365 60.3341 70.2749 57.403 69.9875C54.9594 69.75 42.6601 75.7809 42.2851 75.0747C41.8539 74.2747 43.6725 68.2438 46.3786 57.3507C49.5284 44.789 44.8162 48.97 41.8289 52.3448Z" fill="#AD6359"/>
<path d="M53.7654 70.9056C53.7654 70.9056 60.4588 66.9496 66.7772 65.2435C71.152 64.0623 80.9326 62.5624 90.5821 71.9993C92.8757 74.2367 94.5506 79.0551 89.4821 76.7553C85.8824 75.1241 84.0887 73.0055 81.8263 72.4305C81.8263 72.4305 83.2263 78.8052 80.8951 81.0113C78.8565 82.9413 76.6823 84.7228 74.3893 86.3422C73.9973 85.9908 73.6279 85.6151 73.2831 85.2173C73.2831 85.2173 70.9082 87.0922 66.3397 86.7609L53.7654 70.9056Z" fill="#AD6359"/>
<path d="M71.1028 64.7831C73.2339 65.8268 77.7149 68.1079 80.7335 71.2452C84.077 74.7325 89.5892 82.3508 86.9831 84.7944C85.1082 86.588 82.7209 83.8632 82.7209 83.8632C82.7209 83.8632 84.3333 87.4942 82.2584 88.7379C80.3835 89.8691 78.6648 87.6567 78.6648 87.6567C78.6648 87.6567 79.2898 90.0253 77.2337 90.7815C74.7901 91.6752 73.9339 86.5631 70.6778 85.3256C69.9528 85.0256 71.1028 64.7831 71.1028 64.7831Z" fill="#AD6359"/>
<path d="M76.459 74.1685C79.4857 76.6537 81.6832 80.0023 82.7587 83.7679C82.7587 83.8679 82.7212 83.9367 82.6774 83.8492C80.9961 80.3896 78.8972 77.1489 76.4278 74.1998C76.4278 74.1998 76.434 74.156 76.459 74.1685Z" fill="#263238"/>
<path d="M73.0333 77.649C74.5082 78.9426 77.8518 83.2736 78.7517 87.6109C78.7517 87.7046 78.708 87.7734 78.6705 87.6859C77.1623 84.1506 75.2608 80.7963 73.0021 77.6865C73.0021 77.6865 73.0146 77.6365 73.0333 77.649Z" fill="#263238"/>
<path d="M81.8076 72.3874C83.7949 72.9186 85.1011 73.8498 86.8073 74.9622C87.6376 75.5236 88.4994 76.0369 89.3884 76.4996C90.2008 76.9121 91.407 77.5371 92.2445 76.8371C92.4367 76.62 92.5675 76.3556 92.6236 76.0711C92.6796 75.7866 92.6587 75.4923 92.5632 75.2185C92.301 74.4253 91.915 73.6787 91.4195 73.0061C91.4195 73.0061 91.4195 72.9436 91.4633 72.9686C91.9466 73.58 92.3654 74.2397 92.7132 74.9372C92.9371 75.4144 93.0133 75.9476 92.9319 76.4684C92.6694 77.5621 91.3945 77.7183 90.4758 77.4621C89.9307 77.2796 89.4052 77.043 88.9072 76.7559C88.4197 76.4934 87.951 76.2122 87.4822 75.9122C86.5323 75.2872 85.6073 74.6623 84.6637 74.0373C83.7442 73.4535 82.7881 72.9295 81.8013 72.4686C81.7388 72.4374 81.7701 72.3811 81.8076 72.3874Z" fill="#263238"/>
<path d="M86.1202 79.2113C84.8064 76.8631 83.3452 74.6003 81.7454 72.4367L81.7829 72.3992C83.3578 73.8116 85.9264 77.6177 86.5389 78.8363C87.2547 80.1081 87.7075 81.5108 87.8701 82.9611C87.9263 85.0235 86.5701 85.4609 86.0702 85.5609C85.4728 85.6836 84.8514 85.5998 84.3078 85.3235C83.6731 84.9558 83.1202 84.4624 82.6829 83.8735C82.6829 83.8423 82.6829 83.8048 82.7204 83.8298C83.4578 84.6235 84.664 85.3922 85.7764 85.2172C86.0224 85.1851 86.2595 85.1044 86.4741 84.98C86.6886 84.8555 86.8763 84.6898 87.0264 84.4923C87.3202 83.9912 87.4224 83.4005 87.3138 82.8299C87.1204 81.5656 86.717 80.3425 86.1202 79.2113Z" fill="#263238"/>
<path d="M53.7652 70.9066L63.8334 90.7054C63.8334 90.7054 26.7668 100.08 23.3795 93.6677C19.9921 87.2556 33.7664 61.4697 40.1035 53.9014C47.4343 45.1519 48.478 48.0142 47.0156 55.6575C45.4844 63.6633 42.4221 75.2563 42.4221 75.2563L53.7652 70.9066Z" fill="#455A64"/>
<path d="M53.6724 70.7751C53.4786 70.8314 43.0792 74.5812 42.7355 74.7686C42.7792 74.5937 45.2354 65.2505 45.4853 64.3318L45.5603 64.0568C45.7416 63.6506 45.9291 63.2443 46.0978 62.8069C46.3166 62.2694 46.529 61.7319 46.7228 61.1945L46.0166 62.7694C45.9103 63.0131 45.8103 63.2568 45.7103 63.5068C45.8853 62.8819 46.0478 62.2131 46.2103 61.5632C46.4665 60.5257 46.6978 59.4883 46.9228 58.4384C46.9228 58.4384 46.8853 58.3946 46.879 58.4384C46.3603 60.2633 45.7853 62.0632 45.2666 63.8818C44.7479 65.7004 42.0293 75.5123 42.0418 75.5061C42.0543 75.4998 53.5036 71.0439 53.7286 70.9376C53.8099 70.8876 53.7661 70.7439 53.6724 70.7751Z" fill="#263238"/>
<path d="M54.6779 83.9122C53.5717 81.6998 52.478 79.4812 51.2906 77.3126C50.6156 76.0627 49.9406 74.8127 49.2532 73.6191C49.2462 73.6111 49.2369 73.6055 49.2266 73.6031C49.2163 73.6008 49.2055 73.6017 49.1958 73.6059C49.186 73.6101 49.1779 73.6172 49.1725 73.6263C49.1671 73.6354 49.1647 73.646 49.1657 73.6566C50.1906 75.9189 51.2281 78.1875 52.353 80.3999C53.4779 82.6123 54.5841 84.8184 55.7341 87.0057C56.359 88.2557 57.0777 89.5056 57.8089 90.6805C57.8089 90.6805 57.8652 90.6805 57.8527 90.6805C56.8902 88.3557 55.7966 86.1371 54.6779 83.9122Z" fill="#263238"/>
<path d="M235.318 41.2819C229.206 52.9249 220.513 52.1562 217.95 54.8998C216.501 56.6966 215.155 58.5745 213.919 60.5245L201.182 55.631C201.573 53.3565 201.83 51.0611 201.951 48.7564C201.901 45.0067 194.92 39.7445 198.201 27.0078C200.345 18.6395 211.232 8.30889 224.712 13.4898C238.193 18.6708 239.33 33.6261 235.318 41.2819Z" fill="#E2231C"/>
<path d="M207.83 35.9295L203.814 57.641L204.428 57.7547L208.444 36.0431L207.83 35.9295Z" fill="white"/>
<path d="M221.689 41.1458L210.11 59.9458L210.642 60.2735L222.221 41.4736L221.689 41.1458Z" fill="white"/>
<path d="M213.206 45.4886C212.945 45.4921 212.686 45.4454 212.443 45.3511C211.293 44.9074 210.65 43.4325 210.431 41.7763C210.236 41.9002 210.017 41.981 209.789 42.0134C209.56 42.0457 209.328 42.0288 209.106 41.9638C207.231 41.2326 207.956 37.0203 207.987 36.8453L208.294 36.9016C208.294 36.9391 207.562 41.0326 209.219 41.6701C209.419 41.72 209.628 41.7257 209.831 41.6868C210.034 41.648 210.226 41.5655 210.394 41.4451C210.247 40.1062 210.396 38.7514 210.831 37.4766C211.25 36.3829 211.906 35.9204 212.618 36.1891C212.829 36.2663 213.015 36.3986 213.157 36.5724C213.299 36.7461 213.391 36.9548 213.425 37.1766C213.618 38.389 212.406 40.3014 211.156 41.2951C211.018 41.4073 210.874 41.5117 210.725 41.6076C210.912 43.2075 211.493 44.6511 212.556 45.0636C213.35 45.3698 214.393 45.0636 215.487 44.1637L215.762 43.9324C215.662 43.6723 215.591 43.4019 215.549 43.1262C215.287 41.4576 215.899 39.3764 216.893 38.5702C217.06 38.4203 217.264 38.3179 217.484 38.2739C217.704 38.23 217.931 38.246 218.143 38.3203C218.306 38.3815 218.449 38.486 218.557 38.6225C218.665 38.7591 218.734 38.9225 218.756 39.0952C218.943 40.2889 217.737 42.5075 216.137 44.0012C216.353 44.476 216.745 44.8481 217.231 45.0386C218.406 45.4886 220.512 43.095 221.23 42.1325L221.48 42.32C221.368 42.47 218.749 45.9635 217.106 45.3323C216.563 45.1301 216.117 44.7306 215.856 44.2137C215.787 44.2761 215.718 44.3386 215.643 44.3949C214.971 45.0139 214.115 45.3977 213.206 45.4886ZM217.737 38.5515C217.505 38.5665 217.285 38.659 217.112 38.814C216.218 39.5389 215.637 41.5326 215.862 43.0762C215.896 43.2887 215.948 43.4979 216.018 43.7012C217.487 42.2888 218.624 40.2264 218.456 39.1577C218.447 39.0376 218.405 38.9224 218.333 38.8259C218.261 38.7294 218.162 38.6559 218.049 38.614C217.95 38.5746 217.844 38.5534 217.737 38.5515ZM212.225 36.4266C211.662 36.4266 211.3 37.1266 211.125 37.589C210.728 38.7666 210.581 40.0139 210.694 41.2513L210.962 41.0513C212.118 40.1139 213.287 38.314 213.118 37.2266C213.094 37.0566 213.023 36.8968 212.912 36.7654C212.802 36.6339 212.657 36.536 212.493 36.4829C212.408 36.4489 212.317 36.4299 212.225 36.4266Z" fill="white"/>
<path d="M215.614 60.5518L199.899 54.5072L198.717 57.5812L214.431 63.6258L215.614 60.5518Z" fill="#263238"/>
<path d="M214.236 64.1208L198.522 58.0761L197.34 61.1501L213.054 67.1947L214.236 64.1208Z" fill="#263238"/>
<path d="M212.871 67.6918L197.157 61.6471L195.974 64.7211L211.688 70.7657L212.871 67.6918Z" fill="#263238"/>
<path d="M220.494 7.15854C220.378 6.24975 220.378 5.32998 220.494 4.4212C220.585 3.51032 220.795 2.61529 221.119 1.75886C221.234 2.66764 221.234 3.58741 221.119 4.4962C221.024 5.40658 220.814 6.30124 220.494 7.15854Z" fill="#263238"/>
<path d="M207.725 8.95238C207.168 8.22318 206.708 7.42492 206.357 6.57752C205.977 5.74369 205.71 4.86311 205.563 3.95893C206.66 5.43622 207.4 7.14748 207.725 8.95863V8.95238Z" fill="#263238"/>
<path d="M197.557 16.8832C196.711 16.531 195.915 16.0709 195.188 15.5145C194.442 14.98 193.77 14.3496 193.188 13.6397C194.036 13.9914 194.834 14.4515 195.563 15.0083C196.304 15.5464 196.974 16.1764 197.557 16.8832Z" fill="#263238"/>
<path d="M192.727 28.8407C190.901 29.0476 189.052 28.8338 187.321 28.2157C189.147 28.0089 190.996 28.2226 192.727 28.8407Z" fill="#263238"/>
<path d="M194.514 41.5941C193.033 42.6868 191.324 43.4284 189.514 43.7627C190.243 43.2058 191.042 42.7458 191.889 42.394C192.727 42.0177 193.609 41.7489 194.514 41.5941Z" fill="#263238"/>
<path d="M237.336 46.889C239.025 47.6161 240.522 48.7241 241.711 50.1263C240.865 49.7758 240.069 49.3156 239.342 48.7577C238.596 48.2237 237.922 47.5956 237.336 46.889Z" fill="#263238"/>
<path d="M242.174 34.9329C244 34.726 245.849 34.9398 247.58 35.5579C245.754 35.7648 243.905 35.551 242.174 34.9329Z" fill="#263238"/>
<path d="M240.386 22.1643C241.866 21.0692 243.576 20.3274 245.386 19.9956C244.659 20.552 243.863 21.0121 243.017 21.3643C242.177 21.7403 241.293 22.009 240.386 22.1643Z" fill="#263238"/>
<path d="M232.449 11.9969C232.802 11.1521 233.262 10.356 233.818 9.62833C234.353 8.88263 234.983 8.21028 235.693 7.62845C235.34 8.47476 234.878 9.2711 234.318 9.99706C233.785 10.7426 233.157 11.415 232.449 11.9969Z" fill="#263238"/>
</svg>
