<svg width="365" height="269" viewBox="0 0 365 269" fill="none" xmlns="http://www.w3.org/2000/svg">
<path d="M328.234 250.601H304.07V250.783H328.234V250.601Z" fill="#EBEBEB"/>
<path d="M241.648 252.585H235.308V252.768H241.648V252.585Z" fill="#EBEBEB"/>
<path d="M303.341 243.83H289.34V244.012H303.341V243.83Z" fill="#EBEBEB"/>
<path d="M69.7834 245.055H38.2732V245.238H69.7834V245.055Z" fill="#EBEBEB"/>
<path d="M80.9022 245.055H76.2841V245.238H80.9022V245.055Z" fill="#EBEBEB"/>
<path d="M164.263 248.134H95.9166V248.316H164.263V248.134Z" fill="#EBEBEB"/>
<path d="M172.908 206.322H32.0429C30.938 206.322 29.8784 205.883 29.0972 205.102C28.3159 204.321 27.877 203.261 27.877 202.156V4.12936C27.8866 3.03085 28.3298 1.9806 29.11 1.20722C29.8902 0.433847 30.9443 -4.21151e-05 32.0429 3.06605e-09H172.908C174.013 3.06606e-09 175.073 0.4389 175.854 1.22015C176.635 2.00139 177.074 3.06099 177.074 4.16584V202.156C177.074 203.261 176.635 204.321 175.854 205.102C175.073 205.883 174.013 206.322 172.908 206.322ZM32.0429 0.145914C30.987 0.147843 29.9749 0.568145 29.2283 1.31477C28.4816 2.06139 28.0613 3.07348 28.0594 4.12936V202.156C28.0613 203.212 28.4816 204.224 29.2283 204.971C29.9749 205.718 30.987 206.138 32.0429 206.14H172.908C173.964 206.138 174.976 205.718 175.723 204.971C176.47 204.224 176.89 203.212 176.892 202.156V4.12936C176.89 3.07348 176.47 2.06139 175.723 1.31477C174.976 0.568145 173.964 0.147843 172.908 0.145914H32.0429Z" fill="#EBEBEB"/>
<path d="M330.722 206.322H189.842C188.737 206.32 187.679 205.881 186.898 205.1C186.117 204.319 185.678 203.261 185.676 202.156V4.12936C185.687 3.03144 186.131 1.9823 186.911 1.20933C187.691 0.436362 188.744 0.00185915 189.842 0H330.722C331.818 0.00379704 332.868 0.439382 333.645 1.21235C334.422 1.98531 334.863 3.03337 334.873 4.12936V202.156C334.873 203.259 334.436 204.316 333.658 205.097C332.88 205.878 331.824 206.318 330.722 206.322ZM189.842 0.145914C188.786 0.147843 187.774 0.568145 187.027 1.31477C186.28 2.06139 185.86 3.07348 185.858 4.12936V202.156C185.86 203.212 186.28 204.224 187.027 204.971C187.774 205.718 188.786 206.138 189.842 206.14H330.722C331.778 206.138 332.79 205.718 333.536 204.971C334.283 204.224 334.703 203.212 334.705 202.156V4.12936C334.703 3.07348 334.283 2.06139 333.536 1.31477C332.79 0.568145 331.778 0.147843 330.722 0.145914H189.842Z" fill="#EBEBEB"/>
<path d="M364.785 238.861H0V239.044H364.785V238.861Z" fill="#EBEBEB"/>
<path d="M304.049 28.9416H213.005V125.894H304.049V28.9416Z" fill="#EBEBEB"/>
<path d="M298.577 34.413H218.477V120.422H298.577V34.413Z" fill="#F5F5F5"/>
<path d="M249.915 120.422H273.99L296.592 34.413H272.517L249.915 120.422Z" fill="#FAFAFA"/>
<path d="M261.332 34.413L238.73 120.422H244.567L267.169 34.413H261.332Z" fill="#FAFAFA"/>
<path d="M305.194 33.5009H211.853L209.883 28.9047H307.164L305.194 33.5009Z" fill="#F5F5F5"/>
<path d="M305.194 36.1648H211.853L209.883 31.5685H307.164L305.194 36.1648Z" fill="#F0F0F0"/>
<path d="M305.194 38.8266H211.853L209.883 34.2303H307.164L305.194 38.8266Z" fill="#E6E6E6"/>
<path d="M305.194 41.4905H211.853L209.883 36.8942H307.164L305.194 41.4905Z" fill="#E0E0E0"/>
<path d="M310.564 23.15H206.49V29.2783H310.564V23.15Z" fill="#E0E0E0"/>
<path d="M207.556 84.8419C207.275 84.8419 207.006 84.7304 206.808 84.532C206.609 84.3337 206.498 84.0646 206.498 83.784V48.0351C206.498 47.7545 206.609 47.4855 206.808 47.2871C207.006 47.0887 207.275 46.9772 207.556 46.9772C207.836 46.9772 208.105 47.0887 208.304 47.2871C208.502 47.4855 208.614 47.7545 208.614 48.0351V83.784C208.614 84.0646 208.502 84.3337 208.304 84.532C208.105 84.7304 207.836 84.8419 207.556 84.8419Z" fill="#E0E0E0"/>
<path d="M207.935 28.0529H207.169V49.2834H207.935V28.0529Z" fill="#E0E0E0"/>
<path d="M66.0406 27.0678H64.7274V129.477H66.0406V27.0678Z" fill="#E0E0E0"/>
<path d="M147.789 27.0678H146.476V129.477H147.789V27.0678Z" fill="#E0E0E0"/>
<path d="M152.94 33.5009H59.584L57.6141 28.9047H154.902L152.94 33.5009Z" fill="#F5F5F5"/>
<path d="M152.94 39.8117H59.584L57.6141 35.2155H154.902L152.94 39.8117Z" fill="#F5F5F5"/>
<path d="M152.94 46.1226H59.584L57.6141 41.5263H154.902L152.94 46.1226Z" fill="#F5F5F5"/>
<path d="M152.94 52.4334H59.584L57.6141 47.8372H154.902L152.94 52.4334Z" fill="#F5F5F5"/>
<path d="M152.94 58.7442H59.584L57.6141 54.1479H154.902L152.94 58.7442Z" fill="#F5F5F5"/>
<path d="M152.94 65.0551H59.584L57.6141 60.4588H154.902L152.94 65.0551Z" fill="#F5F5F5"/>
<path d="M152.94 71.3659H59.584L57.6141 66.7697H154.902L152.94 71.3659Z" fill="#F5F5F5"/>
<path d="M152.94 77.6767H59.584L57.6141 73.0804H154.902L152.94 77.6767Z" fill="#F5F5F5"/>
<path d="M152.94 83.9876H59.584L57.6141 79.3913H154.902L152.94 83.9876Z" fill="#F5F5F5"/>
<path d="M152.94 90.2984H59.584L57.6141 85.7021H154.902L152.94 90.2984Z" fill="#F5F5F5"/>
<path d="M152.94 96.6092H59.584L57.6141 92.0129H154.902L152.94 96.6092Z" fill="#F5F5F5"/>
<path d="M152.94 102.914H59.584L57.6141 98.3176H154.902L152.94 102.914Z" fill="#F5F5F5"/>
<path d="M152.94 109.232H59.584L57.6141 104.628H154.902L152.94 109.232Z" fill="#F5F5F5"/>
<path d="M152.94 115.536H59.584L57.6141 110.939H154.902L152.94 115.536Z" fill="#F5F5F5"/>
<path d="M152.94 121.844H59.584L57.6141 117.248H154.902L152.94 121.844Z" fill="#F5F5F5"/>
<path d="M152.94 128.155H59.584L57.6141 123.559H154.902L152.94 128.155Z" fill="#F5F5F5"/>
<path d="M154.902 128.156H57.6141V130.783H154.902V128.156Z" fill="#E0E0E0"/>
<path d="M158.295 23.15H54.2217V29.2783H158.295V23.15Z" fill="#E0E0E0"/>
<path d="M55.2942 84.8419C55.0136 84.8419 54.7446 84.7304 54.5462 84.532C54.3478 84.3337 54.2363 84.0646 54.2363 83.784V48.0351C54.2363 47.7545 54.3478 47.4855 54.5462 47.2871C54.7446 47.0887 55.0136 46.9772 55.2942 46.9772C55.5748 46.9772 55.8439 47.0887 56.0422 47.2871C56.2406 47.4855 56.3521 47.7545 56.3521 48.0351V83.784C56.3521 84.0646 56.2406 84.3337 56.0422 84.532C55.8439 84.7304 55.5748 84.8419 55.2942 84.8419Z" fill="#E0E0E0"/>
<path d="M55.6735 28.0529H54.9075V49.2834H55.6735V28.0529Z" fill="#E0E0E0"/>
<path d="M65.1652 195.071C65.0777 195.166 65.5665 195.852 63.5675 195.553C58.6429 194.823 50.0704 192.817 47.6847 187.754C44.2776 180.524 54.8418 183.165 54.477 179.466C54.1122 175.767 42.0743 176.409 40.8121 170.988C39.55 165.568 47.692 168.15 47.8014 165.509C47.9109 162.868 38.514 164.502 36.6463 158.651C34.7786 152.8 41.8846 157.112 41.0675 154.675C40.2504 152.238 32.3126 141.244 36.6244 139.967C40.9362 138.69 48.2392 149.977 51.0699 151.574C53.9006 153.172 56.3812 143.958 59.7372 147.854C63.0932 151.75 57.7674 165.363 62.0427 167.997C65.2309 169.967 64.3335 164.546 68.5358 165.56C74.2192 166.932 72.3004 187.09 65.1652 195.071Z" fill="#EBEBEB"/>
<path d="M49.9683 165.54C51.4172 165.647 52.8466 165.939 54.2217 166.408C53.31 165.039 52.2979 163.739 51.1939 162.52C51.1346 162.449 51.104 162.359 51.1082 162.268C51.1124 162.176 51.1511 162.089 51.2165 162.024C51.2819 161.96 51.3693 161.922 51.4612 161.92C51.553 161.917 51.6426 161.949 51.7119 162.009C54.0916 164.678 56.1283 167.633 57.7747 170.807C59.3286 161.476 55.4181 153.298 55.3744 153.239C55.3511 153.175 55.3524 153.104 55.3782 153.041C55.404 152.977 55.4524 152.926 55.514 152.896C55.5757 152.866 55.6462 152.86 55.712 152.879C55.7778 152.898 55.8343 152.94 55.8705 152.999C55.9143 153.086 60.0801 161.79 58.1905 171.581C58.6939 172.537 59.2046 173.565 59.7007 174.667C61.4661 178.594 62.8607 182.678 63.8666 186.865C65.6887 183.428 66.6877 179.614 66.7849 175.725C66.7858 175.689 66.7937 175.654 66.8082 175.622C66.8226 175.59 66.8433 175.56 66.8691 175.536C66.8948 175.512 66.9251 175.493 66.9582 175.48C66.9913 175.467 67.0266 175.461 67.0621 175.462C67.0985 175.463 67.1344 175.471 67.1677 175.486C67.2009 175.501 67.231 175.522 67.256 175.548C67.2811 175.575 67.3007 175.606 67.3138 175.64C67.3268 175.674 67.333 175.71 67.332 175.747C67.2445 179.917 66.124 184 64.0709 187.631C65.9325 195.871 66.5546 204.342 65.9167 212.765C65.9139 212.813 65.9017 212.86 65.8807 212.903C65.8597 212.946 65.8305 212.985 65.7945 213.017C65.7586 213.049 65.7167 213.073 65.6714 213.089C65.626 213.104 65.5779 213.111 65.53 213.108H65.4862C65.3979 213.092 65.3189 213.043 65.2648 212.972C65.2108 212.9 65.1856 212.811 65.1944 212.721C66.0918 199.589 64.1365 189.076 61.4225 181.094C59.9164 179.35 57.8552 178.178 55.5859 177.775C55.5157 177.761 55.4533 177.72 55.4114 177.662C55.3694 177.604 55.351 177.532 55.3598 177.461C55.3643 177.426 55.3758 177.391 55.3937 177.36C55.4116 177.329 55.4355 177.302 55.464 177.28C55.4925 177.258 55.5251 177.243 55.5598 177.234C55.5945 177.225 55.6307 177.223 55.6662 177.228C57.6563 177.571 59.5026 178.489 60.9775 179.869C59.4008 175.428 57.315 171.185 54.7615 167.225C53.2228 166.582 51.5885 166.198 49.9245 166.087C49.8522 166.082 49.785 166.048 49.7373 165.993C49.6896 165.939 49.6651 165.868 49.6691 165.795C49.6709 165.759 49.6802 165.722 49.6964 165.689C49.7126 165.656 49.7355 165.627 49.7635 165.603C49.7915 165.579 49.8241 165.561 49.8594 165.55C49.8946 165.539 49.9316 165.536 49.9683 165.54Z" fill="#F5F5F5"/>
<path d="M71.4979 197.867C75.5908 197.94 82.5801 194.139 85.3598 190.448C88.1394 186.756 80.3112 188.989 81.1137 186.07C81.9162 183.152 91.5757 185.304 93.3559 181.08C95.136 176.856 88.1759 177.833 88.4532 175.674C88.7304 173.514 95.9458 173.959 98.2586 169.473C100.571 164.986 94.2314 167.503 95.2236 165.642C96.2158 163.782 104.175 155.961 100.849 154.334C97.5217 152.707 90.0582 160.849 87.5631 161.761C85.068 162.673 84.477 157.041 81.2231 159.733C77.9692 162.425 80.406 174.186 76.583 175.74C73.7304 176.9 74.9415 171.508 71.6584 172.872C65.8511 175.258 69.8126 197.831 71.4979 197.867Z" fill="#E0E0E0"/>
<g opacity="0.3">
<path d="M71.4979 197.867C75.5908 197.94 82.5801 194.139 85.3598 190.447C88.1394 186.756 80.3112 188.988 81.1137 186.07C81.9162 183.152 91.5757 185.304 93.3559 181.08C95.136 176.855 88.1759 177.833 88.4532 175.674C88.7304 173.514 95.9458 173.959 98.2586 169.472C100.571 164.985 94.2314 167.502 95.2236 165.642C96.2158 163.782 104.175 155.961 100.849 154.334C97.5217 152.707 90.0582 160.849 87.5631 161.761C85.068 162.673 84.477 157.04 81.2231 159.732C77.9692 162.425 80.406 174.185 76.583 175.739C73.7304 176.899 74.9415 171.508 71.6584 172.872C65.8511 175.258 69.8126 197.831 71.4979 197.867Z" fill="#E0E0E0"/>
</g>
<path d="M72.8257 192.956C72.7639 192.934 72.7121 192.89 72.6798 192.832C71.1199 189.408 70.4859 185.635 70.8413 181.889C70.8388 181.849 70.8449 181.81 70.8591 181.772C70.8734 181.735 70.8954 181.702 70.9237 181.674C70.952 181.646 70.986 181.625 71.0234 181.611C71.0607 181.598 71.1005 181.592 71.1401 181.595C71.1797 181.599 71.2181 181.61 71.2528 181.63C71.2875 181.649 71.3177 181.675 71.3412 181.707C71.3648 181.739 71.3812 181.776 71.3893 181.815C71.3975 181.854 71.3972 181.894 71.3884 181.933C71.0828 185.488 71.6514 189.065 73.0446 192.351C74.7363 187.787 76.8209 183.378 79.2751 179.175C78.5455 170.42 83.0543 163.197 83.098 163.124C83.1367 163.063 83.1981 163.02 83.2685 163.005C83.339 162.989 83.4128 163.002 83.4738 163.04C83.5347 163.079 83.5778 163.14 83.5935 163.211C83.6093 163.281 83.5964 163.355 83.5577 163.416C80.95 167.945 79.64 173.104 79.7712 178.329C82.7128 173.282 86.2231 168.59 90.2332 164.343C90.2662 164.305 90.3067 164.274 90.3521 164.253C90.3975 164.231 90.4469 164.219 90.4971 164.217C90.5474 164.216 90.5974 164.225 90.6441 164.243C90.6907 164.262 90.733 164.29 90.7683 164.326C90.8036 164.362 90.8311 164.404 90.8491 164.451C90.8671 164.498 90.8752 164.548 90.873 164.599C90.8707 164.649 90.858 164.698 90.8358 164.743C90.8136 164.788 90.7823 164.828 90.7439 164.861C87.7812 167.978 85.1073 171.358 82.7551 174.958C85.2197 174.03 87.8332 173.56 90.4667 173.572C90.539 173.576 90.6069 173.607 90.6559 173.661C90.705 173.714 90.7314 173.784 90.7294 173.856C90.7275 173.927 90.6982 173.993 90.6478 174.042C90.5973 174.092 90.5298 174.119 90.4594 174.119C87.6284 174.095 84.8218 174.644 82.208 175.731C80.5964 178.206 79.111 180.76 77.7576 183.384C78.8567 182.622 80.1082 182.107 81.4258 181.875C82.7434 181.643 84.0955 181.7 85.3889 182.042C85.4592 182.061 85.5193 182.107 85.5562 182.17C85.593 182.232 85.6037 182.307 85.5859 182.378C85.5766 182.412 85.5605 182.445 85.5386 182.473C85.5166 182.502 85.4892 182.525 85.4579 182.543C85.4267 182.561 85.3922 182.572 85.3566 182.576C85.3209 182.58 85.2848 182.577 85.2503 182.567C83.8481 182.207 82.3787 182.196 80.9715 182.537C79.5644 182.878 78.2627 183.56 77.1812 184.523C72.4773 193.848 69.7948 204.06 69.3092 214.493C69.3054 214.588 69.2653 214.677 69.1973 214.742C69.1293 214.807 69.0386 214.844 68.9444 214.844C68.8501 214.844 68.7595 214.807 68.6915 214.742C68.6235 214.677 68.5834 214.588 68.5796 214.493C68.8857 207.14 70.3177 199.876 72.8257 192.956Z" fill="#F5F5F5"/>
<path d="M59.9634 237.84C56.0602 230.501 53.4921 219.893 53.4921 215.223C53.511 213.32 53.9482 211.444 54.7727 209.728C55.5972 208.012 56.789 206.498 58.2635 205.294H78.261C79.7355 206.498 80.9272 208.012 81.7517 209.728C82.5763 211.444 83.0135 213.32 83.0324 215.223C83.0324 219.878 80.4643 230.486 76.5611 237.84H59.9634Z" fill="#F0F0F0"/>
<path d="M178.876 269C257 269 320.333 265.302 320.333 260.741C320.333 256.18 257 252.483 178.876 252.483C100.752 252.483 37.4197 256.18 37.4197 260.741C37.4197 265.302 100.752 269 178.876 269Z" fill="#F5F5F5"/>
<path d="M213.509 47.159H195.999C195.429 47.1712 194.879 47.3739 194.437 47.7349C193.996 48.0959 193.688 48.5943 193.562 49.1508L193.446 49.698C193.143 51.0554 192.393 52.2719 191.316 53.1518C190.239 54.0317 188.897 54.524 187.507 54.5496H170.873C169.553 54.579 168.276 54.0854 167.319 53.1765C166.362 52.2676 165.804 51.0171 165.766 49.698V49.1508C165.752 48.6102 165.525 48.097 165.134 47.7237C164.743 47.3503 164.22 47.1473 163.679 47.159H146.169C143.294 47.2102 140.536 48.3134 138.419 50.2601C136.301 52.2067 134.971 54.8618 134.679 57.7232L120.627 218.622C120.479 219.968 120.619 221.329 121.038 222.616C121.456 223.903 122.145 225.086 123.057 226.086C123.968 227.087 125.083 227.881 126.326 228.417C127.569 228.953 128.912 229.218 130.265 229.194H197.582C200.459 229.141 203.216 228.036 205.333 226.088C207.451 224.14 208.781 221.485 209.073 218.622L223.154 57.7232C223.301 56.3779 223.16 55.0165 222.74 53.7299C222.32 52.4433 221.631 51.2608 220.719 50.2613C219.806 49.2618 218.691 48.4682 217.448 47.9333C216.205 47.3984 214.862 47.1344 213.509 47.159Z" fill="#E2231C"/>
<path opacity="0.7" d="M213.509 47.159H195.999C195.429 47.1712 194.879 47.3739 194.437 47.7349C193.996 48.0959 193.688 48.5943 193.562 49.1508L193.446 49.698C193.143 51.0554 192.393 52.2719 191.316 53.1518C190.239 54.0317 188.897 54.524 187.507 54.5496H170.873C169.553 54.579 168.276 54.0854 167.319 53.1765C166.362 52.2676 165.804 51.0171 165.766 49.698V49.1508C165.752 48.6102 165.525 48.097 165.134 47.7237C164.743 47.3503 164.22 47.1473 163.679 47.159H146.169C143.294 47.2102 140.536 48.3134 138.419 50.2601C136.301 52.2067 134.971 54.8618 134.679 57.7232L120.627 218.622C120.479 219.968 120.619 221.329 121.038 222.616C121.456 223.903 122.145 225.086 123.057 226.086C123.968 227.087 125.083 227.881 126.326 228.417C127.569 228.953 128.912 229.218 130.265 229.194H197.582C200.459 229.141 203.216 228.036 205.333 226.088C207.451 224.14 208.781 221.485 209.073 218.622L223.154 57.7232C223.301 56.3779 223.16 55.0165 222.74 53.7299C222.32 52.4433 221.631 51.2608 220.719 50.2613C219.806 49.2618 218.691 48.4682 217.448 47.9333C216.205 47.3984 214.862 47.1344 213.509 47.159Z" fill="white"/>
<path d="M206.687 121.167H170.938C170.638 121.172 170.339 121.112 170.063 120.993C169.787 120.874 169.539 120.698 169.336 120.475C169.134 120.253 168.98 119.991 168.887 119.705C168.793 119.419 168.761 119.117 168.793 118.818L171.485 88.037C171.55 87.4007 171.845 86.8101 172.316 86.3771C172.786 85.9441 173.4 85.6989 174.039 85.6878H209.788C210.089 85.6818 210.388 85.7401 210.665 85.8589C210.941 85.9777 211.19 86.1542 211.393 86.3765C211.596 86.5989 211.749 86.8621 211.842 87.1484C211.935 87.4348 211.966 87.7377 211.933 88.037L209.241 118.818C209.175 119.453 208.879 120.043 208.409 120.476C207.938 120.908 207.326 121.154 206.687 121.167Z" fill="white"/>
<path d="M194.795 217.411H134.97C134.223 217.425 133.481 217.279 132.794 216.984C132.107 216.688 131.491 216.25 130.987 215.697C130.483 215.145 130.103 214.492 129.871 213.781C129.64 213.07 129.562 212.318 129.644 211.574C129.806 209.994 130.542 208.528 131.711 207.452C132.88 206.377 134.403 205.767 135.992 205.738H195.817C196.564 205.724 197.306 205.87 197.993 206.165C198.68 206.461 199.296 206.899 199.8 207.451C200.304 208.004 200.684 208.657 200.916 209.368C201.147 210.079 201.224 210.831 201.142 211.574C200.982 213.155 200.247 214.623 199.077 215.698C197.908 216.774 196.384 217.383 194.795 217.411Z" fill="white"/>
<path d="M199.559 77.2245H144.674C144.253 77.2371 143.835 77.1586 143.447 76.9943C143.059 76.83 142.712 76.5839 142.429 76.2727C142.145 75.9615 141.932 75.5927 141.805 75.1916C141.677 74.7904 141.638 74.3664 141.69 73.9487L142.135 68.8417C142.227 67.9563 142.64 67.1353 143.296 66.5333C143.952 65.9312 144.805 65.5898 145.695 65.5732H200.581C201 65.5657 201.416 65.6473 201.801 65.8127C202.185 65.9782 202.531 66.2236 202.814 66.5327C203.097 66.8418 203.311 67.2075 203.441 67.6056C203.572 68.0037 203.617 68.4251 203.572 68.8417L203.12 73.9487C203.029 74.8354 202.617 75.6582 201.961 76.2617C201.305 76.8652 200.451 77.2077 199.559 77.2245Z" fill="white"/>
<path d="M210.722 68.6675C210.697 68.9146 210.582 69.144 210.399 69.3121C210.216 69.4802 209.978 69.5753 209.729 69.5794C209.613 69.5811 209.497 69.558 209.39 69.5117C209.283 69.4654 209.187 69.3968 209.108 69.3106C209.03 69.2244 208.97 69.1225 208.934 69.0117C208.898 68.9008 208.885 68.7835 208.898 68.6675C208.923 68.421 209.038 68.1925 209.221 68.0256C209.404 67.8587 209.642 67.7651 209.89 67.7628C210.006 67.7601 210.122 67.7822 210.229 67.8277C210.336 67.8732 210.432 67.941 210.511 68.0267C210.59 68.1123 210.649 68.2138 210.685 68.3243C210.722 68.4348 210.734 68.5518 210.722 68.6675Z" fill="white"/>
<path d="M210.481 71.396C210.458 71.6425 210.344 71.8718 210.163 72.0401C209.981 72.2083 209.744 72.3037 209.496 72.308C209.379 72.3097 209.264 72.2866 209.157 72.2402C209.049 72.1939 208.953 72.1254 208.875 72.0392C208.796 71.953 208.737 71.8511 208.7 71.7402C208.664 71.6293 208.652 71.512 208.664 71.396C208.688 71.1495 208.801 70.9202 208.983 70.7519C209.164 70.5837 209.402 70.4883 209.649 70.484C209.766 70.4823 209.881 70.5054 209.989 70.5518C210.096 70.5981 210.192 70.6666 210.27 70.7528C210.349 70.839 210.408 70.9409 210.445 71.0518C210.481 71.1627 210.493 71.28 210.481 71.396Z" fill="white"/>
<path d="M210.247 74.1173C210.222 74.3645 210.107 74.5938 209.925 74.762C209.742 74.9301 209.503 75.0252 209.255 75.0293C209.138 75.031 209.023 75.0079 208.916 74.9615C208.809 74.9152 208.713 74.8467 208.634 74.7605C208.555 74.6743 208.496 74.5724 208.46 74.4615C208.423 74.3506 208.411 74.2333 208.423 74.1173C208.448 73.8702 208.563 73.6408 208.746 73.4727C208.929 73.3046 209.167 73.2094 209.416 73.2053C209.532 73.2037 209.648 73.2267 209.755 73.2731C209.862 73.3194 209.958 73.3879 210.037 73.4741C210.115 73.5603 210.175 73.6622 210.211 73.7731C210.247 73.884 210.26 74.0013 210.247 74.1173Z" fill="white"/>
<path d="M202.244 171.944H135.466C135.165 171.95 134.867 171.892 134.59 171.773C134.313 171.654 134.065 171.478 133.862 171.255C133.659 171.033 133.506 170.77 133.412 170.483C133.319 170.197 133.288 169.894 133.322 169.595L136.43 134.466C136.494 133.83 136.789 133.239 137.26 132.806C137.73 132.373 138.344 132.128 138.983 132.117H205.739C206.039 132.112 206.337 132.171 206.613 132.29C206.889 132.41 207.136 132.586 207.338 132.808C207.541 133.031 207.693 133.294 207.786 133.579C207.879 133.865 207.91 134.167 207.876 134.466L204.805 169.595C204.741 170.232 204.444 170.824 203.972 171.257C203.5 171.69 202.885 171.935 202.244 171.944Z" fill="white"/>
<path d="M153.837 179.283H133.044C132.971 179.285 132.899 179.27 132.832 179.242C132.765 179.213 132.705 179.17 132.656 179.116C132.607 179.062 132.57 178.999 132.547 178.929C132.525 178.86 132.518 178.786 132.526 178.714C132.541 178.558 132.612 178.414 132.726 178.307C132.841 178.201 132.99 178.141 133.146 178.138H153.939C154.013 178.136 154.086 178.15 154.153 178.179C154.221 178.209 154.281 178.252 154.33 178.307C154.38 178.362 154.416 178.426 154.438 178.497C154.46 178.567 154.467 178.641 154.457 178.714C154.441 178.868 154.369 179.011 154.255 179.116C154.141 179.221 153.992 179.28 153.837 179.283Z" fill="white"/>
<path d="M179.824 179.283H157.507C157.433 179.286 157.36 179.272 157.292 179.244C157.224 179.216 157.163 179.173 157.114 179.119C157.064 179.065 157.026 179.001 157.003 178.931C156.981 178.861 156.973 178.787 156.982 178.714C156.996 178.558 157.067 178.414 157.181 178.307C157.296 178.201 157.445 178.141 157.602 178.138H179.927C180 178.136 180.073 178.15 180.141 178.179C180.208 178.209 180.269 178.252 180.318 178.307C180.367 178.362 180.404 178.426 180.426 178.497C180.448 178.567 180.454 178.641 180.445 178.714C180.429 178.868 180.357 179.011 180.242 179.116C180.128 179.221 179.979 179.28 179.824 179.283Z" fill="white"/>
<path d="M146.644 184.355H132.607C132.533 184.357 132.459 184.343 132.392 184.313C132.324 184.284 132.263 184.241 132.213 184.186C132.163 184.132 132.126 184.067 132.103 183.997C132.08 183.927 132.073 183.852 132.081 183.779C132.097 183.624 132.169 183.48 132.283 183.374C132.397 183.268 132.546 183.207 132.701 183.203H146.768C146.841 183.202 146.914 183.217 146.981 183.247C147.048 183.276 147.109 183.32 147.158 183.374C147.208 183.428 147.245 183.492 147.269 183.562C147.292 183.632 147.3 183.706 147.293 183.779C147.276 183.939 147.201 184.087 147.08 184.194C146.96 184.3 146.804 184.358 146.644 184.355Z" fill="white"/>
<path d="M173.375 184.355H150.335C150.261 184.357 150.188 184.343 150.12 184.313C150.052 184.284 149.991 184.241 149.942 184.186C149.892 184.132 149.854 184.067 149.832 183.997C149.809 183.927 149.801 183.852 149.81 183.779C149.826 183.623 149.898 183.478 150.014 183.372C150.13 183.266 150.28 183.205 150.437 183.203H173.47C173.544 183.201 173.617 183.215 173.685 183.245C173.753 183.274 173.813 183.317 173.863 183.372C173.913 183.426 173.95 183.491 173.973 183.561C173.996 183.631 174.003 183.706 173.995 183.779C173.981 183.935 173.909 184.079 173.795 184.186C173.681 184.292 173.531 184.352 173.375 184.355Z" fill="white"/>
<path d="M169.654 189.417H132.162C132.088 189.42 132.015 189.406 131.947 189.378C131.879 189.35 131.818 189.307 131.768 189.253C131.719 189.199 131.681 189.135 131.658 189.065C131.635 188.995 131.628 188.921 131.636 188.848C131.652 188.692 131.725 188.547 131.841 188.441C131.956 188.335 132.107 188.275 132.264 188.272H169.756C169.83 188.271 169.903 188.287 169.97 188.316C170.037 188.346 170.098 188.389 170.147 188.443C170.197 188.498 170.234 188.562 170.257 188.631C170.281 188.701 170.289 188.775 170.282 188.848C170.264 189.003 170.191 189.146 170.075 189.251C169.96 189.356 169.81 189.415 169.654 189.417Z" fill="white"/>
<path d="M175.827 189.417H173.353C173.28 189.42 173.207 189.407 173.139 189.378C173.071 189.35 173.01 189.307 172.96 189.253C172.91 189.199 172.873 189.135 172.85 189.065C172.827 188.995 172.82 188.921 172.828 188.848C172.842 188.693 172.913 188.548 173.028 188.442C173.142 188.335 173.292 188.275 173.448 188.272H175.929C176.002 188.27 176.075 188.285 176.143 188.314C176.21 188.343 176.271 188.386 176.32 188.441C176.369 188.496 176.406 188.561 176.428 188.631C176.45 188.701 176.456 188.775 176.447 188.848C176.431 189.003 176.359 189.146 176.244 189.25C176.13 189.355 175.982 189.415 175.827 189.417Z" fill="white"/>
<path d="M149.219 194.488H131.709C131.636 194.488 131.563 194.473 131.496 194.443C131.428 194.414 131.368 194.37 131.318 194.316C131.269 194.262 131.231 194.198 131.208 194.128C131.185 194.058 131.177 193.984 131.184 193.911C131.2 193.755 131.273 193.61 131.388 193.504C131.504 193.398 131.654 193.338 131.811 193.335H149.321C149.395 193.333 149.468 193.348 149.536 193.377C149.604 193.406 149.665 193.449 149.714 193.504C149.764 193.558 149.802 193.623 149.824 193.693C149.847 193.764 149.855 193.838 149.846 193.911C149.83 194.067 149.758 194.212 149.642 194.318C149.526 194.425 149.376 194.485 149.219 194.488Z" fill="white"/>
<path d="M174.688 194.488H152.888C152.815 194.488 152.742 194.473 152.675 194.443C152.608 194.414 152.547 194.37 152.498 194.316C152.448 194.262 152.411 194.198 152.388 194.128C152.364 194.058 152.356 193.984 152.363 193.911C152.379 193.755 152.452 193.61 152.568 193.504C152.683 193.398 152.834 193.338 152.991 193.335H174.783C174.857 193.333 174.93 193.348 174.998 193.377C175.066 193.406 175.127 193.449 175.176 193.504C175.226 193.558 175.264 193.623 175.286 193.693C175.309 193.764 175.317 193.838 175.308 193.911C175.292 194.066 175.221 194.21 175.107 194.316C174.993 194.422 174.844 194.483 174.688 194.488Z" fill="white"/>
<path d="M152.83 199.552H131.271C131.198 199.553 131.125 199.539 131.057 199.51C130.99 199.481 130.929 199.437 130.88 199.383C130.831 199.328 130.794 199.263 130.772 199.193C130.75 199.123 130.744 199.048 130.753 198.975C130.769 198.821 130.841 198.678 130.956 198.573C131.07 198.469 131.219 198.409 131.374 198.406H152.925C152.999 198.404 153.072 198.417 153.14 198.445C153.207 198.474 153.268 198.516 153.318 198.57C153.368 198.624 153.406 198.689 153.429 198.758C153.451 198.828 153.459 198.902 153.45 198.975C153.436 199.131 153.365 199.276 153.25 199.382C153.136 199.488 152.986 199.549 152.83 199.552Z" fill="white"/>
<path d="M173.857 199.552H156.493C156.419 199.553 156.346 199.539 156.279 199.51C156.211 199.481 156.151 199.437 156.101 199.383C156.052 199.328 156.015 199.263 155.993 199.193C155.972 199.123 155.965 199.048 155.975 198.975C155.991 198.821 156.063 198.678 156.177 198.573C156.291 198.469 156.44 198.409 156.595 198.406H173.959C174.032 198.404 174.105 198.417 174.173 198.445C174.241 198.474 174.302 198.516 174.352 198.57C174.402 198.624 174.439 198.689 174.462 198.758C174.485 198.828 174.492 198.902 174.484 198.975C174.468 199.132 174.395 199.276 174.28 199.383C174.164 199.489 174.013 199.549 173.857 199.552Z" fill="white"/>
<path d="M205.841 118.249C205.777 118.322 205.7 118.381 205.614 118.424C205.527 118.467 205.433 118.492 205.337 118.498C205.24 118.504 205.144 118.491 205.052 118.46C204.961 118.428 204.877 118.379 204.805 118.314L174.943 89.8174C174.808 89.6807 174.731 89.4958 174.731 89.3031C174.731 89.1103 174.808 88.9254 174.943 88.7887C175.007 88.7159 175.084 88.6563 175.171 88.6136C175.257 88.5708 175.351 88.5456 175.448 88.5395C175.544 88.5334 175.641 88.5465 175.732 88.578C175.823 88.6095 175.907 88.6588 175.979 88.7231L205.841 117.22C205.977 117.357 206.053 117.542 206.053 117.734C206.053 117.927 205.977 118.112 205.841 118.249Z" fill="#E2231C"/>
<path d="M172.303 118.24C172.243 118.163 172.2 118.074 172.175 117.98C172.151 117.885 172.146 117.786 172.16 117.69C172.174 117.593 172.208 117.5 172.259 117.417C172.309 117.334 172.376 117.261 172.456 117.204L187.689 104.751C187.834 104.625 188.022 104.562 188.213 104.574C188.404 104.586 188.583 104.673 188.711 104.816C188.769 104.893 188.811 104.982 188.835 105.075C188.859 105.169 188.864 105.267 188.849 105.363C188.835 105.458 188.802 105.55 188.752 105.633C188.702 105.716 188.636 105.788 188.557 105.845L173.324 118.306C173.179 118.431 172.991 118.495 172.8 118.482C172.609 118.47 172.43 118.383 172.303 118.24Z" fill="#E2231C"/>
<path d="M191.986 102.14C191.928 102.063 191.886 101.975 191.862 101.881C191.838 101.787 191.833 101.689 191.847 101.594C191.862 101.498 191.895 101.406 191.945 101.323C191.995 101.24 192.061 101.168 192.14 101.111L207.402 88.6358C207.547 88.5106 207.735 88.4472 207.926 88.4595C208.117 88.4718 208.296 88.5587 208.424 88.7015C208.482 88.7788 208.524 88.8669 208.548 88.9608C208.572 89.0546 208.577 89.1522 208.562 89.2479C208.548 89.3437 208.515 89.4356 208.465 89.5184C208.415 89.6012 208.349 89.6732 208.27 89.7302L193.008 102.206C192.863 102.331 192.675 102.394 192.484 102.382C192.292 102.37 192.114 102.283 191.986 102.14Z" fill="#E2231C"/>
<g opacity="0.7">
<path d="M205.841 118.249C205.777 118.322 205.7 118.381 205.614 118.424C205.527 118.467 205.433 118.492 205.337 118.498C205.24 118.504 205.144 118.491 205.052 118.46C204.961 118.428 204.877 118.379 204.805 118.315L174.943 89.8177C174.808 89.681 174.731 89.4961 174.731 89.3034C174.731 89.1106 174.808 88.9257 174.943 88.789C175.007 88.7162 175.084 88.6567 175.171 88.6139C175.257 88.5711 175.351 88.5459 175.448 88.5398C175.544 88.5337 175.641 88.5468 175.732 88.5783C175.823 88.6098 175.907 88.6591 175.979 88.7234L205.841 117.22C205.977 117.357 206.053 117.542 206.053 117.735C206.053 117.927 205.977 118.112 205.841 118.249Z" fill="white"/>
</g>
<g opacity="0.7">
<path d="M172.303 118.24C172.243 118.163 172.2 118.074 172.175 117.98C172.151 117.885 172.146 117.786 172.16 117.69C172.174 117.593 172.208 117.5 172.259 117.417C172.309 117.334 172.376 117.261 172.456 117.204L187.689 104.751C187.834 104.625 188.022 104.562 188.213 104.574C188.404 104.586 188.583 104.673 188.711 104.816C188.769 104.893 188.811 104.982 188.835 105.075C188.859 105.169 188.864 105.267 188.849 105.363C188.835 105.458 188.802 105.55 188.752 105.633C188.702 105.716 188.636 105.788 188.557 105.845L173.324 118.306C173.179 118.431 172.991 118.495 172.8 118.482C172.609 118.47 172.43 118.383 172.303 118.24Z" fill="white"/>
</g>
<g opacity="0.7">
<path d="M191.986 102.141C191.928 102.063 191.886 101.975 191.862 101.881C191.838 101.787 191.833 101.69 191.847 101.594C191.862 101.498 191.895 101.406 191.945 101.324C191.995 101.241 192.061 101.169 192.14 101.112L207.402 88.6362C207.547 88.5109 207.735 88.4476 207.926 88.4599C208.117 88.4722 208.296 88.5591 208.424 88.7019C208.482 88.7792 208.524 88.8673 208.548 88.9611C208.572 89.0549 208.577 89.1526 208.562 89.2483C208.548 89.344 208.515 89.436 208.465 89.5188C208.415 89.6016 208.349 89.6736 208.27 89.7306L193.008 102.206C192.863 102.331 192.675 102.395 192.484 102.383C192.292 102.37 192.114 102.283 191.986 102.141Z" fill="white"/>
</g>
<path d="M120.919 43.657H111.435C110.516 43.6609 109.637 44.0285 108.988 44.6793C108.34 45.3302 107.976 46.2113 107.976 47.1298V56.6142C107.976 57.5352 108.342 58.4185 108.994 59.0698C109.645 59.721 110.528 60.0869 111.449 60.0869H120.934C121.855 60.0869 122.738 59.721 123.389 59.0698C124.04 58.4185 124.406 57.5352 124.406 56.6142V47.1298C124.406 46.6725 124.316 46.2197 124.141 45.7974C123.965 45.3751 123.708 44.9917 123.384 44.669C123.06 44.3463 122.675 44.0908 122.252 43.9172C121.829 43.7435 121.376 43.6551 120.919 43.657ZM116.199 47.013C117.621 47.013 118.387 48.1731 118.387 49.5957C118.387 51.0184 117.621 52.1784 116.199 52.1784C114.776 52.1784 114.01 51.0257 114.01 49.5957C114.01 48.1658 114.769 47.013 116.199 47.013ZM121.897 56.6944H110.493C110.447 56.6945 110.402 56.6856 110.359 56.668C110.317 56.6505 110.278 56.6248 110.245 56.5923L110.975 54.6006C111.203 53.9724 111.618 53.4297 112.165 53.0459C112.712 52.6622 113.364 52.4561 114.032 52.4556H118.344C119.013 52.4556 119.666 52.6614 120.214 53.0451C120.762 53.4288 121.179 53.9719 121.408 54.6006L122.137 56.5923C122.106 56.6246 122.069 56.6502 122.027 56.6678C121.986 56.6853 121.942 56.6944 121.897 56.6944Z" fill="#E2231C"/>
<path opacity="0.7" d="M120.919 43.657H111.435C110.516 43.6609 109.637 44.0285 108.988 44.6793C108.34 45.3302 107.976 46.2113 107.976 47.1298V56.6142C107.976 57.5352 108.342 58.4185 108.994 59.0698C109.645 59.721 110.528 60.0869 111.449 60.0869H120.934C121.855 60.0869 122.738 59.721 123.389 59.0698C124.04 58.4185 124.406 57.5352 124.406 56.6142V47.1298C124.406 46.6725 124.316 46.2197 124.141 45.7974C123.965 45.3751 123.708 44.9917 123.384 44.669C123.06 44.3463 122.675 44.0908 122.252 43.9172C121.829 43.7435 121.376 43.6551 120.919 43.657ZM116.199 47.013C117.621 47.013 118.387 48.1731 118.387 49.5957C118.387 51.0184 117.621 52.1784 116.199 52.1784C114.776 52.1784 114.01 51.0257 114.01 49.5957C114.01 48.1658 114.769 47.013 116.199 47.013ZM121.897 56.6944H110.493C110.447 56.6945 110.402 56.6856 110.359 56.668C110.317 56.6505 110.278 56.6248 110.245 56.5923L110.975 54.6006C111.203 53.9724 111.618 53.4297 112.165 53.0459C112.712 52.6622 113.364 52.4561 114.032 52.4556H118.344C119.013 52.4556 119.666 52.6614 120.214 53.0451C120.762 53.4288 121.179 53.9719 121.408 54.6006L122.137 56.5923C122.106 56.6246 122.069 56.6502 122.027 56.6678C121.986 56.6853 121.942 56.6944 121.897 56.6944Z" fill="white"/>
<path d="M87.3003 82.5276H80.1214C79.5076 82.5266 78.8996 82.6467 78.3323 82.8809C77.7649 83.1151 77.2493 83.4589 76.815 83.8926C76.3806 84.3263 76.0361 84.8413 75.8009 85.4083C75.5658 85.9753 75.4448 86.5831 75.4448 87.1968V94.3758C75.4448 95.6161 75.9375 96.8056 76.8146 97.6826C77.6916 98.5596 78.8811 99.0523 80.1214 99.0523H87.3003C87.9141 99.0523 88.5219 98.9313 89.0889 98.6962C89.6559 98.4611 90.1709 98.1165 90.6046 97.6822C91.0383 97.2478 91.382 96.7322 91.6163 96.1649C91.8505 95.5975 91.9706 94.9896 91.9696 94.3758V87.1968C91.9706 86.5834 91.8504 85.9758 91.6161 85.4089C91.3818 84.8419 91.0379 84.3268 90.6042 83.893C90.1704 83.4593 89.6553 83.1154 89.0883 82.8811C88.5214 82.6468 87.9138 82.5266 87.3003 82.5276ZM83.7109 94.7041C83.7109 94.7041 80.7926 91.5013 80.7926 89.8671C80.7926 89.0844 81.1035 88.3338 81.6569 87.7803C82.2104 87.2269 82.961 86.916 83.7437 86.916C84.5264 86.916 85.277 87.2269 85.8304 87.7803C86.3839 88.3338 86.6948 89.0844 86.6948 89.8671C86.6583 91.5013 83.7109 94.7041 83.7109 94.7041Z" fill="#E2231C"/>
<path d="M83.711 88.5244C83.4434 88.523 83.1815 88.6011 82.9584 88.7489C82.7353 88.8966 82.5612 89.1073 82.4581 89.3542C82.3551 89.6012 82.3277 89.8732 82.3796 90.1357C82.4314 90.3981 82.5601 90.6393 82.7493 90.8285C82.9385 91.0177 83.1797 91.1464 83.4422 91.1982C83.7047 91.2501 83.9767 91.2227 84.2236 91.1197C84.4705 91.0166 84.6812 90.8425 84.829 90.6194C84.9767 90.3964 85.0548 90.1344 85.0534 89.8668C85.0534 89.5108 84.912 89.1694 84.6602 88.9176C84.4085 88.6659 84.067 88.5244 83.711 88.5244Z" fill="#E2231C"/>
<g opacity="0.7">
<path d="M87.3003 82.5276H80.1214C79.5076 82.5266 78.8996 82.6467 78.3323 82.8809C77.7649 83.1151 77.2493 83.4589 76.815 83.8926C76.3806 84.3263 76.0361 84.8413 75.8009 85.4083C75.5658 85.9753 75.4448 86.5831 75.4448 87.1968V94.3758C75.4448 95.6161 75.9375 96.8056 76.8146 97.6826C77.6916 98.5596 78.8811 99.0523 80.1214 99.0523H87.3003C87.9141 99.0523 88.5219 98.9313 89.0889 98.6962C89.6559 98.4611 90.1709 98.1165 90.6046 97.6822C91.0383 97.2478 91.382 96.7322 91.6163 96.1649C91.8505 95.5975 91.9706 94.9896 91.9696 94.3758V87.1968C91.9706 86.5834 91.8504 85.9758 91.6161 85.4089C91.3818 84.8419 91.0379 84.3268 90.6042 83.893C90.1704 83.4593 89.6553 83.1154 89.0883 82.8811C88.5214 82.6468 87.9138 82.5266 87.3003 82.5276ZM83.7109 94.7041C83.7109 94.7041 80.7926 91.5013 80.7926 89.8671C80.7926 89.0844 81.1035 88.3338 81.6569 87.7803C82.2104 87.2269 82.961 86.916 83.7437 86.916C84.5264 86.916 85.277 87.2269 85.8304 87.7803C86.3839 88.3338 86.6948 89.0844 86.6948 89.8671C86.6583 91.5013 83.7109 94.7041 83.7109 94.7041Z" fill="white"/>
<path d="M83.711 88.5243C83.4434 88.5229 83.1815 88.601 82.9584 88.7487C82.7353 88.8965 82.5612 89.1072 82.4581 89.3541C82.3551 89.601 82.3277 89.873 82.3796 90.1355C82.4314 90.398 82.5601 90.6392 82.7493 90.8284C82.9385 91.0176 83.1797 91.1463 83.4422 91.1981C83.7047 91.25 83.9767 91.2226 84.2236 91.1196C84.4705 91.0165 84.6812 90.8424 84.829 90.6193C84.9767 90.3962 85.0548 90.1343 85.0534 89.8667C85.0534 89.5107 84.912 89.1692 84.6602 88.9175C84.4085 88.6657 84.067 88.5243 83.711 88.5243Z" fill="white"/>
</g>
<path d="M244.917 62.1796L249.725 59.0717L244.917 55.9564V62.1796Z" fill="#E2231C"/>
<path d="M251.111 50.5876H241.948C240.912 50.5876 239.92 50.9988 239.188 51.7308C238.456 52.4628 238.044 53.4556 238.044 54.4908V63.6542C238.046 64.6888 238.458 65.6805 239.19 66.412C239.921 67.1436 240.913 67.5555 241.948 67.5574H251.111C252.146 67.5574 253.139 67.1461 253.871 66.4142C254.603 65.6822 255.014 64.6894 255.014 63.6542V54.4908C255.015 53.9779 254.915 53.47 254.719 52.996C254.523 52.522 254.236 52.0913 253.873 51.7287C253.51 51.366 253.08 51.0786 252.606 50.8827C252.132 50.6869 251.624 50.5866 251.111 50.5876ZM246.529 65.179C245.321 65.179 244.14 64.8206 243.136 64.1493C242.132 63.478 241.349 62.5239 240.887 61.4077C240.425 60.2914 240.304 59.0632 240.541 57.8785C240.777 56.6937 241.359 55.6057 242.214 54.752C243.069 53.8982 244.157 53.3172 245.342 53.0824C246.527 52.8476 247.755 52.9696 248.871 53.4329C249.987 53.8962 250.94 54.68 251.61 55.6852C252.28 56.6904 252.637 57.8717 252.636 59.0798C252.635 59.8807 252.476 60.6737 252.169 61.4133C251.861 62.1529 251.411 62.8247 250.844 63.3904C250.277 63.9561 249.604 64.4046 248.864 64.7102C248.123 65.0158 247.33 65.1726 246.529 65.1717V65.179Z" fill="#E2231C"/>
<g opacity="0.7">
<path d="M244.917 62.18L249.725 59.072L244.917 55.9567V62.18Z" fill="white"/>
<path d="M251.111 50.5879H241.948C240.912 50.5879 239.92 50.9991 239.188 51.7311C238.456 52.4631 238.044 53.4559 238.044 54.4911V63.6545C238.046 64.6891 238.458 65.6808 239.19 66.4123C239.921 67.1439 240.913 67.5558 241.948 67.5577H251.111C252.146 67.5577 253.139 67.1465 253.871 66.4145C254.603 65.6825 255.014 64.6897 255.014 63.6545V54.4911C255.015 53.9783 254.915 53.4703 254.719 52.9963C254.523 52.5223 254.236 52.0916 253.873 51.729C253.51 51.3663 253.08 51.0789 252.606 50.8831C252.132 50.6872 251.624 50.5869 251.111 50.5879ZM246.529 65.1793C245.321 65.1793 244.14 64.821 243.136 64.1496C242.132 63.4783 241.349 62.5242 240.887 61.408C240.425 60.2917 240.304 59.0635 240.541 57.8788C240.777 56.694 241.359 55.606 242.214 54.7523C243.069 53.8985 244.157 53.3175 245.342 53.0827C246.527 52.8479 247.755 52.9699 248.871 53.4332C249.987 53.8965 250.94 54.6803 251.61 55.6855C252.28 56.6907 252.637 57.872 252.636 59.0801C252.635 59.881 252.476 60.674 252.169 61.4136C251.861 62.1532 251.411 62.8251 250.844 63.3907C250.277 63.9564 249.604 64.4049 248.864 64.7105C248.123 65.0161 247.33 65.1729 246.529 65.172V65.1793Z" fill="white"/>
</g>
<path d="M260.106 85.7315C260.106 85.5418 260.106 85.3521 260.106 85.1697L261.208 84.5569C261.128 84.0352 260.991 83.5239 260.799 83.0321H259.544C259.385 82.6896 259.194 82.3623 258.975 82.0544L259.625 80.982C259.292 80.5703 258.918 80.1938 258.508 79.8584L257.429 80.5078C257.122 80.2927 256.797 80.1047 256.458 79.946V78.6838C255.965 78.4974 255.454 78.3605 254.934 78.2753L254.321 79.3769C254.138 79.3769 253.949 79.3769 253.759 79.3769C253.569 79.3769 253.387 79.3769 253.197 79.3769L252.584 78.2753C252.064 78.3623 251.554 78.4991 251.06 78.6838V79.946C250.72 80.1031 250.395 80.2911 250.089 80.5078L249.009 79.8584C248.596 80.1917 248.219 80.5684 247.886 80.982L248.535 82.0544C248.321 82.3642 248.133 82.6912 247.973 83.0321H246.719C246.528 83.5248 246.389 84.0357 246.303 84.5569L247.404 85.1697C247.404 85.3521 247.404 85.5418 247.404 85.7315C247.404 85.9212 247.404 86.1108 247.404 86.2932L246.303 86.9061C246.388 87.4274 246.527 87.9385 246.719 88.4309H247.973C248.133 88.7717 248.321 89.0987 248.535 89.4085L247.886 90.4883C248.221 90.8978 248.598 91.2718 249.009 91.6045L250.089 90.9552C250.393 91.1745 250.718 91.3627 251.06 91.517V92.7791C251.552 92.9671 252.063 93.104 252.584 93.1877L253.197 92.086C253.387 92.086 253.569 92.086 253.759 92.086C253.949 92.086 254.138 92.086 254.321 92.086L254.934 93.1877C255.455 93.1059 255.966 92.969 256.458 92.7791V91.517C256.799 91.361 257.124 91.1729 257.429 90.9552L258.508 91.6045C258.916 91.2698 259.29 90.8959 259.625 90.4883L258.975 89.4085C259.194 89.1006 259.385 88.7734 259.544 88.4309H260.799C260.992 87.9393 261.129 87.4279 261.208 86.9061L260.106 86.2932C260.092 86.089 260.106 85.9212 260.106 85.7315ZM253.744 90.0505C252.89 90.0505 252.055 89.7972 251.345 89.3226C250.635 88.848 250.081 88.1735 249.754 87.3843C249.427 86.5951 249.342 85.7267 249.508 84.8889C249.675 84.0511 250.086 83.2815 250.69 82.6774C251.294 82.0734 252.064 81.6621 252.902 81.4954C253.74 81.3288 254.608 81.4143 255.397 81.7412C256.186 82.0681 256.861 82.6217 257.336 83.3319C257.81 84.0422 258.063 84.8772 258.063 85.7315C258.063 86.877 257.608 87.9755 256.798 88.7855C255.988 89.5955 254.89 90.0505 253.744 90.0505Z" fill="#E2231C"/>
<path opacity="0.7" d="M260.106 85.7315C260.106 85.5418 260.106 85.3521 260.106 85.1697L261.208 84.5569C261.128 84.0352 260.991 83.5239 260.799 83.0321H259.544C259.385 82.6896 259.194 82.3623 258.975 82.0544L259.625 80.982C259.292 80.5703 258.918 80.1938 258.508 79.8584L257.429 80.5078C257.122 80.2927 256.797 80.1047 256.458 79.946V78.6838C255.965 78.4974 255.454 78.3605 254.934 78.2753L254.321 79.3769C254.138 79.3769 253.949 79.3769 253.759 79.3769C253.569 79.3769 253.387 79.3769 253.197 79.3769L252.584 78.2753C252.064 78.3623 251.554 78.4991 251.06 78.6838V79.946C250.72 80.1031 250.395 80.2911 250.089 80.5078L249.009 79.8584C248.596 80.1917 248.219 80.5684 247.886 80.982L248.535 82.0544C248.321 82.3642 248.133 82.6912 247.973 83.0321H246.719C246.528 83.5248 246.389 84.0357 246.303 84.5569L247.404 85.1697C247.404 85.3521 247.404 85.5418 247.404 85.7315C247.404 85.9212 247.404 86.1108 247.404 86.2932L246.303 86.9061C246.388 87.4274 246.527 87.9385 246.719 88.4309H247.973C248.133 88.7717 248.321 89.0987 248.535 89.4085L247.886 90.4883C248.221 90.8978 248.598 91.2718 249.009 91.6045L250.089 90.9552C250.393 91.1745 250.718 91.3627 251.06 91.517V92.7791C251.552 92.9671 252.063 93.104 252.584 93.1877L253.197 92.086C253.387 92.086 253.569 92.086 253.759 92.086C253.949 92.086 254.138 92.086 254.321 92.086L254.934 93.1877C255.455 93.1059 255.966 92.969 256.458 92.7791V91.517C256.799 91.361 257.124 91.1729 257.429 90.9552L258.508 91.6045C258.916 91.2698 259.29 90.8959 259.625 90.4883L258.975 89.4085C259.194 89.1006 259.385 88.7734 259.544 88.4309H260.799C260.992 87.9393 261.129 87.4279 261.208 86.9061L260.106 86.2932C260.092 86.089 260.106 85.9212 260.106 85.7315ZM253.744 90.0505C252.89 90.0505 252.055 89.7972 251.345 89.3226C250.635 88.848 250.081 88.1735 249.754 87.3843C249.427 86.5951 249.342 85.7267 249.508 84.8889C249.675 84.0511 250.086 83.2815 250.69 82.6774C251.294 82.0734 252.064 81.6621 252.902 81.4954C253.74 81.3288 254.608 81.4143 255.397 81.7412C256.186 82.0681 256.861 82.6217 257.336 83.3319C257.81 84.0422 258.063 84.8772 258.063 85.7315C258.063 86.877 257.608 87.9755 256.798 88.7855C255.988 89.5955 254.89 90.0505 253.744 90.0505Z" fill="white"/>
<path d="M243.479 107.421C243.479 107.137 243.479 106.86 243.443 106.582L245.092 105.67C244.968 104.887 244.762 104.12 244.479 103.379L242.597 103.416C242.359 102.905 242.076 102.417 241.75 101.957L242.721 100.344C242.224 99.7307 241.664 99.1708 241.05 98.6738L239.438 99.6368C238.976 99.3165 238.488 99.0358 237.978 98.7978V96.9155C237.241 96.6312 236.475 96.4258 235.695 96.3027L234.783 97.9515C234.506 97.9515 234.228 97.9515 233.944 97.9515C233.659 97.9515 233.382 97.9515 233.105 97.9515L232.215 96.3027C231.434 96.4276 230.669 96.633 229.931 96.9155V98.7978C229.422 99.0354 228.934 99.3161 228.472 99.6368L226.896 98.6738C226.28 99.1707 225.718 99.7306 225.218 100.344L226.189 101.957C225.865 102.417 225.585 102.905 225.35 103.416L223.467 103.379C223.181 104.119 222.975 104.887 222.854 105.67L224.503 106.582C224.445 107.14 224.445 107.702 224.503 108.26L222.854 109.18C222.976 109.961 223.181 110.726 223.467 111.463L225.35 111.427C225.583 111.938 225.864 112.427 226.189 112.886L225.218 114.498C225.718 115.112 226.28 115.672 226.896 116.169L228.509 115.206C228.968 115.529 229.457 115.81 229.968 116.045V117.927C230.705 118.213 231.47 118.418 232.251 118.54L233.171 116.891C233.728 116.949 234.291 116.949 234.849 116.891L235.76 118.54C236.542 118.42 237.308 118.215 238.044 117.927V116.045C238.555 115.81 239.043 115.529 239.503 115.206L241.116 116.169C241.729 115.672 242.289 115.112 242.786 114.498L241.816 112.886C242.143 112.427 242.426 111.938 242.662 111.427L244.545 111.463C244.827 110.725 245.032 109.96 245.157 109.18L243.509 108.26C243.465 107.976 243.479 107.706 243.479 107.421ZM233.995 111.171C233.253 111.171 232.528 110.951 231.912 110.539C231.295 110.127 230.814 109.542 230.53 108.856C230.247 108.171 230.172 107.417 230.317 106.69C230.462 105.962 230.819 105.294 231.343 104.77C231.868 104.245 232.536 103.888 233.263 103.743C233.991 103.599 234.745 103.673 235.43 103.957C236.115 104.241 236.701 104.721 237.113 105.338C237.525 105.955 237.745 106.68 237.745 107.421C237.745 107.916 237.647 108.405 237.457 108.861C237.268 109.318 236.989 109.732 236.639 110.081C236.288 110.429 235.872 110.705 235.415 110.892C234.957 111.079 234.467 111.174 233.973 111.171H233.995Z" fill="#E2231C"/>
<path opacity="0.7" d="M243.479 107.421C243.479 107.137 243.479 106.86 243.443 106.582L245.092 105.67C244.968 104.887 244.762 104.12 244.479 103.379L242.597 103.416C242.359 102.905 242.076 102.417 241.75 101.957L242.721 100.344C242.224 99.7307 241.664 99.1708 241.05 98.6738L239.438 99.6368C238.976 99.3165 238.488 99.0358 237.978 98.7978V96.9155C237.241 96.6312 236.475 96.4258 235.695 96.3027L234.783 97.9515C234.506 97.9515 234.228 97.9515 233.944 97.9515C233.659 97.9515 233.382 97.9515 233.105 97.9515L232.215 96.3027C231.434 96.4276 230.669 96.633 229.931 96.9155V98.7978C229.422 99.0354 228.934 99.3161 228.472 99.6368L226.896 98.6738C226.28 99.1707 225.718 99.7306 225.218 100.344L226.189 101.957C225.865 102.417 225.585 102.905 225.35 103.416L223.467 103.379C223.181 104.119 222.975 104.887 222.854 105.67L224.503 106.582C224.445 107.14 224.445 107.702 224.503 108.26L222.854 109.18C222.976 109.961 223.181 110.726 223.467 111.463L225.35 111.427C225.583 111.938 225.864 112.427 226.189 112.886L225.218 114.498C225.718 115.112 226.28 115.672 226.896 116.169L228.509 115.206C228.968 115.529 229.457 115.81 229.968 116.045V117.927C230.705 118.213 231.47 118.418 232.251 118.54L233.171 116.891C233.728 116.949 234.291 116.949 234.849 116.891L235.76 118.54C236.542 118.42 237.308 118.215 238.044 117.927V116.045C238.555 115.81 239.043 115.529 239.503 115.206L241.116 116.169C241.729 115.672 242.289 115.112 242.786 114.498L241.816 112.886C242.143 112.427 242.426 111.938 242.662 111.427L244.545 111.463C244.827 110.725 245.032 109.96 245.157 109.18L243.509 108.26C243.465 107.976 243.479 107.706 243.479 107.421ZM233.995 111.171C233.253 111.171 232.528 110.951 231.912 110.539C231.295 110.127 230.814 109.542 230.53 108.856C230.247 108.171 230.172 107.417 230.317 106.69C230.462 105.962 230.819 105.294 231.343 104.77C231.868 104.245 232.536 103.888 233.263 103.743C233.991 103.599 234.745 103.673 235.43 103.957C236.115 104.241 236.701 104.721 237.113 105.338C237.525 105.955 237.745 106.68 237.745 107.421C237.745 107.916 237.647 108.405 237.457 108.861C237.268 109.318 236.989 109.732 236.639 110.081C236.288 110.429 235.872 110.705 235.415 110.892C234.957 111.079 234.467 111.174 233.973 111.171H233.995Z" fill="white"/>
<path d="M216.683 65.121V68.944L213.035 70.8627C212.893 70.9388 212.775 71.052 212.692 71.1901C212.61 71.3282 212.566 71.4861 212.566 71.647C212.566 71.808 212.61 71.9659 212.692 72.104C212.775 72.2421 212.893 72.3552 213.035 72.4313L216.683 74.3501V78.173C216.683 78.5813 216.845 78.9728 217.134 79.2615C217.423 79.5502 217.814 79.7124 218.222 79.7124H231.274C231.683 79.7124 232.076 79.5505 232.365 79.262C232.655 78.9735 232.819 78.582 232.821 78.173V65.121C232.821 64.7108 232.658 64.3174 232.368 64.0274C232.078 63.7373 231.685 63.5743 231.274 63.5743H218.2C217.795 63.5801 217.408 63.7458 217.124 64.0355C216.839 64.3251 216.681 64.7153 216.683 65.121Z" fill="#E2231C"/>
<g opacity="0.9">
<path d="M221.148 69.1051H228.568C228.81 69.1051 229.041 69.009 229.213 68.8379C229.384 68.6669 229.48 68.435 229.48 68.1931C229.48 67.9512 229.384 67.7193 229.213 67.5482C229.041 67.3772 228.81 67.2811 228.568 67.2811H221.148C220.906 67.2811 220.674 67.3772 220.503 67.5482C220.332 67.7193 220.236 67.9512 220.236 68.1931C220.236 68.435 220.332 68.6669 220.503 68.8379C220.674 69.009 220.906 69.1051 221.148 69.1051Z" fill="white"/>
<path d="M228.568 70.768H221.148C220.906 70.768 220.674 70.8641 220.503 71.0351C220.332 71.2061 220.236 71.4381 220.236 71.68C220.236 71.9218 220.332 72.1538 220.503 72.3248C220.674 72.4958 220.906 72.5919 221.148 72.5919H228.568C228.81 72.5919 229.042 72.4958 229.213 72.3248C229.384 72.1538 229.48 71.9218 229.48 71.68C229.48 71.4381 229.384 71.2061 229.213 71.0351C229.042 70.8641 228.81 70.768 228.568 70.768Z" fill="white"/>
<path d="M228.568 74.1912H221.148C220.906 74.1912 220.674 74.2873 220.503 74.4583C220.332 74.6294 220.236 74.8613 220.236 75.1032C220.236 75.3451 220.332 75.577 220.503 75.748C220.674 75.9191 220.906 76.0151 221.148 76.0151H228.568C228.81 76.0151 229.042 75.9191 229.213 75.748C229.384 75.577 229.48 75.3451 229.48 75.1032C229.48 74.8613 229.384 74.6294 229.213 74.4583C229.042 74.2873 228.81 74.1912 228.568 74.1912Z" fill="white"/>
</g>
<path d="M142.923 59.0944H146.038L147.643 62.1367C147.749 62.335 147.907 62.5009 148.1 62.6166C148.292 62.7322 148.513 62.7933 148.738 62.7933C148.962 62.7933 149.183 62.7322 149.376 62.6166C149.569 62.5009 149.726 62.335 149.832 62.1367L151.437 59.0944H154.552C154.848 59.0944 155.141 59.036 155.414 58.9226C155.687 58.8093 155.935 58.6431 156.144 58.4337C156.353 58.2242 156.518 57.9756 156.63 57.7022C156.743 57.4287 156.8 57.1357 156.799 56.84V45.2326C156.799 44.6366 156.563 44.065 156.141 43.6436C155.72 43.2222 155.148 42.9855 154.552 42.9855H142.923C142.628 42.9845 142.335 43.042 142.062 43.1546C141.789 43.2672 141.541 43.4326 141.332 43.6415C141.123 43.8503 140.958 44.0984 140.845 44.3715C140.732 44.6446 140.675 44.9372 140.676 45.2326V56.9057C140.691 57.4915 140.935 58.0481 141.354 58.457C141.774 58.8659 142.337 59.0946 142.923 59.0944Z" fill="#E2231C"/>
<path opacity="0.9" d="M148.745 46.4663L145.156 48.5675V54.7104H147.826V50.5884H149.672V54.7104H152.342V48.5675L148.745 46.4663Z" fill="white"/>
<path d="M177.87 226.012H175.098L173.31 222.612C173.221 222.447 173.09 222.31 172.929 222.214C172.769 222.118 172.585 222.068 172.398 222.068C172.211 222.068 172.028 222.118 171.867 222.214C171.707 222.31 171.575 222.447 171.486 222.612L169.699 226.012H166.853C166.174 226.012 165.523 226.282 165.043 226.762C164.562 227.242 164.293 227.893 164.293 228.573V239.589C164.293 240.268 164.562 240.92 165.043 241.4C165.523 241.88 166.174 242.15 166.853 242.15H177.87C178.549 242.15 179.2 241.88 179.681 241.4C180.161 240.92 180.431 240.268 180.431 239.589V228.573C180.431 227.893 180.161 227.242 179.681 226.762C179.2 226.282 178.549 226.012 177.87 226.012Z" fill="#E2231C"/>
<path opacity="0.9" d="M173.923 230.221C173.388 229.686 172.711 229.314 171.973 229.149C171.234 228.984 170.464 229.033 169.752 229.291C169.04 229.548 168.416 230.002 167.954 230.601C167.491 231.2 167.208 231.918 167.139 232.672C167.069 233.425 167.216 234.183 167.562 234.856C167.907 235.53 168.438 236.09 169.09 236.473C169.743 236.856 170.492 237.045 171.248 237.018C172.004 236.991 172.737 236.749 173.361 236.32C173.392 236.501 173.475 236.669 173.602 236.802L176.082 239.275C176.25 239.442 176.477 239.536 176.713 239.536C176.95 239.536 177.177 239.442 177.345 239.275C177.512 239.108 177.606 238.881 177.606 238.644C177.606 238.407 177.512 238.18 177.345 238.013L174.871 235.54C174.738 235.408 174.567 235.321 174.383 235.292C174.907 234.525 175.148 233.599 175.064 232.674C174.98 231.748 174.577 230.881 173.923 230.221ZM173.077 235.014C172.686 235.405 172.188 235.671 171.646 235.778C171.104 235.886 170.542 235.83 170.032 235.618C169.522 235.407 169.085 235.049 168.778 234.589C168.472 234.13 168.308 233.59 168.308 233.037C168.308 232.485 168.472 231.945 168.778 231.485C169.085 231.026 169.522 230.668 170.032 230.456C170.542 230.244 171.104 230.189 171.646 230.296C172.188 230.404 172.686 230.67 173.077 231.06C173.336 231.32 173.543 231.628 173.683 231.967C173.824 232.306 173.896 232.67 173.896 233.037C173.896 233.404 173.824 233.768 173.683 234.107C173.543 234.447 173.336 234.755 173.077 235.014Z" fill="white"/>
<path d="M295.688 152.648C295.688 152.648 289.742 167.386 283.92 168.976C278.098 170.566 269.329 169.275 269.329 169.275L266.615 170.005L263.952 169.611H263.857L260.858 169.538C260.75 169.547 260.642 169.525 260.546 169.474C260.45 169.423 260.37 169.346 260.316 169.252C260.263 169.158 260.237 169.05 260.243 168.942C260.248 168.833 260.285 168.729 260.348 168.64L261.42 167.181C261.51 167.061 261.635 166.972 261.778 166.926L264.637 166.007C264.75 165.981 264.867 165.981 264.98 166.007L269.358 166.7C269.358 166.7 281.505 164.708 282.745 163.584C283.986 162.461 287.641 150.678 287.641 150.678L295.688 152.648Z" fill="#EEC1BB"/>
<path opacity="0.1" d="M269.627 166.606L269.343 166.649L264.965 165.956C264.853 165.931 264.735 165.931 264.623 165.956L261.763 166.875C261.62 166.922 261.495 167.011 261.405 167.131L260.333 168.59C260.27 168.678 260.233 168.783 260.228 168.891C260.222 169 260.248 169.107 260.302 169.202C260.355 169.296 260.435 169.373 260.531 169.424C260.627 169.474 260.735 169.496 260.843 169.487L263.842 169.56H263.937L265.724 169.823C267.249 169.055 268.582 167.955 269.627 166.606Z" fill="#E2231C"/>
<path d="M299.278 138.05C294.958 136.634 288.881 139.881 286.554 153.48L295.52 156.128C295.52 156.128 305.45 140.078 299.278 138.05Z" fill="#E2231C"/>
<path d="M274.151 120.277C274.151 120.729 274.392 121.087 274.683 121.087C274.975 121.087 275.231 120.7 275.209 120.262C275.187 119.825 274.968 119.46 274.676 119.467C274.384 119.474 274.151 119.832 274.151 120.277Z" fill="#263238"/>
<path d="M275.917 120.723L273.794 124.232C273.794 124.232 274.523 125.064 276.121 124.451L275.917 120.723Z" fill="#D4827D"/>
<path d="M276.318 117.461C276.292 117.491 276.259 117.513 276.222 117.526C276.185 117.538 276.145 117.541 276.106 117.534C275.819 117.485 275.524 117.505 275.246 117.592C274.968 117.68 274.715 117.832 274.508 118.037C274.464 118.079 274.405 118.102 274.344 118.102C274.283 118.102 274.225 118.079 274.18 118.037C274.138 117.992 274.115 117.932 274.115 117.87C274.115 117.807 274.138 117.748 274.18 117.702C274.438 117.438 274.756 117.241 275.107 117.128C275.457 117.015 275.831 116.989 276.194 117.053C276.224 117.056 276.254 117.066 276.281 117.081C276.308 117.096 276.332 117.117 276.351 117.141C276.37 117.166 276.384 117.193 276.392 117.223C276.4 117.253 276.402 117.284 276.398 117.315C276.387 117.371 276.359 117.422 276.318 117.461Z" fill="#263238"/>
<path d="M291.318 117.097C291.646 123.028 291.916 125.538 289.297 128.908C285.116 132.52 277.996 133.096 275.895 127.384C274.005 122.277 273.786 113.427 279.273 110.37C280.203 109.852 281.227 109.521 282.285 109.399C283.343 109.276 284.415 109.363 285.44 109.656C286.464 109.948 287.421 110.439 288.256 111.101C289.09 111.763 289.786 112.583 290.304 113.515C290.911 114.616 291.258 115.841 291.318 117.097Z" fill="#EEC1BB"/>
<path d="M283.052 130.077L284.555 138.868L291.88 137.175L289.319 128.202L283.052 130.077Z" fill="#EEC1BB"/>
<path d="M277.777 117.535C278.149 113.682 276.821 118.133 275.041 113.048C273.261 107.963 281.673 103.833 283.015 104.782C284.358 105.73 283.592 107.182 288.042 108.006C289.256 108.199 290.358 108.828 291.143 109.774C291.927 110.721 292.339 111.921 292.303 113.15C292.303 113.15 294.863 114.332 293.951 119.833C293.282 123.357 291.782 126.671 289.574 129.5C289.574 129.5 287.889 127.763 285.197 129.361C284.146 128.675 283.257 127.769 282.592 126.705C281.396 124.911 281.023 123.203 279.382 123.057C275.953 122.744 277.653 118.804 277.777 117.535Z" fill="#263238"/>
<path d="M291.828 113.813C291.828 113.813 295.476 111.581 293.857 109.239C292.237 106.897 293.018 111.821 291.828 113.813Z" fill="#263238"/>
<path d="M278.82 119.774C278.011 120.678 277.594 121.867 277.66 123.079C277.762 124.684 279.338 124.968 280.579 124.093C281.819 123.217 282.993 121.51 282.278 120.102C282.12 119.795 281.887 119.532 281.6 119.339C281.314 119.145 280.983 119.027 280.639 118.994C280.295 118.961 279.948 119.016 279.63 119.152C279.312 119.288 279.034 119.502 278.82 119.774Z" fill="#FFC3BD"/>
<path opacity="0.1" d="M283.19 130.907L283.789 134.394C283.736 133.531 283.855 132.665 284.138 131.848C284.421 131.03 284.862 130.276 285.437 129.63C284.991 129.659 284.556 129.788 284.167 130.01C283.778 130.231 283.444 130.538 283.19 130.907Z" fill="#E2231C"/>
<path d="M231.69 153.582H229.596V165.934H231.69V153.582Z" fill="#E2231C"/>
<path opacity="0.7" d="M231.69 153.582H229.596V165.934H231.69V153.582Z" fill="white"/>
<path d="M217.303 129.055H212.086C211.148 129.055 210.248 129.428 209.584 130.092C208.921 130.755 208.548 131.655 208.548 132.594V156.764C208.548 157.229 208.639 157.689 208.817 158.118C208.995 158.548 209.256 158.938 209.584 159.266C209.913 159.595 210.303 159.856 210.732 160.033C211.161 160.211 211.622 160.303 212.086 160.303H217.303V129.055Z" fill="#E2231C"/>
<path d="M249.207 129.055H213.91C211.956 129.055 210.372 130.64 210.372 132.594V156.757C210.372 158.711 211.956 160.296 213.91 160.296H249.207C251.161 160.296 252.745 158.711 252.745 156.757V132.594C252.745 130.64 251.161 129.055 249.207 129.055Z" fill="#E2231C"/>
<path opacity="0.5" d="M249.207 129.055H213.91C211.956 129.055 210.372 130.64 210.372 132.594V156.757C210.372 158.711 211.956 160.296 213.91 160.296H249.207C251.161 160.296 252.745 158.711 252.745 156.757V132.594C252.745 130.64 251.161 129.055 249.207 129.055Z" fill="white"/>
<path d="M249.207 130.515H213.91C212.762 130.515 211.831 131.445 211.831 132.594V156.757C211.831 157.905 212.762 158.836 213.91 158.836H249.207C250.355 158.836 251.286 157.905 251.286 156.757V132.594C251.286 131.445 250.355 130.515 249.207 130.515Z" fill="#263238"/>
<path d="M223.023 171.113C223.084 169.133 223.914 167.254 225.336 165.875C226.758 164.496 228.662 163.725 230.643 163.725C232.624 163.725 234.528 164.496 235.95 165.875C237.372 167.254 238.202 169.133 238.263 171.113H223.023Z" fill="#E2231C"/>
<path d="M241.006 168.517H225.766V170.99H256.247V169.976L241.006 168.517Z" fill="#E2231C"/>
<path opacity="0.8" d="M241.006 168.517H225.766V170.99H256.247V169.976L241.006 168.517Z" fill="white"/>
<path d="M241.006 170.99H225.766V168.517L241.006 169.976V170.99Z" fill="#E2231C"/>
<path opacity="0.6" d="M241.006 170.99H225.766V168.517L241.006 169.976V170.99Z" fill="white"/>
<path d="M274.61 256.137H243.173C242.546 256.138 241.925 256.015 241.345 255.776C240.765 255.537 240.238 255.185 239.795 254.742C239.351 254.299 238.999 253.773 238.758 253.193C238.518 252.614 238.395 251.993 238.395 251.366V179.08C238.395 178.453 238.518 177.832 238.758 177.252C238.999 176.673 239.351 176.147 239.795 175.704C240.238 175.26 240.765 174.909 241.345 174.67C241.925 174.43 242.546 174.308 243.173 174.309H274.61C274.949 174.309 275.274 174.443 275.513 174.683C275.753 174.922 275.887 175.247 275.887 175.585C275.887 175.924 275.753 176.249 275.513 176.488C275.274 176.728 274.949 176.862 274.61 176.862H243.173C242.883 176.857 242.594 176.91 242.324 177.018C242.055 177.126 241.809 177.286 241.602 177.49C241.395 177.694 241.23 177.937 241.118 178.205C241.006 178.473 240.948 178.76 240.948 179.051V251.337C240.948 251.627 241.006 251.915 241.118 252.183C241.23 252.451 241.395 252.694 241.602 252.897C241.809 253.101 242.055 253.261 242.324 253.369C242.594 253.477 242.883 253.53 243.173 253.525H274.61C274.949 253.525 275.274 253.66 275.513 253.899C275.753 254.139 275.887 254.463 275.887 254.802C275.895 254.975 275.868 255.147 275.807 255.309C275.747 255.47 275.654 255.618 275.534 255.743C275.415 255.868 275.272 255.967 275.113 256.035C274.954 256.102 274.783 256.137 274.61 256.137Z" fill="#263238"/>
<g opacity="0.5">
<path d="M274.61 256.137H243.173C242.546 256.138 241.925 256.015 241.345 255.776C240.765 255.536 240.238 255.185 239.795 254.742C239.351 254.299 238.999 253.772 238.758 253.193C238.518 252.614 238.395 251.993 238.395 251.365V179.08C238.395 178.453 238.518 177.831 238.758 177.252C238.999 176.673 239.351 176.146 239.795 175.703C240.238 175.26 240.765 174.909 241.345 174.669C241.925 174.43 242.546 174.307 243.173 174.308H274.61C274.949 174.308 275.274 174.443 275.513 174.682C275.753 174.922 275.887 175.246 275.887 175.585C275.887 175.924 275.753 176.248 275.513 176.488C275.274 176.727 274.949 176.862 274.61 176.862H243.173C242.883 176.857 242.594 176.91 242.324 177.018C242.055 177.126 241.809 177.286 241.602 177.49C241.395 177.694 241.23 177.937 241.118 178.204C241.006 178.472 240.948 178.76 240.948 179.051V251.336C240.948 251.627 241.006 251.914 241.118 252.182C241.23 252.45 241.395 252.693 241.602 252.897C241.809 253.101 242.055 253.261 242.324 253.369C242.594 253.477 242.883 253.53 243.173 253.525H274.61C274.949 253.525 275.274 253.659 275.513 253.899C275.753 254.138 275.887 254.463 275.887 254.802C275.895 254.974 275.868 255.147 275.807 255.308C275.747 255.47 275.654 255.618 275.534 255.742C275.415 255.867 275.272 255.967 275.113 256.034C274.954 256.102 274.783 256.137 274.61 256.137Z" fill="white"/>
</g>
<path d="M243.049 170.99H198.407V174.733H243.049V170.99Z" fill="#E2231C"/>
<path opacity="0.2" d="M243.049 170.99H198.407V174.733H243.049V170.99Z" fill="white"/>
<path d="M279.083 170.99H241.006V174.733H279.083V170.99Z" fill="#E2231C"/>
<path opacity="0.5" d="M279.083 170.99H241.006V174.733H279.083V170.99Z" fill="white"/>
<path d="M265.732 229.618L267.84 250.936H262.791L257.735 230.173L265.732 229.618Z" fill="#EEC1BB"/>
<path d="M262.317 249.513L268.759 249.622C268.877 249.625 268.99 249.668 269.08 249.743C269.171 249.819 269.232 249.923 269.256 250.038L270.335 255.298C270.381 255.522 270.337 255.754 270.213 255.945C270.088 256.136 269.894 256.271 269.671 256.32H269.489C267.162 256.239 265.112 256.079 262.193 256.028C258.786 255.97 259.64 256.393 255.627 256.385C253.212 256.385 252.818 253.62 253.84 253.504C258.545 252.993 259.056 251.585 260.895 249.936C261.301 249.625 261.807 249.475 262.317 249.513Z" fill="#263238"/>
<path opacity="0.1" d="M267.293 245.37L265.732 229.618L257.735 230.173L261.434 245.37H267.293Z" fill="#E2231C"/>
<path d="M300.299 180.468L279.594 181.197C279.594 181.197 251.702 190.952 250.972 198.444C250.17 206.163 259.538 241.627 259.538 241.627H267.862C267.862 241.627 265.564 215.604 264.688 207.637C263.813 199.67 293.718 202.304 298.913 195.511C303.662 189.281 300.299 180.468 300.299 180.468Z" fill="#263238"/>
<path opacity="0.2" d="M300.299 180.468L279.594 181.197C279.594 181.197 251.702 190.952 250.972 198.444C250.17 206.163 259.538 241.627 259.538 241.627H267.862C267.862 241.627 265.564 215.604 264.688 207.637C263.813 199.67 293.718 202.304 298.913 195.511C303.662 189.281 300.299 180.468 300.299 180.468Z" fill="#E2231C"/>
<path d="M269.248 240.461L269.431 243.401H259.144L258.137 240.461H269.248Z" fill="#E2231C"/>
<path d="M246.464 230.632L247.018 250.936H242.057L239.117 230.632H246.464Z" fill="#EEC1BB"/>
<path d="M241.371 249.513L247.813 249.623C247.931 249.625 248.044 249.668 248.134 249.744C248.225 249.819 248.286 249.923 248.31 250.039L249.389 255.299C249.435 255.522 249.391 255.754 249.267 255.945C249.142 256.137 248.948 256.271 248.725 256.32H248.543C246.216 256.24 244.166 256.079 241.247 256.028C237.833 255.97 238.694 256.393 234.681 256.386C232.266 256.386 231.872 253.621 232.894 253.504C237.599 252.993 238.11 251.585 239.949 249.936C240.354 249.625 240.861 249.474 241.371 249.513Z" fill="#263238"/>
<path opacity="0.1" d="M246.865 245.355L246.464 230.632H239.117L241.255 245.369C242.852 245.377 245.048 245.362 246.865 245.355Z" fill="#E2231C"/>
<path d="M291.296 182.182C291.296 182.182 293.018 197.926 277.004 198.663C260.99 199.4 248.485 201.231 248.12 206.929C247.755 212.627 248.12 241.657 248.12 241.657H239.416C239.416 241.657 236.031 223.301 234.71 211.919C233.426 200.866 231.063 192.848 242.422 189.106C254.482 185.122 275.917 181.445 275.917 181.445L291.354 180.468L291.296 182.182Z" fill="#263238"/>
<path d="M249.404 240.461L248.857 243.401H239.299L238.292 240.461H249.404Z" fill="#E2231C"/>
<path d="M294.747 137.013C294.747 137.013 294.747 133.468 287.575 133.876C279.958 134.314 281.395 137.714 281.395 137.714L294.747 137.013Z" fill="#E2231C"/>
<path opacity="0.3" d="M294.747 137.013C294.747 137.013 294.747 133.468 287.575 133.876C279.958 134.314 281.395 137.714 281.395 137.714L294.747 137.013Z" fill="#E2231C"/>
<path d="M301.429 152.919C300.948 159.93 301.116 181.022 301.116 181.022C301.116 181.022 285.795 182.029 273.771 181.635L272.378 141.063C272.383 140.346 272.605 139.647 273.013 139.057C273.422 138.468 273.999 138.015 274.669 137.758C278.069 136.438 286.05 134.942 298.533 136.584C302.838 137.16 301.999 144.631 301.429 152.919Z" fill="#E2231C"/>
<path d="M274.837 152.648C274.837 152.648 268.884 167.386 263.069 168.976C257.254 170.566 248.477 169.275 248.477 169.275L245.763 170.005L243.108 169.611H243.013L240.007 169.538C239.899 169.547 239.79 169.525 239.694 169.474C239.598 169.423 239.519 169.346 239.465 169.252C239.412 169.158 239.386 169.05 239.391 168.942C239.397 168.833 239.433 168.729 239.496 168.64L240.576 167.181C240.666 167.061 240.791 166.972 240.934 166.926L243.786 166.007C243.902 165.981 244.021 165.981 244.136 166.007L248.514 166.7C248.514 166.7 260.661 164.708 261.894 163.584C263.127 162.461 266.797 150.678 266.797 150.678L274.837 152.648Z" fill="#EEC1BB"/>
<path opacity="0.1" d="M274.684 145.791C274.684 145.791 273.757 146.892 272.633 148.483L273.035 160.229C277.507 158.252 279.28 146.739 279.28 146.739L276.362 144.682L274.684 145.791Z" fill="#E2231C"/>
<path d="M278.426 138.05C274.107 136.634 268.023 139.881 265.695 153.48L274.669 156.099C274.669 156.099 284.598 140.078 278.426 138.05Z" fill="#E2231C"/>
<path d="M284.139 206.302H277.39V226.081H284.139V206.302Z" fill="#263238"/>
<path opacity="0.6" d="M284.139 206.302H277.39V226.081H284.139V206.302Z" fill="white"/>
<path d="M285.182 243.999V218.872H276.34V243.999L256.211 246.793V249.587L280.761 247.493L305.311 249.587V246.793L285.182 243.999Z" fill="#263238"/>
<path d="M255.919 256.438C257.389 256.438 258.582 255.246 258.582 253.775C258.582 252.304 257.389 251.112 255.919 251.112C254.448 251.112 253.256 252.304 253.256 253.775C253.256 255.246 254.448 256.438 255.919 256.438Z" fill="#E2231C"/>
<path d="M305.311 256.438C306.782 256.438 307.974 255.246 307.974 253.775C307.974 252.304 306.782 251.112 305.311 251.112C303.84 251.112 302.648 252.304 302.648 253.775C302.648 255.246 303.84 256.438 305.311 256.438Z" fill="#E2231C"/>
<path d="M280.761 256.438C282.232 256.438 283.424 255.246 283.424 253.775C283.424 252.304 282.232 251.112 280.761 251.112C279.29 251.112 278.098 252.304 278.098 253.775C278.098 255.246 279.29 256.438 280.761 256.438Z" fill="#E2231C"/>
<path opacity="0.3" d="M284.139 206.302H277.39V211.19H284.139V206.302Z" fill="#E2231C"/>
<path d="M307.441 161.469H285.452C283.724 161.471 282.058 162.117 280.78 163.281C279.502 164.446 278.705 166.045 278.543 167.766L276.69 187.632C276.484 189.821 275.498 191.863 273.91 193.385C272.323 194.907 270.241 195.807 268.045 195.92L246.821 196.985C245.579 197.048 244.409 197.587 243.552 198.488C242.696 199.39 242.218 200.586 242.218 201.829V202.274C242.218 203.34 242.641 204.363 243.395 205.117C244.149 205.871 245.172 206.294 246.238 206.294H310.87L314.35 169.086C314.444 168.122 314.335 167.15 314.03 166.23C313.726 165.311 313.232 164.466 312.582 163.749C311.931 163.031 311.138 162.458 310.253 162.066C309.367 161.673 308.41 161.47 307.441 161.469Z" fill="#E2231C"/>
<path opacity="0.3" d="M307.441 161.469H285.452C283.724 161.471 282.058 162.117 280.78 163.281C279.502 164.446 278.705 166.045 278.543 167.766L276.69 187.632C276.484 189.821 275.498 191.863 273.91 193.385C272.323 194.907 270.241 195.807 268.045 195.92L246.821 196.985C245.579 197.048 244.409 197.587 243.552 198.488C242.696 199.39 242.218 200.586 242.218 201.829V202.274C242.218 203.34 242.641 204.363 243.395 205.117C244.149 205.871 245.172 206.294 246.238 206.294H310.87L314.35 169.086C314.444 168.122 314.335 167.15 314.03 166.23C313.726 165.311 313.232 164.466 312.582 163.749C311.931 163.031 311.138 162.458 310.253 162.066C309.367 161.673 308.41 161.47 307.441 161.469Z" fill="white"/>
<path d="M256.969 183.852H259.997V199.691C259.997 200.078 259.843 200.449 259.57 200.723C259.296 200.996 258.925 201.15 258.538 201.15H258.429C258.042 201.15 257.67 200.996 257.397 200.723C257.123 200.449 256.969 200.078 256.969 199.691V183.852Z" fill="#263238"/>
<path opacity="0.2" d="M256.969 183.852H259.997V199.691C259.997 200.078 259.843 200.449 259.57 200.723C259.296 200.996 258.925 201.15 258.538 201.15H258.429C258.042 201.15 257.67 200.996 257.397 200.723C257.123 200.449 256.969 200.078 256.969 199.691V183.852Z" fill="white"/>
<path d="M271.568 179.308H264.834V184.889H271.583C271.961 184.908 272.34 184.85 272.695 184.719C273.051 184.587 273.375 184.385 273.65 184.124C273.925 183.863 274.144 183.549 274.293 183.2C274.443 182.852 274.52 182.477 274.52 182.098C274.52 181.719 274.443 181.344 274.293 180.996C274.144 180.648 273.925 180.334 273.65 180.073C273.375 179.812 273.051 179.609 272.695 179.478C272.34 179.346 271.961 179.288 271.583 179.308H271.568Z" fill="#E2231C"/>
<path opacity="0.5" d="M271.568 179.308H264.834V184.889H271.583C271.961 184.908 272.34 184.85 272.695 184.719C273.051 184.587 273.375 184.385 273.65 184.124C273.925 183.863 274.144 183.549 274.293 183.2C274.443 182.852 274.52 182.477 274.52 182.098C274.52 181.719 274.443 181.344 274.293 180.996C274.144 180.648 273.925 180.334 273.65 180.073C273.375 179.812 273.051 179.609 272.695 179.478C272.34 179.346 271.961 179.288 271.583 179.308H271.568Z" fill="white"/>
<path d="M268.876 179.308H245.289C243.802 179.308 242.597 180.513 242.597 182V182.204C242.597 183.691 243.802 184.897 245.289 184.897H268.876C270.363 184.897 271.568 183.691 271.568 182.204V182C271.568 180.513 270.363 179.308 268.876 179.308Z" fill="#E2231C"/>
<path opacity="0.3" d="M268.876 179.308H245.289C243.802 179.308 242.597 180.513 242.597 182V182.204C242.597 183.691 243.802 184.897 245.289 184.897H268.876C270.363 184.897 271.568 183.691 271.568 182.204V182C271.568 180.513 270.363 179.308 268.876 179.308Z" fill="white"/>
<path d="M312.388 206.302H280.061L283.665 167.803C283.826 166.081 284.624 164.483 285.901 163.318C287.179 162.154 288.845 161.508 290.574 161.506H312.563C313.529 161.507 314.483 161.71 315.367 162.1C316.25 162.491 317.041 163.062 317.692 163.776C318.342 164.49 318.836 165.331 319.142 166.247C319.449 167.163 319.561 168.132 319.472 169.094L316.327 202.756C316.225 203.729 315.765 204.63 315.038 205.285C314.311 205.94 313.366 206.302 312.388 206.302Z" fill="#E2231C"/>
<path opacity="0.5" d="M312.388 206.302H280.061L283.665 167.803C283.826 166.081 284.624 164.483 285.901 163.318C287.179 162.154 288.845 161.508 290.574 161.506H312.563C313.529 161.507 314.483 161.71 315.367 162.1C316.25 162.491 317.041 163.062 317.692 163.776C318.342 164.49 318.836 165.331 319.142 166.247C319.449 167.163 319.561 168.132 319.472 169.094L316.327 202.756C316.225 203.729 315.765 204.63 315.038 205.285C314.311 205.94 313.366 206.302 312.388 206.302Z" fill="white"/>
<path d="M236.87 256.137H205.433C204.805 256.138 204.184 256.015 203.604 255.776C203.025 255.537 202.498 255.185 202.054 254.742C201.61 254.299 201.258 253.773 201.018 253.193C200.778 252.614 200.654 251.993 200.654 251.366V179.08C200.654 178.453 200.778 177.832 201.018 177.252C201.258 176.673 201.61 176.147 202.054 175.704C202.498 175.26 203.025 174.909 203.604 174.67C204.184 174.43 204.805 174.308 205.433 174.309H236.87C237.208 174.309 237.533 174.443 237.773 174.683C238.012 174.922 238.147 175.247 238.147 175.585C238.147 175.924 238.012 176.249 237.773 176.488C237.533 176.728 237.208 176.862 236.87 176.862H205.433C205.142 176.857 204.854 176.91 204.584 177.018C204.314 177.126 204.068 177.286 203.861 177.49C203.654 177.694 203.49 177.937 203.377 178.205C203.265 178.473 203.207 178.76 203.207 179.051V251.337C203.207 251.627 203.265 251.915 203.377 252.183C203.49 252.451 203.654 252.694 203.861 252.897C204.068 253.101 204.314 253.261 204.584 253.369C204.854 253.477 205.142 253.53 205.433 253.525H236.87C237.208 253.525 237.533 253.66 237.773 253.899C238.012 254.139 238.147 254.463 238.147 254.802C238.154 254.975 238.127 255.147 238.067 255.309C238.006 255.47 237.913 255.618 237.794 255.743C237.675 255.868 237.531 255.967 237.372 256.035C237.213 256.102 237.043 256.137 236.87 256.137Z" fill="#263238"/>
<g opacity="0.5">
<path d="M236.87 256.137H205.433C204.805 256.138 204.184 256.015 203.604 255.776C203.025 255.536 202.498 255.185 202.054 254.742C201.61 254.299 201.258 253.772 201.018 253.193C200.778 252.614 200.654 251.993 200.654 251.365V179.08C200.654 178.453 200.778 177.831 201.018 177.252C201.258 176.673 201.61 176.146 202.054 175.703C202.498 175.26 203.025 174.909 203.604 174.669C204.184 174.43 204.805 174.307 205.433 174.308H236.87C237.208 174.308 237.533 174.443 237.773 174.682C238.012 174.922 238.147 175.246 238.147 175.585C238.147 175.924 238.012 176.248 237.773 176.488C237.533 176.727 237.208 176.862 236.87 176.862H205.433C205.142 176.857 204.854 176.91 204.584 177.018C204.314 177.126 204.068 177.286 203.861 177.49C203.654 177.694 203.49 177.937 203.377 178.204C203.265 178.472 203.207 178.76 203.207 179.051V251.336C203.207 251.627 203.265 251.914 203.377 252.182C203.49 252.45 203.654 252.693 203.861 252.897C204.068 253.101 204.314 253.261 204.584 253.369C204.854 253.477 205.142 253.53 205.433 253.525H236.87C237.208 253.525 237.533 253.659 237.773 253.899C238.012 254.138 238.147 254.463 238.147 254.802C238.154 254.974 238.127 255.147 238.067 255.308C238.006 255.47 237.913 255.618 237.794 255.742C237.675 255.867 237.531 255.967 237.372 256.034C237.213 256.102 237.043 256.137 236.87 256.137Z" fill="white"/>
</g>
<path d="M216.092 136.277L213.903 134.817C213.847 134.782 213.801 134.733 213.77 134.675C213.738 134.617 213.721 134.552 213.721 134.486C213.721 134.419 213.738 134.354 213.77 134.296C213.801 134.238 213.847 134.189 213.903 134.154L216.092 132.694C216.172 132.642 216.27 132.623 216.364 132.642C216.459 132.661 216.542 132.717 216.595 132.797C216.646 132.876 216.663 132.973 216.644 133.065C216.625 133.158 216.571 133.239 216.493 133.293L214.676 134.496L216.493 135.7C216.571 135.754 216.625 135.835 216.644 135.928C216.663 136.02 216.646 136.117 216.595 136.196C216.537 136.271 216.453 136.321 216.359 136.336C216.266 136.351 216.17 136.33 216.092 136.277Z" fill="white"/>
<path d="M220.936 136.175C220.892 136.095 220.881 136.002 220.904 135.914C220.927 135.825 220.983 135.749 221.06 135.701L222.877 134.497L221.06 133.272C220.982 133.218 220.928 133.136 220.91 133.043C220.892 132.95 220.912 132.854 220.965 132.775C220.991 132.736 221.024 132.702 221.063 132.676C221.102 132.649 221.146 132.631 221.192 132.621C221.238 132.612 221.286 132.612 221.332 132.62C221.378 132.629 221.422 132.647 221.461 132.673L223.65 134.132C223.706 134.168 223.752 134.217 223.783 134.275C223.815 134.333 223.832 134.398 223.832 134.464C223.832 134.531 223.815 134.596 223.783 134.654C223.752 134.712 223.706 134.761 223.65 134.796L221.461 136.255C221.422 136.286 221.377 136.309 221.329 136.321C221.281 136.334 221.23 136.336 221.181 136.329C221.132 136.321 221.085 136.304 221.043 136.277C221 136.251 220.964 136.216 220.936 136.175Z" fill="white"/>
<path d="M217.937 137.159C217.892 137.145 217.85 137.122 217.814 137.092C217.778 137.061 217.748 137.024 217.726 136.982C217.704 136.94 217.691 136.894 217.687 136.846C217.684 136.799 217.689 136.752 217.704 136.707L219.214 131.935C219.227 131.89 219.25 131.848 219.279 131.812C219.309 131.776 219.346 131.746 219.387 131.724C219.429 131.703 219.474 131.689 219.521 131.686C219.568 131.682 219.615 131.687 219.659 131.702C219.704 131.715 219.746 131.737 219.782 131.767C219.818 131.797 219.848 131.833 219.87 131.875C219.892 131.916 219.905 131.962 219.909 132.009C219.913 132.055 219.907 132.102 219.893 132.147L218.39 136.926C218.376 136.971 218.353 137.013 218.322 137.049C218.292 137.085 218.254 137.115 218.212 137.137C218.17 137.159 218.124 137.172 218.077 137.175C218.03 137.179 217.982 137.174 217.937 137.159Z" fill="white"/>
<path d="M230.326 140.808H214.078C214.028 140.808 213.979 140.798 213.934 140.779C213.888 140.76 213.847 140.732 213.812 140.697C213.778 140.661 213.75 140.62 213.732 140.574C213.714 140.528 213.705 140.478 213.706 140.429C213.705 140.379 213.714 140.33 213.732 140.284C213.75 140.238 213.778 140.196 213.812 140.161C213.847 140.126 213.888 140.098 213.934 140.079C213.979 140.059 214.028 140.05 214.078 140.05H230.326C230.426 140.05 230.523 140.09 230.594 140.161C230.665 140.232 230.705 140.328 230.705 140.429C230.705 140.479 230.695 140.528 230.676 140.574C230.657 140.62 230.629 140.662 230.594 140.697C230.559 140.732 230.517 140.76 230.471 140.779C230.425 140.798 230.375 140.808 230.326 140.808Z" fill="white"/>
<path d="M248.988 140.808H232.733C232.683 140.808 232.634 140.798 232.588 140.779C232.542 140.76 232.5 140.732 232.465 140.697C232.43 140.661 232.402 140.62 232.383 140.574C232.364 140.528 232.354 140.478 232.354 140.428C232.361 140.333 232.404 140.244 232.475 140.179C232.545 140.114 232.637 140.078 232.733 140.078H248.973C249.074 140.078 249.171 140.118 249.242 140.189C249.313 140.261 249.353 140.357 249.353 140.458C249.346 140.551 249.305 140.638 249.237 140.702C249.17 140.767 249.081 140.805 248.988 140.808Z" fill="white"/>
<path d="M223.365 144.148H214.078C214.028 144.148 213.979 144.138 213.934 144.119C213.888 144.1 213.847 144.072 213.812 144.037C213.778 144.001 213.75 143.96 213.732 143.914C213.714 143.868 213.705 143.818 213.706 143.769C213.706 143.67 213.745 143.576 213.815 143.506C213.885 143.436 213.979 143.397 214.078 143.397H223.365C223.465 143.397 223.56 143.436 223.631 143.505C223.702 143.575 223.743 143.67 223.745 143.769C223.745 143.87 223.705 143.966 223.634 144.037C223.563 144.108 223.466 144.148 223.365 144.148Z" fill="white"/>
<path d="M240.992 144.148H225.78C225.731 144.148 225.682 144.138 225.636 144.119C225.591 144.1 225.549 144.072 225.515 144.037C225.48 144.001 225.453 143.96 225.435 143.914C225.416 143.868 225.407 143.818 225.408 143.769C225.408 143.67 225.448 143.576 225.517 143.506C225.587 143.436 225.682 143.397 225.78 143.397H240.992C241.091 143.397 241.185 143.436 241.255 143.506C241.325 143.576 241.364 143.67 241.364 143.769C241.365 143.818 241.356 143.868 241.338 143.914C241.32 143.96 241.292 144.001 241.258 144.037C241.223 144.072 241.182 144.1 241.136 144.119C241.091 144.138 241.042 144.148 240.992 144.148Z" fill="white"/>
<path d="M238.825 147.499H214.078C213.979 147.497 213.884 147.456 213.814 147.385C213.745 147.314 213.706 147.219 213.706 147.119C213.705 147.07 213.714 147.021 213.732 146.975C213.75 146.929 213.778 146.887 213.812 146.852C213.847 146.816 213.888 146.788 213.934 146.769C213.979 146.75 214.028 146.74 214.078 146.74H238.825C238.926 146.74 239.022 146.78 239.093 146.851C239.164 146.922 239.204 147.019 239.204 147.119C239.204 147.22 239.164 147.317 239.093 147.388C239.022 147.459 238.926 147.499 238.825 147.499Z" fill="white"/>
<path d="M246.413 147.499H241.247C241.147 147.499 241.05 147.459 240.979 147.388C240.908 147.317 240.868 147.22 240.868 147.119C240.868 147.019 240.908 146.922 240.979 146.851C241.05 146.78 241.147 146.74 241.247 146.74H246.413C246.513 146.74 246.61 146.78 246.681 146.851C246.752 146.922 246.792 147.019 246.792 147.119C246.792 147.22 246.752 147.317 246.681 147.388C246.61 147.459 246.513 147.499 246.413 147.499Z" fill="white"/>
<path d="M225.634 150.84H214.078C214.028 150.84 213.979 150.83 213.934 150.811C213.888 150.792 213.847 150.764 213.812 150.728C213.778 150.693 213.75 150.651 213.732 150.605C213.714 150.559 213.705 150.51 213.706 150.461C213.705 150.411 213.714 150.362 213.732 150.316C213.75 150.27 213.778 150.228 213.812 150.193C213.847 150.157 213.888 150.129 213.934 150.11C213.979 150.091 214.028 150.081 214.078 150.081H225.634C225.735 150.081 225.831 150.121 225.903 150.192C225.974 150.263 226.014 150.36 226.014 150.461C226.014 150.561 225.974 150.658 225.903 150.729C225.831 150.8 225.735 150.84 225.634 150.84Z" fill="white"/>
<path d="M242.436 150.84H228.056C227.956 150.84 227.859 150.8 227.788 150.729C227.717 150.658 227.677 150.561 227.677 150.461C227.677 150.36 227.717 150.263 227.788 150.192C227.859 150.121 227.956 150.081 228.056 150.081H242.436C242.537 150.081 242.633 150.121 242.705 150.192C242.776 150.263 242.816 150.36 242.816 150.461C242.816 150.561 242.776 150.658 242.705 150.729C242.633 150.8 242.537 150.84 242.436 150.84Z" fill="white"/>
<path d="M230.325 154.18H214.078C214.028 154.18 213.979 154.17 213.934 154.151C213.888 154.132 213.847 154.104 213.812 154.069C213.778 154.033 213.75 153.991 213.732 153.945C213.714 153.899 213.705 153.85 213.706 153.801C213.706 153.702 213.745 153.607 213.815 153.538C213.885 153.468 213.979 153.429 214.078 153.429H230.325C230.375 153.428 230.424 153.437 230.47 153.455C230.516 153.473 230.558 153.5 230.593 153.535C230.629 153.57 230.657 153.611 230.676 153.657C230.695 153.702 230.705 153.751 230.705 153.801C230.705 153.901 230.665 153.998 230.594 154.069C230.523 154.14 230.426 154.18 230.325 154.18Z" fill="white"/>
<path d="M244.209 154.18H232.733C232.633 154.18 232.536 154.14 232.465 154.069C232.394 153.998 232.354 153.901 232.354 153.801C232.354 153.751 232.364 153.702 232.383 153.657C232.402 153.611 232.43 153.57 232.465 153.535C232.501 153.5 232.543 153.473 232.589 153.455C232.635 153.437 232.684 153.428 232.733 153.429H244.195C244.293 153.429 244.388 153.468 244.458 153.538C244.528 153.607 244.567 153.702 244.567 153.801C244.569 153.898 244.533 153.992 244.466 154.063C244.399 154.134 244.307 154.176 244.209 154.18Z" fill="white"/>
<path d="M103.212 88.8773C103.511 92.3135 102.767 98.5368 100.177 100.55C104.401 102.075 108.881 104.702 111.74 108.167C114.578 104.038 111.354 101.681 111.354 101.681C107.706 100.383 108.093 97.6175 109.034 95.0713L103.212 88.8773Z" fill="#B97964"/>
<path d="M117.023 85.9145C116.979 86.345 117.183 86.7171 117.468 86.7462C117.752 86.7754 118.007 86.4398 118.051 86.0167C118.095 85.5935 117.891 85.2142 117.606 85.185C117.322 85.1558 117.074 85.4841 117.023 85.9145Z" fill="#263238"/>
<path d="M117.497 85.1924L118.555 84.9882C118.555 84.9882 117.949 85.7688 117.497 85.1924Z" fill="#263238"/>
<path d="M117.169 86.3735C117.466 87.3997 117.901 88.3812 118.46 89.2918C118.223 89.4286 117.96 89.5125 117.688 89.5376C117.416 89.5628 117.142 89.5287 116.884 89.4377L117.169 86.3735Z" fill="#A24E3F"/>
<path d="M118.248 83.646C118.316 83.6353 118.378 83.6018 118.423 83.5512C118.468 83.5026 118.494 83.4387 118.494 83.3724C118.494 83.3061 118.468 83.2423 118.423 83.1937C118.123 82.9198 117.762 82.7218 117.37 82.6165C116.978 82.5111 116.566 82.5014 116.169 82.5881C116.113 82.6267 116.074 82.6849 116.059 82.7512C116.044 82.8174 116.055 82.8869 116.089 82.9456C116.111 82.9831 116.143 83.0138 116.182 83.0343C116.221 83.0549 116.264 83.0646 116.308 83.0624C116.623 83.002 116.948 83.0161 117.257 83.1035C117.566 83.1909 117.851 83.3492 118.088 83.5657C118.13 83.6105 118.187 83.6389 118.248 83.646Z" fill="#263238"/>
<path d="M102.869 83.1708C102.701 88.5039 102.519 90.7729 104.897 93.7495C108.479 98.2218 114.965 97.2442 116.702 92.0496C118.263 87.3731 118.277 79.4062 113.367 76.8235C108.457 74.2408 103.022 77.823 102.869 83.1708Z" fill="#B97964"/>
<path d="M103.102 93.247C97.8568 92.3497 99.3597 89.0447 99.3597 89.0447C94.1944 88.0014 98.1851 85.4771 98.1851 85.4771C93.888 83.624 98.1851 81.9606 98.1851 81.9606C94.0412 78.5243 99.9507 77.3351 99.9507 77.3351C98.4915 71.9728 103.599 74.1761 103.599 74.1761C106.371 69.5652 108.764 73.9645 108.764 73.9645C113.623 67.3984 114.805 72.9358 114.805 72.9358C119.773 71.6299 117.869 76.8536 117.869 76.8536C121.955 77.948 118.744 80.02 118.744 80.02C120.32 82.0117 114.622 82.3546 114.622 82.3546C114.622 82.3546 117.336 86.732 114.622 87.9358L107.721 93.2252C107.721 93.2252 104.532 91.9265 103.102 93.247Z" fill="#263238"/>
<path d="M108.26 88.9425C108.26 88.9425 111.908 80.1877 109.056 72.7169L111.463 71.8925C111.463 71.8925 114.608 82.7558 108.26 88.9425Z" fill="#E2231C"/>
<path d="M111.901 87.9788C112.499 89.2336 112.733 89.7808 113.594 90.1675C113.86 90.32 114.164 90.391 114.47 90.3714C114.776 90.3519 115.07 90.2427 115.314 90.0576C115.558 89.8724 115.742 89.6194 115.844 89.3302C115.945 89.041 115.96 88.7283 115.885 88.4311C115.658 87.1762 114.695 85.3304 113.36 85.2939C113.048 85.2955 112.742 85.3809 112.474 85.5411C112.206 85.7014 111.986 85.9306 111.837 86.205C111.688 86.4793 111.615 86.7886 111.626 87.1006C111.638 87.4127 111.733 87.7159 111.901 87.9788Z" fill="#B97964"/>
<path d="M108.129 106.204C108.129 106.204 113.068 109.852 115.075 111.311L129.367 104.569C129.347 103.777 129.566 102.997 129.995 102.331C130.424 101.665 131.044 101.143 131.774 100.834L132.796 100.411L134.948 99.4479C135.349 99.2688 135.79 99.1988 136.227 99.2449C136.664 99.291 137.081 99.4517 137.436 99.7106C137.853 100.014 138.165 100.44 138.331 100.928C138.497 101.417 138.508 101.944 138.362 102.439C138.062 103.465 137.501 104.396 136.734 105.14C135.967 105.884 135.02 106.417 133.985 106.685L131.898 107.232C131.898 107.232 119.649 116.513 115.272 116.731C110.894 116.95 104.481 112.653 104.481 112.653L108.129 106.204Z" fill="#B97964"/>
<path d="M96.2518 100.054C100.024 100.054 104.241 102.403 110.843 106.708C109.895 109.811 108.131 112.602 105.736 114.791C105.736 114.791 102.088 113.814 97.244 109.254C91.4075 103.731 93.9391 100.061 96.2518 100.054Z" fill="#263238"/>
<path d="M167.896 110.983H132.147C131.846 110.987 131.547 110.928 131.271 110.809C130.995 110.69 130.748 110.513 130.545 110.291C130.342 110.069 130.189 109.807 130.095 109.521C130.001 109.235 129.97 108.932 130.002 108.633L132.694 77.8601C132.758 77.2238 133.053 76.6332 133.524 76.2002C133.995 75.7672 134.608 75.522 135.247 75.5109H170.996C171.297 75.506 171.595 75.5651 171.871 75.6843C172.146 75.8036 172.394 75.9802 172.596 76.2024C172.798 76.4247 172.951 76.6875 173.043 76.9733C173.136 77.2591 173.167 77.5615 173.134 77.8601L170.442 108.633C170.378 109.268 170.083 109.858 169.614 110.291C169.145 110.724 168.534 110.97 167.896 110.983Z" fill="#E2231C"/>
<path opacity="0.4" d="M167.896 110.983H132.147C131.846 110.987 131.547 110.928 131.271 110.809C130.995 110.69 130.748 110.513 130.545 110.291C130.342 110.069 130.189 109.807 130.095 109.521C130.001 109.235 129.97 108.932 130.002 108.633L132.694 77.8601C132.758 77.2238 133.053 76.6332 133.524 76.2002C133.995 75.7672 134.608 75.522 135.247 75.5109H170.996C171.297 75.506 171.595 75.5651 171.871 75.6843C172.146 75.8036 172.394 75.9802 172.596 76.2024C172.798 76.4247 172.951 76.6875 173.043 76.9733C173.136 77.2591 173.167 77.5615 173.134 77.8601L170.442 108.633C170.378 109.268 170.083 109.858 169.614 110.291C169.145 110.724 168.534 110.97 167.896 110.983Z" fill="white"/>
<path opacity="0.7" d="M168.027 109.523C168.269 109.519 168.501 109.426 168.678 109.262C168.856 109.098 168.967 108.874 168.99 108.633L171.682 77.86C171.695 77.7469 171.683 77.6324 171.648 77.5242C171.612 77.416 171.555 77.3165 171.478 77.2323C171.401 77.1481 171.308 77.0812 171.203 77.036C171.099 76.9907 170.986 76.9682 170.872 76.9699H135.123C134.881 76.974 134.648 77.0668 134.469 77.2308C134.29 77.3948 134.178 77.6187 134.153 77.86L131.468 108.633C131.456 108.746 131.468 108.861 131.503 108.969C131.538 109.077 131.596 109.177 131.672 109.261C131.749 109.345 131.843 109.412 131.947 109.457C132.051 109.503 132.164 109.525 132.278 109.523H168.027Z" fill="white"/>
<path d="M143.185 91.4304L131.512 108.327V108.634C131.499 108.747 131.511 108.861 131.546 108.969C131.581 109.078 131.639 109.177 131.716 109.261C131.792 109.345 131.886 109.412 131.991 109.458C132.095 109.503 132.208 109.525 132.322 109.524H152.574L143.185 91.4304Z" fill="#E2231C"/>
<path opacity="0.3" d="M143.185 91.4304L131.512 108.327V108.634C131.499 108.747 131.511 108.861 131.546 108.969C131.581 109.078 131.639 109.177 131.716 109.261C131.792 109.345 131.886 109.412 131.991 109.458C132.095 109.503 132.208 109.525 132.322 109.524H152.574L143.185 91.4304Z" fill="white"/>
<path d="M169.092 107.459L159.308 88.8773L144.819 109.524H168.027C168.269 109.52 168.5 109.427 168.678 109.263C168.856 109.098 168.967 108.875 168.99 108.634L169.092 107.459Z" fill="#E2231C"/>
<path d="M155.529 85.5946C155.44 86.4839 155.027 87.3094 154.37 87.9146C153.712 88.5198 152.855 88.8625 151.962 88.8777C151.541 88.8854 151.124 88.8034 150.737 88.6371C150.351 88.4709 150.004 88.2243 149.721 87.9137C149.437 87.6031 149.223 87.2356 149.092 86.8358C148.961 86.4359 148.918 86.0128 148.963 85.5946C149.051 84.7041 149.463 83.8768 150.12 83.2701C150.778 82.6634 151.636 82.3197 152.531 82.3043C152.952 82.2965 153.37 82.3787 153.757 82.5453C154.144 82.712 154.491 82.9593 154.775 83.2707C155.059 83.5821 155.273 83.9505 155.403 84.3512C155.533 84.752 155.576 85.1759 155.529 85.5946Z" fill="#E2231C"/>
<path opacity="0.4" d="M155.529 85.5946C155.44 86.4839 155.027 87.3094 154.37 87.9146C153.712 88.5198 152.855 88.8625 151.962 88.8777C151.541 88.8854 151.124 88.8034 150.737 88.6371C150.351 88.4709 150.004 88.2243 149.721 87.9137C149.437 87.6031 149.223 87.2356 149.092 86.8358C148.961 86.4359 148.918 86.0128 148.963 85.5946C149.051 84.7041 149.463 83.8768 150.12 83.2701C150.778 82.6634 151.636 82.3197 152.531 82.3043C152.952 82.2965 153.37 82.3787 153.757 82.5453C154.144 82.712 154.491 82.9593 154.775 83.2707C155.059 83.5821 155.273 83.9505 155.403 84.3512C155.533 84.752 155.576 85.1759 155.529 85.5946Z" fill="white"/>
<path d="M66.3173 235.192L62.6841 245.961L68.2507 248.237L72.6062 238.3L66.3173 235.192Z" fill="#B97964"/>
<path d="M70.2499 247.967C70.2214 247.949 70.1981 247.925 70.1827 247.895C70.1672 247.865 70.1602 247.832 70.1624 247.799C70.1665 247.767 70.1807 247.737 70.203 247.713C70.2253 247.689 70.2545 247.673 70.2864 247.668C70.4031 247.668 73.0296 247.055 74.0072 247.668C74.1921 247.78 74.3255 247.961 74.3793 248.171C74.4202 248.288 74.4239 248.414 74.3899 248.533C74.3559 248.652 74.286 248.757 74.1896 248.835C73.8175 249.097 72.9493 248.988 72.1541 248.74C71.4984 248.537 70.8614 248.278 70.2499 247.967ZM70.8044 247.916C71.9498 248.426 73.5695 248.915 73.9926 248.594C74.051 248.55 74.1239 248.477 74.0656 248.251C74.0543 248.185 74.0271 248.123 73.9865 248.069C73.9458 248.016 73.8928 247.973 73.8321 247.945C73.7461 247.89 73.6527 247.849 73.5549 247.821C72.6403 247.678 71.7069 247.71 70.8044 247.916Z" fill="#E2231C"/>
<path d="M70.1696 247.93C70.1555 247.906 70.1481 247.878 70.1481 247.85C70.1481 247.822 70.1555 247.794 70.1696 247.77C70.1696 247.697 70.8991 246.019 71.9278 245.581C72.0746 245.52 72.2321 245.489 72.3911 245.489C72.5501 245.489 72.7076 245.52 72.8544 245.581C73.2557 245.749 73.3213 246.004 73.2848 246.179C73.1973 246.946 71.2274 247.857 70.3666 247.96C70.3564 247.965 70.3451 247.967 70.3337 247.967C70.3223 247.967 70.3111 247.965 70.3009 247.96C70.2783 247.966 70.2544 247.967 70.2315 247.962C70.2085 247.957 70.1872 247.946 70.1696 247.93ZM72.6428 245.866C72.4544 245.797 72.2476 245.797 72.0592 245.866C71.4097 246.269 70.9002 246.863 70.6 247.566C71.5412 247.339 72.8836 246.566 72.9784 246.107C72.9784 246.063 72.9784 245.946 72.7304 245.844H72.6428V245.866Z" fill="#E2231C"/>
<path d="M69.8704 246.866L62.8811 244.677C62.7531 244.638 62.6155 244.643 62.4909 244.692C62.3664 244.741 62.2621 244.831 62.1953 244.947L59.1749 250.244C59.1096 250.355 59.067 250.479 59.0496 250.607C59.0323 250.735 59.0405 250.865 59.0737 250.99C59.1069 251.114 59.1646 251.231 59.2433 251.334C59.322 251.436 59.4203 251.522 59.5324 251.586C59.592 251.623 59.6556 251.652 59.722 251.674C62.2537 252.403 64.5372 252.958 67.6744 253.936C71.3806 255.074 70.3008 255.227 74.6345 256.635C77.2463 257.481 78.6471 254.643 77.5528 254.154C72.6573 251.966 72.6063 250.244 71.2055 247.814C70.8886 247.348 70.4148 247.012 69.8704 246.866Z" fill="#263238"/>
<path opacity="0.2" d="M64.5739 240.358L70.4104 243.305L72.6064 238.3L66.3175 235.192L64.5739 240.358Z" fill="#263238"/>
<path d="M90.9915 135.592C90.9915 135.592 83.1486 141.582 84.8266 160.346C84.9871 162.082 85.5561 163.899 85.5561 165.884C85.5561 167.204 85.1914 168.131 84.7609 171.1C84.1335 175.419 82.9808 191.528 81.7624 193.622C80.544 195.716 80.0479 195.344 76.6554 201.122C73.0075 207.338 68.2653 218.237 64.5956 236.71C67.0459 238.44 69.8447 239.612 72.796 240.146C72.796 240.146 92.8373 208.541 97.098 196.773C100.914 186.246 105.459 152.649 105.459 152.649L105.824 138.058L90.9915 135.592Z" fill="#E2231C"/>
<path opacity="0.1" d="M99.5712 160.345H93.8951C93.8951 160.345 92.0274 178.205 98.1996 193.102C98.8416 190.709 99.4909 187.842 100.126 184.741L102.584 169.012C102.234 166.356 101.964 164.328 101.92 164.197C101.796 163.781 99.5712 160.345 99.5712 160.345Z" fill="#E2231C"/>
<path d="M98.6375 239.527L98.6739 250.974L105.131 250.543L106.123 239.527H98.6375Z" fill="#B97964"/>
<path d="M105.875 250.346C105.843 250.342 105.813 250.327 105.789 250.305C105.765 250.283 105.749 250.254 105.744 250.222C105.736 250.19 105.739 250.156 105.752 250.126C105.765 250.095 105.788 250.07 105.816 250.054C105.919 249.995 108.202 248.595 109.333 248.843C109.544 248.89 109.729 249.015 109.851 249.193C109.926 249.291 109.97 249.41 109.977 249.534C109.983 249.658 109.952 249.78 109.887 249.886C109.326 250.307 108.632 250.512 107.932 250.462C107.244 250.486 106.556 250.446 105.875 250.346ZM106.386 250.119C107.633 250.229 109.304 250.156 109.618 249.711C109.661 249.653 109.698 249.558 109.574 249.361C109.54 249.303 109.493 249.254 109.438 249.218C109.382 249.181 109.319 249.158 109.253 249.149C109.154 249.134 109.053 249.134 108.954 249.149C108.042 249.302 107.17 249.631 106.386 250.119Z" fill="#E2231C"/>
<path d="M105.787 250.345C105.763 250.33 105.743 250.308 105.729 250.283C105.715 250.257 105.707 250.229 105.707 250.199C105.707 250.119 105.831 248.303 106.655 247.573C106.773 247.465 106.911 247.382 107.062 247.33C107.212 247.277 107.372 247.256 107.531 247.267C107.969 247.267 108.114 247.515 108.136 247.697C108.304 248.427 106.75 249.951 105.948 250.338C105.926 250.345 105.903 250.345 105.882 250.338C105.852 250.352 105.819 250.354 105.787 250.345ZM107.436 247.573C107.235 247.577 107.043 247.655 106.896 247.792C106.415 248.386 106.13 249.115 106.079 249.878C106.889 249.36 107.903 248.186 107.845 247.734C107.845 247.69 107.808 247.573 107.524 247.558H107.436V247.573Z" fill="#E2231C"/>
<path d="M105.16 249.434L97.8641 249.696C97.7309 249.702 97.6036 249.753 97.503 249.841C97.4023 249.928 97.3342 250.047 97.3096 250.178L96.2007 256.175C96.1514 256.429 96.2052 256.693 96.3502 256.908C96.4953 257.123 96.7196 257.271 96.974 257.32C97.0444 257.328 97.1153 257.328 97.1856 257.32C99.8193 257.174 102.154 256.948 105.437 256.839C109.311 256.7 108.355 257.196 112.901 257.101C115.651 257.036 116.038 253.899 114.87 253.789C109.523 253.308 108.91 251.717 106.787 249.886C106.319 249.539 105.739 249.378 105.16 249.434Z" fill="#263238"/>
<path opacity="0.2" d="M98.6593 245.451L105.605 245.305L106.123 239.527H98.6375L98.6593 245.451Z" fill="#263238"/>
<path d="M95.3616 133.513C95.3616 133.513 87.5333 143.88 93.3334 164.155L99.8995 193.768C99.8995 193.768 93.669 207.236 96.9812 242.766C100.192 243.217 103.454 243.143 106.641 242.547C106.641 242.547 113.936 205.025 115.038 192.353C116.256 178.389 115.527 136.3 115.527 136.3L95.3616 133.513Z" fill="#E2231C"/>
<path d="M100.089 99.9073C100.089 99.9073 98.8782 94.7273 106.655 96.989C114.433 99.2507 113.776 103.679 113.776 103.679L100.089 99.9073Z" fill="#263238"/>
<path opacity="0.4" d="M100.089 99.9073C100.089 99.9073 98.8782 94.7273 106.655 96.989C114.433 99.2507 113.776 103.679 113.776 103.679L100.089 99.9073Z" fill="#E2231C"/>
<path d="M119.379 112.866C119.379 114.682 118.65 117.309 117.92 120.249C117.584 121.642 117.278 123.094 117.074 124.568C115.972 132.593 115.615 141.049 115.615 141.049C111.321 141.985 106.881 142.028 102.571 141.173C98.2603 140.318 94.1722 138.585 90.5612 136.081C90.5612 136.081 93.6181 133.491 92.9906 115.551C92.7061 107.467 89.7878 97.8585 103.146 99.3687C114.425 100.645 118.219 104.147 119.131 109.626C119.131 109.692 119.131 109.765 119.131 109.838L119.197 110.349C119.307 111.183 119.368 112.024 119.379 112.866Z" fill="#263238"/>
<path opacity="0.4" d="M119.379 112.865C119.379 114.682 118.65 117.308 117.92 120.248C114.871 116.6 111.814 109.706 111.814 109.706L114.331 106L118.766 108.064C118.92 108.577 119.042 109.098 119.131 109.626C119.131 109.691 119.131 109.764 119.131 109.837L119.197 110.348C119.307 111.183 119.368 112.023 119.379 112.865Z" fill="#E2231C"/>
<path d="M124.026 109.698C124.026 109.698 128.404 114.017 130.133 115.753L145.264 111.215C145.363 110.433 145.694 109.698 146.214 109.106C146.734 108.513 147.42 108.089 148.182 107.889L149.248 107.611L151.524 106.984C151.948 106.869 152.395 106.867 152.82 106.979C153.244 107.09 153.633 107.311 153.946 107.619C154.313 107.98 154.559 108.446 154.65 108.953C154.742 109.46 154.674 109.982 154.457 110.449C154.006 111.419 153.313 112.256 152.443 112.878C151.574 113.501 150.559 113.888 149.496 114.002L147.351 114.229C147.351 114.229 133.846 121.604 129.498 121.196C125.15 120.787 119.437 115.556 119.437 115.556L124.026 109.698Z" fill="#B97964"/>
<path d="M113.156 101.841C116.891 102.388 120.707 105.357 126.631 110.595C125.228 113.525 123.063 116.025 120.364 117.833C120.364 117.833 116.913 116.323 112.798 111.092C107.823 104.759 110.894 101.505 113.156 101.841Z" fill="#263238"/>
</svg>
