<svg width="292" height="269" viewBox="0 0 292 269" fill="none" xmlns="http://www.w3.org/2000/svg">
<path d="M248.377 124.922C191.29 91.9644 99.0362 91.9644 42.3512 124.922C-14.3338 157.88 -14.1049 211.323 42.9699 244.281C100.045 277.24 192.311 277.24 249.027 244.281C305.743 211.323 305.452 157.868 248.377 124.922Z" fill="#F5F5F5"/>
<path d="M155.251 176.003L194.588 153.291L160.244 133.332L120.907 156.044L155.251 176.003Z" fill="#E0E0E0"/>
<path d="M230.893 212.747C217.573 205.057 196.048 205.057 182.814 212.747C169.58 220.438 169.654 232.905 182.969 240.589C196.283 248.273 217.814 248.279 231.048 240.589C244.282 232.898 244.214 220.438 230.893 212.747Z" fill="#E0E0E0"/>
<path d="M33.5101 232.657L39.3629 235.824C39.9342 236.135 40.576 236.293 41.2263 236.284C41.8766 236.274 42.5134 236.096 43.0751 235.769L125.541 187.943C125.834 187.774 126.076 187.53 126.243 187.236C126.409 186.942 126.495 186.609 126.49 186.271C126.485 185.933 126.389 185.602 126.214 185.313C126.039 185.024 125.789 184.788 125.492 184.627L117.77 180.451L33.4606 229.328C33.1666 229.498 32.9233 229.743 32.7558 230.038C32.5882 230.333 32.5026 230.668 32.5076 231.007C32.5127 231.346 32.6082 231.678 32.7845 231.968C32.9607 232.258 33.2112 232.496 33.5101 232.657Z" fill="#E0E0E0"/>
<path d="M263.845 187.567C260.046 185.371 253.909 185.371 250.141 187.567C246.373 189.764 246.385 193.315 250.184 195.505C253.983 197.695 260.114 197.695 263.888 195.505C267.662 193.315 267.619 189.764 263.845 187.567Z" fill="#E0E0E0"/>
<path d="M124.854 5.66861C124.291 3.69497 120.288 -0.0605283 116.297 0.0199024C115.915 0.0339642 115.537 0.107009 115.177 0.236448L37.6979 44.3063C36.5661 44.9603 35.6249 45.8986 34.9673 47.0283C34.3096 48.158 33.9585 49.4398 33.9485 50.7469V218.352C33.9485 222.627 38.8981 226.698 43.495 224.737C43.495 224.737 43.495 224.737 43.526 224.737C43.6281 224.704 43.7274 224.662 43.823 224.613L121.315 180.457C122.445 179.804 123.383 178.865 124.035 177.735C124.687 176.604 125.029 175.321 125.027 174.016V6.46054C125.032 6.1866 124.973 5.91525 124.854 5.66861Z" fill="#E2231C"/>
<path opacity="0.3" d="M124.854 5.66861C124.291 3.69497 120.288 -0.0605283 116.297 0.0199024C115.915 0.0339642 115.537 0.107009 115.177 0.236448L37.6979 44.3063C36.5661 44.9603 35.6249 45.8986 34.9673 47.0283C34.3096 48.158 33.9585 49.4398 33.9485 50.7469V218.352C33.9485 222.627 38.8981 226.698 43.495 224.737C43.495 224.737 43.495 224.737 43.526 224.737C43.6281 224.704 43.7274 224.662 43.823 224.613L121.315 180.457C122.445 179.804 123.383 178.865 124.035 177.735C124.687 176.604 125.029 175.321 125.027 174.016V6.46054C125.032 6.1866 124.973 5.91525 124.854 5.66861Z" fill="black"/>
<path d="M44.7583 68.4595C44.7579 67.8075 44.9292 67.1668 45.255 66.6021C45.5809 66.0373 46.0497 65.5683 46.6144 65.2423L118.581 24.3093C118.863 24.1509 119.181 24.0688 119.504 24.0712C119.828 24.0736 120.145 24.1603 120.424 24.3228C120.703 24.4853 120.935 24.718 121.097 24.9977C121.259 25.2775 121.345 25.5947 121.347 25.9179V161.072C121.347 161.724 121.176 162.365 120.85 162.93C120.524 163.495 120.055 163.964 119.491 164.29L47.5301 205.291C47.2481 205.451 46.9293 205.534 46.6052 205.532C46.2811 205.531 45.963 205.444 45.6827 205.281C45.4024 205.119 45.1696 204.886 45.0074 204.605C44.8452 204.324 44.7593 204.006 44.7583 203.682V68.4595Z" fill="#455A64"/>
<path opacity="0.3" d="M33.9485 50.7468V218.352C33.9485 222.627 38.8981 226.698 43.495 224.737C43.495 224.737 43.495 224.737 43.526 224.737C43.2474 224.835 42.9494 224.866 42.6566 224.826C42.3639 224.786 42.0849 224.677 41.8428 224.508C41.6008 224.338 41.4026 224.113 41.265 223.852C41.1273 223.591 41.054 223.3 41.0512 223.005V55.3809C41.0528 53.9238 41.4831 52.4994 42.2886 51.2851L34.7034 47.4987C34.2064 48.5094 33.9482 49.6206 33.9485 50.7468Z" fill="black"/>
<path opacity="0.1" d="M116.305 0.00127138C115.922 0.0153332 115.545 0.0883756 115.185 0.217815L37.6991 44.3062C36.4057 45.0451 35.3661 46.158 34.717 47.4987L42.3022 51.2851C42.9345 50.3209 43.7816 49.5162 44.777 48.9341L122.287 4.85186C122.507 4.72962 122.75 4.65339 123 4.62782C123.251 4.60224 123.504 4.62784 123.744 4.70307C123.984 4.7783 124.206 4.90159 124.397 5.06544C124.588 5.22928 124.744 5.43026 124.855 5.65617C124.298 3.67633 120.308 -0.0791593 116.305 0.00127138Z" fill="white"/>
<path d="M92.6018 32.5324C93.1462 32.2169 93.5979 32.4582 93.6041 33.0831C93.583 33.4274 93.4821 33.7621 93.3092 34.0607C93.1363 34.3592 92.8962 34.6134 92.608 34.803L77.4066 43.5762C76.8621 43.8917 76.4229 43.6257 76.4229 43.0008C76.4403 42.6611 76.538 42.3304 76.7079 42.0357C76.8778 41.741 77.1151 41.4908 77.4004 41.3056L92.6018 32.5324Z" fill="#263238"/>
<path d="M73.4958 43.564C74.0403 43.2485 74.4796 43.496 74.4796 44.1208C74.464 44.4627 74.3673 44.7959 74.1973 45.0928C74.0273 45.3898 73.7889 45.642 73.502 45.8284C72.9576 46.144 72.5059 45.8903 72.5059 45.2654C72.5253 44.9239 72.625 44.5918 72.797 44.2961C72.9691 44.0005 73.2085 43.7496 73.4958 43.564Z" fill="#263238"/>
<path d="M83.2281 31.2511C84.317 30.6324 85.1956 31.1274 85.1956 32.371C85.1625 33.0542 84.9682 33.7198 84.6283 34.3134C84.2885 34.9071 83.8129 35.4117 83.2405 35.7862C82.1516 36.4049 81.2545 35.9037 81.2483 34.654C81.286 33.9707 81.4851 33.3061 81.8292 32.7146C82.1733 32.1231 82.6528 31.6216 83.2281 31.2511Z" fill="#263238"/>
<path d="M83.2341 189.043C85.449 187.763 87.237 188.783 87.2432 191.326C87.1723 192.717 86.7746 194.071 86.0823 195.28C85.39 196.488 84.4227 197.516 83.2588 198.28C81.0439 199.555 79.2125 198.509 79.2001 195.967C79.2804 194.577 79.6875 193.225 80.3884 192.022C81.0894 190.819 82.0643 189.799 83.2341 189.043Z" fill="#263238"/>
<path d="M136.208 33.356L132.062 31.1349C131.769 30.9203 131.419 30.7966 131.056 30.779C130.693 30.7614 130.333 30.8507 130.021 31.0359L58.0723 71.9503C57.5077 72.2763 57.0388 72.7453 56.713 73.3101C56.3872 73.8749 56.2158 74.5155 56.2162 75.1676V210.39C56.2198 210.762 56.335 211.124 56.5468 211.43C56.7586 211.735 57.0573 211.97 57.4041 212.104L61.6237 214.368H61.6917C61.9623 214.519 62.2668 214.598 62.5765 214.598C62.8861 214.598 63.1906 214.519 63.4612 214.368L135.403 173.373C135.969 173.047 136.438 172.577 136.764 172.011C137.09 171.445 137.261 170.803 137.259 170.15V35.0203C137.258 34.6722 137.158 34.3315 136.972 34.0372C136.786 33.7429 136.521 33.5068 136.208 33.356Z" fill="#E2231C"/>
<path opacity="0.3" d="M137.266 39.7348V35.0203C137.263 34.6715 137.163 34.3304 136.976 34.036C136.789 33.7416 136.523 33.506 136.208 33.356L132.062 31.1349C131.769 30.9203 131.419 30.7966 131.056 30.779C130.693 30.7614 130.333 30.8507 130.021 31.0359L58.0723 71.9503C57.5077 72.2763 57.0388 72.7453 56.713 73.3101C56.3872 73.8749 56.2158 74.5155 56.2162 75.1676V81.3545L60.6956 83.9345L137.266 39.7348Z" fill="white"/>
<path opacity="0.5" d="M136.208 33.356L132.062 31.1349C131.769 30.9203 131.419 30.7966 131.056 30.779C130.693 30.7614 130.333 30.8507 130.021 31.0359L58.0723 71.9503C57.5077 72.2763 57.0388 72.7453 56.713 73.3101C56.3872 73.8749 56.2158 74.5155 56.2162 75.1676V210.39C56.2198 210.762 56.335 211.124 56.5468 211.43C56.7586 211.735 57.0573 211.97 57.4041 212.104L61.6237 214.368H61.6917C61.9623 214.519 62.2668 214.598 62.5765 214.598C62.8861 214.598 63.1906 214.519 63.4612 214.368L135.403 173.373C135.969 173.047 136.438 172.577 136.764 172.011C137.09 171.445 137.261 170.803 137.259 170.15V35.0203C137.258 34.6722 137.158 34.3315 136.972 34.0372C136.786 33.7429 136.521 33.5068 136.208 33.356Z" fill="white"/>
<path opacity="0.3" d="M56.1977 75.1666V210.389C56.2013 210.761 56.3165 211.123 56.5283 211.429C56.7401 211.734 57.0388 211.969 57.3856 212.103L61.6051 214.367C61.3239 214.207 61.0907 213.975 60.9297 213.694C60.7687 213.413 60.6857 213.095 60.6895 212.771V77.5609C60.6904 77.0633 60.7914 76.571 60.9864 76.1132L56.5813 73.5703C56.3359 74.0671 56.2049 74.6125 56.1977 75.1666Z" fill="#E2231C"/>
<path opacity="0.4" d="M132.062 31.1349C131.768 30.9203 131.419 30.7966 131.056 30.779C130.693 30.7614 130.333 30.8507 130.02 31.0359L58.0717 71.9503C57.4175 72.3254 56.8931 72.8908 56.5682 73.5713L60.9733 76.1142C61.2874 75.3634 61.8425 74.7387 62.551 74.3385L134.493 33.4055C134.754 33.26 135.046 33.1796 135.344 33.171C135.642 33.1624 135.938 33.2258 136.207 33.356L132.062 31.1349Z" fill="white"/>
<path opacity="0.5" d="M137.265 39.7349L60.6763 83.9532V104.636L137.265 60.418V39.7349Z" fill="white"/>
<path opacity="0.3" d="M56.2039 102.044L60.6709 104.636L60.6771 83.9533L56.1977 81.3733L56.2039 102.044Z" fill="white"/>
<path d="M106.076 87.3367C107.845 86.3159 109.287 87.1449 109.293 89.1928V95.2251C109.232 96.3329 108.911 97.4107 108.356 98.3716C107.802 99.3325 107.029 100.149 106.1 100.756L74.8747 118.779L70.9274 125.616V121.068L68.3907 122.534C66.6151 123.555 65.1735 122.739 65.1735 120.678V114.646C65.2325 113.537 65.5524 112.457 66.1071 111.495C66.6619 110.533 67.4358 109.715 68.366 109.109L106.076 87.3367Z" fill="#E2231C"/>
<g opacity="0.3">
<path d="M106.076 87.337C107.845 86.3162 109.287 87.1452 109.293 89.1931V95.2254C109.232 96.3332 108.911 97.411 108.356 98.3719C107.802 99.3328 107.029 100.15 106.1 100.757L74.8747 118.779L70.9274 125.616V121.068L68.3907 122.535C66.615 123.556 65.1735 122.739 65.1735 120.679V114.646C65.2325 113.537 65.5524 112.458 66.1071 111.496C66.6618 110.533 67.4358 109.716 68.366 109.109L106.076 87.337Z" fill="white"/>
</g>
<path d="M70.984 112.704L70.9964 115.816L70.2292 116.255L70.223 115.042L69.1774 115.649L69.1836 116.861L68.4164 117.301L68.4102 114.189L69.1774 113.749V114.919L70.223 114.312L70.2168 113.143L70.984 112.704Z" fill="white"/>
<path d="M73.6379 113.081C73.6379 113.15 73.6379 113.23 73.6379 113.298L72.1159 114.177C72.1778 114.387 72.3634 114.424 72.6294 114.269C72.831 114.152 72.9977 113.984 73.112 113.781L73.5018 114.022C73.2967 114.402 72.9876 114.715 72.6109 114.925C71.8622 115.358 71.3735 115.105 71.3735 114.393C71.3901 114.005 71.5035 113.628 71.7034 113.295C71.9034 112.962 72.1834 112.684 72.5181 112.488C73.1306 112.129 73.6317 112.296 73.6379 113.081ZM72.0912 113.743L72.945 113.249C72.9078 113.013 72.747 112.952 72.5181 113.088C72.4017 113.157 72.3027 113.253 72.2288 113.366C72.1548 113.48 72.1077 113.609 72.0912 113.743Z" fill="white"/>
<path d="M76.1434 110.427L75.2463 113.459C75.1909 113.737 75.0781 114.001 74.9151 114.233C74.7522 114.465 74.5426 114.661 74.2997 114.808C74.118 114.929 73.8963 114.976 73.681 114.938L73.9347 114.201C73.9896 114.218 74.0475 114.223 74.1043 114.214C74.161 114.205 74.2151 114.184 74.2626 114.152C74.4011 114.072 74.5031 113.941 74.5472 113.787L73.6439 111.863L74.3987 111.423L74.9122 112.605L75.4319 110.83L76.1434 110.427Z" fill="white"/>
<path d="M76.6826 111.64C76.9425 111.491 77.1219 111.584 77.1219 111.85C77.1131 111.996 77.0691 112.137 76.9936 112.262C76.9182 112.387 76.8136 112.492 76.6888 112.568C76.429 112.716 76.2433 112.611 76.2433 112.357C76.2523 112.211 76.297 112.069 76.3736 111.944C76.4502 111.819 76.5563 111.714 76.6826 111.64Z" fill="white"/>
<path d="M76.9734 111.224L76.3918 111.558L76.2433 109.665L77.1157 109.164L76.9734 111.224Z" fill="white"/>
<path d="M79.3555 107.687V108.794C79.5095 108.542 79.7216 108.33 79.9742 108.176C80.463 107.891 80.8404 107.996 80.8404 108.745V110.125L80.1041 110.552V109.314C80.1041 108.968 79.968 108.9 79.7577 109.023C79.6211 109.108 79.5103 109.228 79.4372 109.371C79.3642 109.514 79.3316 109.674 79.3431 109.834V110.997L78.6131 111.418V108.12L79.3555 107.687Z" fill="white"/>
<path d="M82.3932 106.783C83.0862 106.381 83.5811 106.616 83.5811 107.34C83.5598 107.734 83.4406 108.116 83.2342 108.452C83.0279 108.788 82.7409 109.067 82.3994 109.264C81.7188 109.66 81.2177 109.431 81.2177 108.707C81.2378 108.314 81.3559 107.932 81.5612 107.596C81.7665 107.26 82.0525 106.98 82.3932 106.783ZM82.3932 108.596C82.5313 108.507 82.6443 108.384 82.7212 108.239C82.7981 108.093 82.8364 107.931 82.8325 107.767C82.8325 107.402 82.6407 107.309 82.387 107.451C82.2494 107.539 82.1368 107.661 82.0598 107.805C81.9829 107.949 81.9443 108.111 81.9478 108.274C81.9478 108.639 82.1458 108.738 82.3932 108.596Z" fill="white"/>
<path d="M87.3295 103.968L86.5933 106.807L85.8818 107.222L85.4796 106.133L85.0775 107.686L84.366 108.094L83.6111 106.114L84.3041 105.712L84.7372 106.925L85.1826 105.211L85.8075 104.846L86.2406 106.071L86.6861 104.339L87.3295 103.968Z" fill="white"/>
<path d="M89.5765 102.632C90.257 102.242 90.6468 102.366 90.6468 103.127V104.469L89.9601 104.859V104.55C89.8458 104.852 89.626 105.102 89.3414 105.255C88.8402 105.546 88.5618 105.385 88.5618 104.964C88.5924 104.694 88.6946 104.437 88.8577 104.219C89.0208 104.002 89.2391 103.832 89.4898 103.727L89.9044 103.485C89.9044 103.25 89.7559 103.195 89.4589 103.362C89.2347 103.501 89.0411 103.684 88.8897 103.9L88.6422 103.467C88.8978 103.132 89.2149 102.848 89.5765 102.632ZM89.9167 104.11V103.906L89.595 104.086C89.3599 104.222 89.2733 104.37 89.2733 104.519C89.2733 104.667 89.3785 104.704 89.5517 104.599C89.6423 104.546 89.7213 104.476 89.784 104.392C89.8467 104.308 89.8919 104.212 89.9167 104.11Z" fill="white"/>
<path d="M92.5094 100.949V101.71L92.3423 101.791C92.1857 101.878 92.056 102.007 91.9677 102.163C91.8793 102.319 91.8355 102.496 91.8412 102.675V103.789L91.1049 104.21V101.797L91.804 101.395V101.686C91.9603 101.375 92.206 101.119 92.5094 100.949Z" fill="white"/>
<path d="M94.9403 100.789C94.9403 100.851 94.9403 100.932 94.9403 101L93.4183 101.878C93.4801 102.089 93.6596 102.126 93.9318 101.971C94.1334 101.854 94.3 101.685 94.4144 101.482L94.8042 101.724C94.5975 102.104 94.289 102.419 93.9132 102.633C93.1646 103.06 92.6758 102.806 92.6758 102.095C92.693 101.707 92.8067 101.33 93.0065 100.997C93.2064 100.664 93.4862 100.387 93.8204 100.189C94.4329 99.8304 94.9403 99.9974 94.9403 100.789ZM93.3935 101.445L94.2473 100.95C94.2102 100.715 94.0494 100.653 93.8204 100.789C93.7041 100.859 93.6051 100.954 93.5311 101.068C93.4571 101.182 93.4101 101.311 93.3935 101.445Z" fill="white"/>
<path d="M99.7908 96.7359C100.484 96.3337 100.979 96.5688 100.979 97.2927C100.957 97.6871 100.837 98.0699 100.631 98.4067C100.425 98.7436 100.138 99.0241 99.797 99.223C99.1164 99.619 98.6152 99.3839 98.6091 98.66C98.632 98.2667 98.752 97.8852 98.9581 97.5495C99.1643 97.2137 99.4504 96.9342 99.7908 96.7359ZM99.7908 98.5486C99.9293 98.4601 100.043 98.3372 100.12 98.1919C100.197 98.0467 100.235 97.8839 100.23 97.7196C100.23 97.3607 100.038 97.2618 99.7846 97.4102C99.647 97.4982 99.5343 97.6201 99.4574 97.7642C99.3804 97.9083 99.3418 98.0698 99.3453 98.2331C99.3453 98.5981 99.5433 98.6909 99.7908 98.5486Z" fill="white"/>
<path d="M98.6092 97.4586L97.7121 100.484C97.656 100.761 97.5435 101.024 97.3818 101.256C97.22 101.488 97.0124 101.684 96.7717 101.833C96.6828 101.895 96.5821 101.939 96.4757 101.962C96.3693 101.984 96.2595 101.984 96.153 101.963L96.4004 101.226C96.4546 101.246 96.5126 101.252 96.5697 101.245C96.6268 101.237 96.6812 101.216 96.7283 101.183C96.8681 101.101 96.9703 100.968 97.013 100.812L96.1096 98.8939L96.8645 98.4547L97.3842 99.6302L97.8977 97.8607L98.6092 97.4586Z" fill="white"/>
<path d="M103.515 94.6182V97.0311L102.81 97.4395V97.1734C102.668 97.4463 102.454 97.6752 102.191 97.8354C101.678 98.1262 101.3 98.0087 101.3 97.2167V95.8742L102.037 95.4473V96.6537C102.037 97.0311 102.167 97.1054 102.389 96.9754C102.521 96.8905 102.627 96.7712 102.695 96.6306C102.764 96.49 102.793 96.3332 102.779 96.1773V95.0204L103.515 94.6182Z" fill="white"/>
<path d="M105.05 95.263C105.31 95.1145 105.489 95.2073 105.489 95.4734C105.48 95.619 105.436 95.7602 105.361 95.8851C105.285 96.01 105.181 96.115 105.056 96.1911C104.797 96.3396 104.617 96.2344 104.617 95.9745C104.624 95.8292 104.668 95.688 104.743 95.5638C104.819 95.4395 104.924 95.3361 105.05 95.263Z" fill="white"/>
<path d="M104.999 93.0057C105.618 92.6593 106.02 92.7088 106.026 93.247C106.026 93.9462 105.408 94.4102 105.408 94.8185L104.715 95.2145C104.715 94.6391 105.265 94.1689 105.265 93.8348C105.265 93.6616 105.123 93.6306 104.925 93.7482C104.697 93.8919 104.526 94.1107 104.443 94.3669H103.867C104.075 93.7957 104.476 93.3145 104.999 93.0057Z" fill="white"/>
<path d="M129.186 93.1958C130.949 92.175 132.397 92.9917 132.403 95.0519V101.078C132.35 102.193 132.033 103.279 131.478 104.247C130.923 105.215 130.146 106.038 129.21 106.646L126.667 108.113V112.66L122.702 110.396L91.476 128.424C89.7003 129.445 88.2649 128.629 88.2587 126.568V120.542C88.3107 119.427 88.628 118.339 89.1843 117.371C89.7406 116.403 90.5198 115.581 91.4574 114.974L129.186 93.1958Z" fill="#E2231C"/>
<g opacity="0.2">
<path d="M129.186 93.1956C130.949 92.1747 132.397 92.9914 132.403 95.0517V101.078C132.35 102.193 132.033 103.279 131.478 104.247C130.923 105.215 130.146 106.037 129.21 106.646L126.667 108.112V112.66L122.702 110.395L91.476 128.424C89.7003 129.445 88.2649 128.628 88.2587 126.568V120.542C88.3107 119.426 88.628 118.339 89.1843 117.371C89.7406 116.402 90.5198 115.581 91.4574 114.974L129.186 93.1956Z" fill="white"/>
</g>
<path d="M94.0492 118.185L94.0616 121.297L93.4305 121.662L92.2302 120.697V122.355L91.4878 122.782L91.4754 119.67L92.1065 119.311L93.3068 120.276L93.3006 118.618L94.0492 118.185Z" fill="white"/>
<path d="M96.7034 118.568C96.7034 118.63 96.7034 118.717 96.7034 118.785L95.1752 119.663C95.2371 119.874 95.4227 119.911 95.6887 119.75C95.8925 119.636 96.0598 119.466 96.1713 119.261L96.5611 119.503C96.3564 119.884 96.0474 120.2 95.6702 120.412C94.9215 120.839 94.4328 120.591 94.4328 119.874C94.4505 119.486 94.5644 119.109 94.7642 118.776C94.964 118.444 95.2435 118.166 95.5774 117.968C96.1775 117.609 96.6972 117.776 96.7034 118.568ZM95.1567 119.224L96.0104 118.729C95.9733 118.5 95.8125 118.432 95.5835 118.568C95.4681 118.639 95.3698 118.735 95.296 118.848C95.2221 118.961 95.1745 119.09 95.1567 119.224Z" fill="white"/>
<path d="M101.486 115.797C101.486 115.859 101.486 115.946 101.486 116.014L99.9579 116.892C100.02 117.096 100.199 117.134 100.471 116.979C100.675 116.865 100.842 116.695 100.954 116.49L101.344 116.731C101.14 117.119 100.828 117.439 100.447 117.653C99.698 118.086 99.2093 117.839 99.2093 117.121C99.2259 116.733 99.3393 116.356 99.5392 116.023C99.7392 115.69 100.019 115.412 100.354 115.216C100.985 114.851 101.48 115.018 101.486 115.797ZM99.9393 116.453L100.799 115.958C100.756 115.723 100.595 115.661 100.366 115.797C100.251 115.868 100.153 115.963 100.079 116.077C100.005 116.19 99.9572 116.319 99.9393 116.453Z" fill="white"/>
<path d="M99.2089 115.915L98.3489 118.823L97.5941 119.256L96.7217 117.35L97.4765 116.917L97.9839 118.093L98.5098 116.317L99.2089 115.915Z" fill="white"/>
<path d="M103.224 113.552V114.313L103.064 114.4C102.907 114.485 102.776 114.613 102.688 114.768C102.599 114.923 102.556 115.1 102.562 115.278V116.417L101.832 116.838V114.431L102.532 114.029V114.313C102.68 113.996 102.922 113.73 103.224 113.552Z" fill="white"/>
<path d="M105.977 111.962C106.546 111.634 107.004 111.844 107.01 112.58C107.008 112.951 106.914 113.315 106.734 113.64C106.555 113.964 106.296 114.238 105.983 114.436C105.711 114.597 105.507 114.622 105.364 114.517V114.758L104.665 115.16V111.863L105.402 111.442V112.537C105.541 112.299 105.739 112.101 105.977 111.962ZM105.828 113.873C105.967 113.783 106.079 113.659 106.156 113.513C106.233 113.367 106.272 113.203 106.268 113.038C106.268 112.673 106.076 112.58 105.828 112.723C105.691 112.811 105.578 112.933 105.501 113.077C105.424 113.221 105.386 113.382 105.389 113.545C105.389 113.917 105.581 114.016 105.828 113.873Z" fill="white"/>
<path d="M109.492 111.187C109.492 111.249 109.492 111.329 109.492 111.403L107.933 112.282C107.995 112.486 108.174 112.523 108.447 112.369C108.65 112.255 108.818 112.085 108.929 111.88L109.319 112.121C109.114 112.501 108.805 112.814 108.428 113.024C107.679 113.458 107.191 113.21 107.191 112.492C107.207 112.103 107.322 111.724 107.523 111.39C107.724 111.056 108.005 110.778 108.341 110.581C108.991 110.228 109.492 110.389 109.492 111.187ZM107.945 111.843L108.805 111.348C108.762 111.113 108.601 111.051 108.379 111.181C108.262 111.252 108.162 111.348 108.087 111.463C108.012 111.577 107.964 111.707 107.945 111.843Z" fill="white"/>
<path d="M110.65 108.769V109.388L111.126 109.116V109.734L110.643 110.013V110.848C110.643 111.027 110.736 111.071 110.86 110.997C110.952 110.948 111.03 110.878 111.089 110.792L111.268 111.281C111.129 111.457 110.957 111.604 110.761 111.714C110.223 112.024 109.907 111.9 109.907 111.281V110.471L109.604 110.65V110.031L109.913 109.858V109.239L110.65 108.769Z" fill="white"/>
<path d="M112.331 107.797V108.416L112.808 108.137V108.756L112.331 109.034V109.833C112.331 110.012 112.418 110.055 112.554 109.981C112.641 109.928 112.717 109.859 112.777 109.777L112.962 110.259C112.822 110.437 112.648 110.585 112.449 110.693C111.917 111.002 111.601 110.884 111.601 110.266V109.455L111.298 109.635V109.016L111.601 108.836V108.218L112.331 107.797Z" fill="white"/>
<path d="M115.357 107.817C115.357 107.878 115.357 107.965 115.357 108.033L113.841 108.912C113.903 109.116 114.083 109.153 114.349 108.998C114.552 108.886 114.719 108.719 114.831 108.516L115.221 108.757C115.014 109.135 114.705 109.448 114.33 109.66C113.588 110.087 113.093 109.846 113.093 109.122C113.114 108.734 113.23 108.358 113.43 108.026C113.631 107.693 113.91 107.416 114.243 107.216C114.819 106.858 115.357 107.025 115.357 107.817ZM113.81 108.472L114.67 107.977C114.633 107.742 114.466 107.687 114.237 107.817C114.122 107.887 114.024 107.983 113.95 108.096C113.876 108.21 113.828 108.338 113.81 108.472Z" fill="white"/>
<path d="M117.071 105.558V106.319L116.904 106.406C116.747 106.492 116.616 106.62 116.528 106.777C116.439 106.933 116.396 107.111 116.403 107.29V108.373L115.667 108.8V106.393L116.372 105.985V106.276C116.53 105.973 116.773 105.723 117.071 105.558Z" fill="white"/>
<path d="M70.8421 94.7614C73.9851 92.9486 76.5156 88.5744 76.5094 84.955C76.5032 81.3356 73.948 79.8941 70.805 81.7068C67.662 83.5196 65.1315 87.8938 65.1439 91.5132C65.1563 95.1326 67.7177 96.6175 70.8421 94.7614Z" fill="white"/>
<path d="M93.1459 72.3526L79.4726 80.0925L79.4788 82.5425L93.152 74.8026L93.1459 72.3526Z" fill="white"/>
<path d="M79.4845 84.6704L79.4907 87.1143L98.2867 76.3428V73.8989L79.4845 84.6704Z" fill="white"/>
<path d="M117.214 56.537C117.248 56.5093 117.29 56.4943 117.334 56.4943C117.378 56.4943 117.421 56.5093 117.455 56.537C117.499 56.5668 117.535 56.6072 117.56 56.6545C117.821 57.0596 118.028 57.4962 118.179 57.9538C118.199 58.0204 118.214 58.0888 118.222 58.1579C118.229 58.2341 118.219 58.3107 118.195 58.3831C118.17 58.4555 118.131 58.522 118.08 58.5787C117.993 58.6776 117.894 58.7766 117.808 58.8633L117.43 59.2097C117.335 59.2799 117.261 59.3744 117.215 59.4833C117.169 59.5922 117.154 59.7115 117.17 59.8284C117.222 60.0907 117.31 60.3447 117.43 60.5832C117.715 61.201 118.139 61.745 118.668 62.1733C118.756 62.2404 118.852 62.2984 118.952 62.3465C118.991 62.3676 119.035 62.3787 119.079 62.3787C119.123 62.3787 119.167 62.3676 119.206 62.3465C119.316 62.271 119.406 62.1689 119.466 62.0496L119.818 61.4309C119.873 61.3469 119.933 61.2663 119.998 61.1896C120.033 61.1422 120.077 61.1022 120.128 61.072C120.154 61.059 120.182 61.0522 120.211 61.0522C120.24 61.0522 120.269 61.059 120.295 61.072C120.375 61.1047 120.452 61.1462 120.524 61.1957C120.848 61.4205 121.138 61.6915 121.384 62.0001C121.419 62.0388 121.448 62.0826 121.47 62.13C121.501 62.2141 121.51 62.3044 121.497 62.3929C121.484 62.4814 121.449 62.5653 121.396 62.6373C121.302 62.8033 121.188 62.9571 121.056 63.0952C120.751 63.4298 120.404 63.7231 120.023 63.9675C119.794 64.1332 119.532 64.2459 119.255 64.2972C118.978 64.3486 118.692 64.3374 118.42 64.2645C118.043 64.1424 117.701 63.93 117.424 63.6458C116.771 63.0069 116.265 62.2344 115.939 61.3814C115.752 60.9156 115.662 60.4168 115.673 59.915C115.708 59.1628 115.92 58.4293 116.292 57.7743C116.449 57.4736 116.633 57.1878 116.842 56.9205C116.934 56.805 117.038 56.6992 117.152 56.605C117.169 56.5798 117.19 56.5569 117.214 56.537Z" fill="white"/>
<path d="M130.725 50.116C131.196 49.8438 131.579 50.0603 131.585 50.6048V52.0154L133.473 49.7448V54.4964L131.579 54.4036V55.8142C131.566 56.111 131.481 56.4002 131.333 56.6576C131.184 56.9149 130.976 57.1328 130.725 57.2929L125.516 60.2998C125.04 60.572 124.656 60.3554 124.656 59.811V54.6016C124.669 54.3053 124.753 54.0164 124.9 53.7592C125.048 53.5019 125.255 53.2837 125.504 53.1229L130.725 50.116Z" fill="white"/>
<path opacity="0.5" d="M60.6763 191.527V212.779C60.677 213.102 60.7619 213.419 60.9224 213.699C61.083 213.978 61.3138 214.212 61.592 214.375H61.6601C61.9306 214.526 62.2352 214.605 62.5448 214.605C62.8545 214.605 63.159 214.526 63.4295 214.375L135.372 173.38C135.937 173.054 136.407 172.584 136.733 172.018C137.058 171.452 137.229 170.81 137.228 170.157V150.359L60.6763 191.527Z" fill="white"/>
<path opacity="0.5" d="M61.5928 214.373C61.3145 214.21 61.0838 213.977 60.9232 213.697C60.7626 213.417 60.6778 213.1 60.6771 212.777V191.525L56.1977 189.124V210.389C56.2013 210.761 56.3165 211.123 56.5283 211.428C56.7401 211.734 57.0388 211.969 57.3856 212.103L61.5928 214.373Z" fill="white"/>
<path d="M118.16 165.912C120.783 164.39 122.924 165.609 122.936 168.634C122.848 170.281 122.372 171.883 121.547 173.31C120.722 174.738 119.572 175.951 118.191 176.851L69.5734 204.89C66.944 206.406 64.8033 205.187 64.7971 202.168C64.7909 199.148 66.913 195.467 69.5425 193.951L118.16 165.912Z" fill="white"/>
<path d="M128.889 159.681C129.631 159.254 130.269 159.502 130.386 160.3C130.392 160.392 130.392 160.485 130.386 160.578C130.386 161.16 130.386 161.741 130.386 162.317C130.386 162.892 130.386 163.455 130.386 164.03C130.362 164.498 130.239 164.955 130.025 165.372C129.812 165.789 129.513 166.156 129.149 166.449C129.075 166.503 128.999 166.553 128.92 166.598C128.109 167.062 127.429 166.722 127.416 165.769C127.416 164.6 127.416 163.43 127.416 162.255C127.447 161.759 127.589 161.277 127.831 160.843C128.073 160.409 128.409 160.036 128.815 159.749L128.889 159.681Z" fill="#E2231C"/>
<path d="M132.329 162.885C132.415 162.836 132.422 162.885 132.415 162.941C132.376 163.854 132.137 164.747 131.716 165.558C131.204 166.661 130.442 167.629 129.489 168.386C129.465 168.4 129.447 168.422 129.435 168.447C129.423 168.472 129.418 168.5 129.421 168.528C129.421 169.085 129.421 169.66 129.421 170.217C129.427 170.25 129.422 170.285 129.406 170.315C129.39 170.345 129.365 170.369 129.334 170.384C129.192 170.458 129.056 170.539 128.92 170.619L128.511 170.854C128.431 170.904 128.412 170.885 128.419 170.798V169.957C128.419 169.672 128.419 169.388 128.419 169.103C128.419 169.035 128.419 169.029 128.344 169.048C126.89 169.53 125.919 169.122 125.498 167.705C125.442 167.47 125.409 167.229 125.399 166.987C125.396 166.957 125.402 166.927 125.416 166.9C125.431 166.874 125.453 166.852 125.48 166.839L125.833 166.641L126.179 166.437C126.235 166.406 126.253 166.406 126.259 166.437C126.297 167.86 127.2 168.379 128.295 168.045C128.512 167.979 128.72 167.885 128.914 167.767C129.983 167.092 130.802 166.086 131.246 164.902C131.44 164.422 131.549 163.911 131.568 163.393C131.563 163.363 131.568 163.333 131.583 163.307C131.598 163.281 131.621 163.261 131.648 163.25L131.989 163.052C132.106 163.021 132.217 162.953 132.329 162.885Z" fill="#E2231C"/>
<path d="M187.435 224.817C188.101 225.455 188.891 225.948 189.757 226.268C190.622 226.587 191.544 226.725 192.465 226.673C194.303 226.551 196.104 226.096 197.779 225.33C199.481 224.631 201.615 222.676 203.453 222.713C205.251 222.698 207.046 222.574 208.829 222.342C208.892 219.894 208.634 217.448 208.062 215.066L199.499 214.831C197.185 218.005 192.694 220.641 189.272 221.637C188.748 221.785 188.274 222.073 187.9 222.469C187.526 222.866 187.267 223.357 187.15 223.889C187.153 223.907 187.153 223.926 187.15 223.944C187.209 224.246 187.304 224.539 187.435 224.817Z" fill="#455A64"/>
<path d="M203.454 222.709C201.598 222.672 199.482 224.627 197.78 225.326C196.104 226.091 194.304 226.546 192.466 226.668C191.545 226.721 190.623 226.583 189.758 226.263C188.892 225.944 188.102 225.45 187.436 224.812C187.301 224.535 187.201 224.242 187.139 223.94C187.142 223.922 187.142 223.903 187.139 223.884C187.061 224.262 187.061 224.651 187.139 225.029C187.201 225.331 187.301 225.624 187.436 225.901C188.102 226.539 188.892 227.033 189.758 227.352C190.623 227.672 191.545 227.809 192.466 227.757C194.304 227.635 196.104 227.18 197.78 226.415C199.482 225.716 201.616 223.761 203.454 223.798C205.222 223.812 206.989 223.709 208.743 223.488C208.787 223.111 208.812 222.721 208.83 222.338C207.047 222.57 205.252 222.694 203.454 222.709Z" fill="#37474F"/>
<path d="M227.675 225.622C227.681 226.497 227.596 227.369 227.421 228.227C227.144 229.75 226.291 231.108 225.039 232.019C223.889 232.68 222.586 233.028 221.259 233.028C220.094 233.152 218.915 233.03 217.801 232.669C216.956 232.367 216.242 231.784 215.777 231.017C215.774 231.031 215.774 231.046 215.777 231.06C215.94 231.622 216.237 232.137 216.642 232.559C217.047 232.982 217.549 233.299 218.104 233.486C219.221 233.846 220.401 233.969 221.568 233.844C222.895 233.843 224.198 233.495 225.349 232.836C226.599 231.924 227.449 230.566 227.724 229.043C227.904 228.187 227.991 227.314 227.984 226.439C227.989 225.842 228.115 225.252 228.354 224.706C228.593 224.159 228.941 223.667 229.376 223.258C229.593 223.054 229.797 222.85 229.995 222.64C230.129 222.484 230.231 222.303 230.294 222.108C230.358 221.912 230.382 221.706 230.366 221.501C230.366 221.34 230.335 221.186 230.317 221.025C230.001 221.396 229.259 222.262 229.079 222.448C228.643 222.855 228.293 223.345 228.052 223.891C227.811 224.437 227.682 225.025 227.675 225.622Z" fill="#37474F"/>
<path d="M221.112 216.557C221.399 218.342 221.167 220.171 220.444 221.828C219.725 223.479 218.787 225.026 217.653 226.425C217.099 227.086 216.61 227.799 216.193 228.553C215.777 229.307 215.631 230.18 215.779 231.028C216.243 231.795 216.958 232.379 217.802 232.68C218.917 233.041 220.095 233.164 221.26 233.039C222.587 233.039 223.89 232.691 225.041 232.031C226.292 231.119 227.145 229.761 227.423 228.238C227.597 227.381 227.682 226.508 227.676 225.633C227.682 225.036 227.809 224.446 228.049 223.9C228.29 223.353 228.638 222.861 229.075 222.453C229.26 222.28 230.003 221.401 230.312 221.03C230.137 219.728 229.7 218.476 229.025 217.349L221.112 216.557Z" fill="#455A64"/>
<path d="M196.227 128.727L196.481 178L198.789 215.005C204.636 218.717 208.874 215.673 208.874 215.673C211.089 199.444 211.392 186.718 210.179 179.962L211.293 153.222L214.615 180.97L220.214 217.331C226.21 221.223 230.441 217.331 230.441 217.331C230.441 204.889 231.555 188.252 228.128 179.256C230.547 151.539 225.894 129.216 225.894 129.216L196.227 128.727Z" fill="#37474F"/>
<path d="M210.068 143.138L211.305 153.223L210.786 165.597L208.534 145.26C203.312 143.219 202.631 140.348 202.631 140.348C204.838 141.885 207.395 142.844 210.068 143.138Z" fill="#263238"/>
<path d="M200.2 70.6695L198.882 69.9704H198.851H198.801C198.691 69.9202 198.571 69.8973 198.45 69.9038C198.33 69.9103 198.212 69.9459 198.108 70.0075L186.149 76.9122C185.914 77.0477 185.719 77.2424 185.584 77.477C185.448 77.7115 185.376 77.9776 185.376 78.2486V84.0396C185.374 84.1612 185.403 84.2812 185.459 84.389C185.515 84.4969 185.597 84.5894 185.697 84.6583C185.744 84.69 185.794 84.7169 185.846 84.7387L187.139 85.4255L187.077 84.3675L198.48 77.7907C198.713 77.6545 198.907 77.4594 199.041 77.2249C199.176 76.9904 199.247 76.7247 199.247 76.4543V71.4119L200.2 70.6695Z" fill="#455A64"/>
<path d="M199.823 78.4641L187.863 85.3688C187.746 85.4358 187.613 85.4709 187.478 85.4706C187.343 85.4703 187.21 85.4345 187.093 85.3669C186.976 85.2993 186.879 85.2022 186.811 85.0853C186.743 84.9684 186.707 84.8357 186.706 84.7006V78.9096C186.706 78.6392 186.777 78.3735 186.912 78.139C187.046 77.9046 187.24 77.7094 187.474 77.5732L199.433 70.6685C199.55 70.6015 199.683 70.5664 199.818 70.5667C199.954 70.567 200.086 70.6027 200.203 70.6703C200.32 70.7379 200.418 70.835 200.485 70.952C200.553 71.0689 200.589 71.2015 200.59 71.3367V77.1277C200.591 77.3982 200.52 77.6641 200.385 77.8987C200.251 78.1333 200.057 78.3283 199.823 78.4641Z" fill="#37474F"/>
<path d="M187.472 78.9102C187.472 78.7744 187.509 78.6411 187.577 78.5238C187.646 78.4065 187.744 78.3093 187.862 78.242L199.821 71.3373V77.1283C199.82 77.2641 199.784 77.3974 199.716 77.5147C199.647 77.632 199.549 77.7292 199.431 77.7965L187.478 84.7012L187.472 78.9102Z" fill="#E2231C"/>
<path d="M194.619 87.4733C194.779 87.0922 195.051 86.7685 195.399 86.5452C196.41 85.9053 197.184 84.9512 197.601 83.8292C197.935 82.6189 198.118 81.3721 198.146 80.117C198.173 78.8663 198.608 77.6587 199.383 76.677C197.261 75.8232 196.395 77.7535 195.621 80.847L188.506 84.949L188.611 85.1841C188.714 85.4127 188.767 85.6605 188.767 85.9111C188.767 86.1617 188.714 86.4094 188.611 86.638L186.539 90.839C187.541 91.5536 188.709 92.0008 189.933 92.1383C191.156 92.2758 192.394 92.099 193.53 91.6247C193.813 90.221 194.176 88.8349 194.619 87.4733Z" fill="#FFA8A7"/>
<path d="M193.183 95.9981C193.554 94.4885 194.005 92.5149 194.296 90.7268C192.98 91.1856 191.577 91.3387 190.193 91.1747C188.809 91.0107 187.481 90.5338 186.309 89.7802C185.463 91.2055 184.709 92.683 184.051 94.2039C185.327 95.1947 186.818 95.873 188.404 96.1845C189.989 96.4961 191.626 96.4322 193.183 95.9981Z" fill="#455A64"/>
<path opacity="0.2" d="M193.183 95.9981C193.554 94.4885 194.005 92.5149 194.296 90.7268C192.98 91.1856 191.577 91.3387 190.193 91.1747C188.809 91.0107 187.481 90.5338 186.309 89.7802C185.463 91.2055 184.709 92.683 184.051 94.2039C185.327 95.1947 186.818 95.873 188.404 96.1845C189.989 96.4961 191.626 96.4322 193.183 95.9981Z" fill="white"/>
<path d="M192.527 98.5098C192.527 98.5098 192.818 97.4704 193.183 95.9917C191.626 96.4258 189.99 96.4896 188.404 96.1781C186.818 95.8665 185.328 95.1882 184.051 94.1975C182.029 98.8632 180.775 103.825 180.339 108.892C180.152 110.372 180.227 111.873 180.562 113.328C180.737 114.052 181.066 114.731 181.526 115.318C181.986 115.905 182.566 116.387 183.228 116.73C185.084 117.597 187.367 116.854 189.081 115.679C192.298 113.47 194.315 109.956 196.227 106.553L201.412 88.0662C198.343 88.3941 195.837 90.1079 192.527 98.5098Z" fill="#455A64"/>
<path opacity="0.3" d="M192.527 98.5098C192.527 98.5098 192.818 97.4704 193.183 95.9917C191.626 96.4258 189.99 96.4896 188.404 96.1781C186.818 95.8665 185.328 95.1882 184.051 94.1975C182.029 98.8632 180.775 103.825 180.339 108.892C180.152 110.372 180.227 111.873 180.562 113.328C180.737 114.052 181.066 114.731 181.526 115.318C181.986 115.905 182.566 116.387 183.228 116.73C185.084 117.597 187.367 116.854 189.081 115.679C192.298 113.47 194.315 109.956 196.227 106.553L201.412 88.0662C198.343 88.3941 195.837 90.1079 192.527 98.5098Z" fill="white"/>
<path opacity="0.1" d="M192.527 98.5181C191.289 102.806 189.433 109.655 189.433 109.655C193.733 105.281 192.527 98.5181 192.527 98.5181Z" fill="black"/>
<path opacity="0.1" d="M200.664 90.8083C199.085 91.8826 197.763 93.2916 196.791 94.935C195.096 97.8305 194.601 101.252 194.143 104.574C193.817 106.901 193.493 109.229 193.172 111.559C194.297 109.951 195.33 108.28 196.265 106.554L200.664 90.8083Z" fill="black"/>
<path d="M206.925 87.4852L201.406 88.0668C196.883 92.0574 194.544 100.441 195.516 109.666C196.116 116.001 196.345 122.366 196.202 128.728C208.453 137.674 223.92 131.159 225.9 129.216L224.99 117.882C224.891 116.612 225.103 115.338 225.609 114.17C226.766 111.485 228.833 106.195 229.111 102.093C229.273 98.4412 228.502 94.8087 226.871 91.5377L218.828 88.0359L206.925 87.4852Z" fill="#455A64"/>
<g opacity="0.3">
<path d="M206.925 87.4856L201.406 88.0672C196.883 92.0578 194.545 100.441 195.516 109.666C196.116 116.001 196.345 122.366 196.203 128.728C208.453 137.674 223.92 131.159 225.9 129.217L224.991 117.882C224.891 116.613 225.103 115.338 225.609 114.17C226.766 111.485 228.833 106.195 229.111 102.093C229.273 98.4416 228.502 94.8091 226.871 91.5381L218.828 88.0363L206.925 87.4856Z" fill="white"/>
</g>
<path opacity="0.1" d="M221.037 98.5161C218.241 100.756 214.015 110.333 212.078 118.079C207.401 120.882 199.401 123.357 199.401 123.357L200.212 130.422C207.314 131.425 218.989 130.132 224.05 125.504C224.514 124.588 224.96 123.679 225.38 122.812L224.984 117.863C224.885 116.593 225.097 115.319 225.603 114.151C226.76 111.465 228.826 106.176 229.105 102.074C229.213 100.041 229.004 98.0037 228.486 96.0351C226.407 96.6167 222.751 97.1364 221.037 98.5161Z" fill="black"/>
<path d="M205.415 95.5355C200.793 106.165 200.868 117.103 200.868 117.103L203.145 121.991L206.708 117.326C206.432 110.165 206.574 102.995 207.135 95.851L205.415 95.5355Z" fill="white"/>
<path d="M205.223 91.5197C205.124 92.861 205.188 94.2093 205.415 95.535C205.948 95.7976 206.544 95.9069 207.135 95.8506C208.219 94.8892 209.147 93.7665 209.888 92.522L207.135 91.5197H205.223Z" fill="white"/>
<path d="M207.136 91.5196C209.512 92.3982 211.628 96.6301 211.628 96.6301C217.87 91.3278 218.842 88.0178 218.842 88.0178C217.233 85.7348 215.482 85.3698 215.482 85.3698L207.136 91.5196Z" fill="#455A64"/>
<path d="M207.135 91.5202C205.322 91.5697 203.714 94.1002 203.714 94.1002C203.423 89.6765 207.135 86.2675 207.135 86.2675V91.5202Z" fill="#455A64"/>
<g opacity="0.2">
<path d="M207.136 91.5198C209.512 92.3983 211.628 96.6302 211.628 96.6302C217.87 91.328 218.842 88.018 218.842 88.018C217.233 85.735 215.482 85.3699 215.482 85.3699L207.136 91.5198Z" fill="white"/>
<path d="M207.135 91.5204C205.323 91.5698 203.714 94.1003 203.714 94.1003C203.423 89.6766 207.135 86.2676 207.135 86.2676V91.5204Z" fill="white"/>
</g>
<path d="M215.63 80.414L207.136 83.4456V86.5948C209.047 86.3271 210.881 85.661 212.518 84.6397C213.989 83.6085 215.082 82.1244 215.63 80.414Z" fill="#FF9192"/>
<path d="M215.63 80.4151C215.086 82.123 214 83.6067 212.536 84.6408C210.899 85.6621 209.065 86.3282 207.154 86.5959V91.5455C207.154 91.5455 216.137 87.5116 216.137 85.6122V80.2666L215.63 80.4151Z" fill="#FFA8A7"/>
<path d="M199.26 67.9527C198.056 67.9926 196.876 67.6095 195.925 66.87C195.386 66.4465 194.936 65.9209 194.601 65.3232C194.54 65.2051 194.514 65.072 194.525 64.9395C194.536 64.807 194.585 64.6805 194.665 64.5744C194.745 64.4683 194.854 64.3871 194.978 64.34C195.103 64.293 195.238 64.2821 195.368 64.3086C196.019 64.4229 196.685 64.4229 197.336 64.3086C196.582 63.3308 196.03 62.2133 195.711 61.0206C195.393 59.8279 195.314 58.5839 195.48 57.3606C195.5 57.2262 195.552 57.0984 195.631 56.9874C195.71 56.8765 195.813 56.7853 195.933 56.7211C196.053 56.6569 196.186 56.6215 196.322 56.6176C196.458 56.6137 196.593 56.6414 196.717 56.6986C199.422 58.0409 202.433 58.649 205.447 58.4619C207.049 58.3505 208.633 58.0102 210.235 57.8865C211.851 57.6943 213.489 57.9512 214.968 58.6289C215.699 58.9707 216.324 59.5035 216.777 60.1711C217.23 60.8387 217.495 61.6162 217.542 62.4215C217.725 62.1624 217.962 61.9459 218.237 61.7868C218.511 61.6277 218.817 61.5298 219.132 61.4997C219.463 61.4576 219.799 61.4848 220.118 61.5796C220.438 61.6744 220.734 61.8347 220.988 62.0503C220.06 62.5577 219.132 63.0712 218.229 63.5785C219.182 63.2444 220.376 63.9868 220.852 64.8778C221.251 65.8079 221.425 66.819 221.36 67.829C221.418 69.1701 221.358 70.5137 221.18 71.8443C221.001 73.1809 220.477 74.4476 219.658 75.5194C218.936 76.3936 217.975 77.0386 216.893 77.3755C215.42 77.7834 213.857 77.7338 212.413 77.2332C210.976 76.7303 209.609 76.0485 208.342 75.2038C205.101 73.0669 202.061 70.6399 199.26 67.9527Z" fill="#263238"/>
<path d="M199.061 65.28C198.134 70.8345 198.745 76.5371 200.831 81.7682C201.313 82.9747 201.938 84.243 203.07 84.8617C204.203 85.4804 205.718 85.4 207.067 85.1958C209.255 84.9484 211.388 84.3487 213.384 83.4202C215.392 82.4716 216.957 80.7851 217.752 78.7119C218.467 78.8563 219.209 78.7913 219.889 78.5246C220.568 78.2579 221.156 77.8009 221.582 77.2084C222.417 75.9761 222.85 74.5147 222.819 73.026C222.819 72.0794 222.646 70.9658 221.798 70.5512C220.951 70.1367 220.06 70.5946 219.373 71.1699C218.249 72.0854 217.427 73.3189 217.016 74.7089C216.397 72.4073 215.42 70.18 214.795 67.9032C214.547 66.9937 214.244 66.01 213.452 65.5027C212.487 64.884 211.225 65.2366 210.111 65.5027C206.469 66.3704 202.666 66.2938 199.061 65.28Z" fill="#FFA8A7"/>
<path d="M205.774 72.2773L203.082 76.8124L206.294 77.4125L205.774 72.2773Z" fill="#F28F8F"/>
<path d="M209.399 78.9794L206.925 80.1673C207.134 80.4463 207.428 80.6488 207.764 80.7439C208.099 80.8389 208.456 80.8211 208.781 80.6932C209.065 80.5216 209.281 80.2578 209.393 79.9458C209.506 79.6339 209.508 79.2927 209.399 78.9794Z" fill="#F28F8F"/>
<path opacity="0.3" d="M209.399 78.9794L206.925 80.1673C207.134 80.4463 207.428 80.6488 207.764 80.7439C208.099 80.8389 208.456 80.8211 208.781 80.6932C209.065 80.5216 209.281 80.2578 209.393 79.9458C209.506 79.6339 209.508 79.2927 209.399 78.9794Z" fill="black"/>
<path d="M207.951 80.7721C208.235 80.8279 208.53 80.7999 208.799 80.6917C209.022 80.5655 209.204 80.3761 209.321 80.1472C209.437 79.9183 209.484 79.66 209.454 79.4048C209.076 79.3974 208.71 79.535 208.431 79.7893C208.151 80.0435 207.979 80.3952 207.951 80.7721Z" fill="#F28F8F"/>
<path d="M210.426 72.4888C210.438 72.6107 210.426 72.7338 210.391 72.851C210.355 72.9683 210.297 73.0775 210.22 73.1722C210.142 73.267 210.047 73.3456 209.939 73.4035C209.831 73.4614 209.713 73.4975 209.591 73.5097C209.469 73.5219 209.346 73.5099 209.228 73.4746C209.111 73.4392 209.002 73.381 208.907 73.3035C208.812 73.2259 208.734 73.1305 208.676 73.0225C208.618 72.9146 208.582 72.7963 208.57 72.6744C208.545 72.4283 208.619 72.1825 208.776 71.991C208.933 71.7996 209.159 71.6782 209.405 71.6536C209.651 71.629 209.897 71.7032 210.088 71.8598C210.28 72.0164 210.401 72.2427 210.426 72.4888Z" fill="#263238"/>
<path d="M202.693 72.9328C202.715 73.1769 202.641 73.4201 202.486 73.6099C202.331 73.7997 202.108 73.9209 201.864 73.9475C201.683 73.9648 201.501 73.9281 201.34 73.8421C201.18 73.7561 201.049 73.6246 200.963 73.4641C200.877 73.3036 200.841 73.1213 200.859 72.9403C200.876 72.7592 200.947 72.5874 201.062 72.4465C201.177 72.3057 201.332 72.202 201.506 72.1486C201.679 72.0952 201.865 72.0944 202.04 72.1464C202.214 72.1984 202.369 72.3008 202.485 72.4408C202.602 72.5807 202.674 72.7519 202.693 72.9328Z" fill="#263238"/>
<path d="M201.43 69.3949L199.537 71.0097C199.421 70.7677 199.383 70.4959 199.427 70.2313C199.472 69.9667 199.596 69.7222 199.784 69.531C200.018 69.3565 200.297 69.2512 200.588 69.2272C200.879 69.2031 201.171 69.2612 201.43 69.3949Z" fill="#263238"/>
<path d="M209.282 68.4676L211.46 69.6741C211.522 69.4124 211.504 69.1378 211.407 68.8869C211.309 68.636 211.138 68.4207 210.915 68.2697C210.651 68.1471 210.359 68.1007 210.07 68.1357C209.782 68.1706 209.508 68.2856 209.282 68.4676Z" fill="#263238"/>
<path opacity="0.15" d="M193.932 130.077C193.936 130.067 193.936 130.056 193.932 130.046V130.015C193.932 130.015 193.932 130.015 193.932 129.984V129.953L187.999 118.612L187.126 119.454L193.06 130.795C193.096 130.86 193.121 130.931 193.134 131.005C193.138 131.028 193.137 131.051 193.132 131.073C193.126 131.095 193.117 131.116 193.103 131.135L193.945 130.194C193.947 130.18 193.947 130.165 193.945 130.151C193.948 130.137 193.948 130.122 193.945 130.108L193.932 130.077Z" fill="white"/>
<path opacity="0.2" d="M187.918 118.483V118.445V118.408V118.377V118.34V118.303V118.266L187.887 118.229V118.198L187.8 118.117H187.769H187.739H187.708H187.67H187.633H187.596L179.702 113.23H179.658H179.621H179.584H179.547H179.51H179.473H179.436H179.398H179.361H179.231C179.193 113.232 179.156 113.248 179.126 113.273L178.285 114.214C178.315 114.193 178.35 114.179 178.386 114.174C178.423 114.168 178.46 114.171 178.495 114.183C178.628 114.221 178.755 114.277 178.873 114.35L185.796 118.346C185.933 118.424 186.063 118.513 186.186 118.612C186.317 118.715 186.443 118.825 186.563 118.94C186.678 119.05 186.786 119.168 186.885 119.293C186.969 119.397 187.043 119.509 187.107 119.627L187.949 118.687L187.918 118.483Z" fill="white"/>
<path d="M187.795 129.829C185.32 128.276 183.464 125.251 183.853 122.361C183.853 122.361 188.469 124.787 190.535 123.494L189.471 121.464C192.398 121.444 195.241 122.441 197.514 124.286C201.911 123.533 206.209 122.288 210.327 120.573C211.529 120.036 212.77 119.591 214.04 119.243C215.316 118.899 216.665 118.937 217.919 119.355C218.541 119.57 219.098 119.941 219.538 120.431C219.977 120.921 220.284 121.515 220.431 122.157C220.51 122.836 220.421 123.524 220.171 124.16C219.92 124.795 219.517 125.359 218.995 125.801C217.947 126.678 216.733 127.335 215.426 127.732C210.086 129.637 190.263 131.376 187.795 129.829Z" fill="#FFA8A7"/>
<path d="M216.824 110.791L213.05 120.504L217.207 126.982C223.264 124.229 222.021 125.015 226.209 114.893L216.824 110.791Z" fill="#FFA8A7"/>
<path d="M205.161 121.693C203.293 122.413 201.366 122.97 199.401 123.358C197.681 126.853 199.729 130.064 200.212 130.423C202.482 130.367 204.747 130.213 206.931 129.953C206.025 128.802 205.395 127.46 205.088 126.028C204.782 124.597 204.807 123.114 205.161 121.693Z" fill="#455A64"/>
<path opacity="0.2" d="M205.161 121.693C203.293 122.413 201.366 122.97 199.401 123.358C197.681 126.853 199.729 130.064 200.212 130.423C202.482 130.367 204.747 130.213 206.931 129.953C206.025 128.802 205.395 127.46 205.088 126.028C204.782 124.597 204.807 123.114 205.161 121.693Z" fill="white"/>
<path d="M224.948 90.7152C220.406 96.0855 215.395 112.747 213.044 118.68C213.044 118.68 208.991 120.345 205.162 121.693C204.806 123.113 204.78 124.596 205.086 126.028C205.391 127.459 206.02 128.802 206.925 129.953C214.213 129.093 220.58 127.095 223.011 123.945C229.718 110.012 235.812 91.2782 224.948 90.7152Z" fill="#455A64"/>
<path opacity="0.3" d="M224.948 90.7152C220.406 96.0855 215.395 112.747 213.044 118.68C213.044 118.68 208.991 120.345 205.162 121.693C204.806 123.113 204.78 124.596 205.086 126.028C205.391 127.459 206.02 128.802 206.925 129.953C214.213 129.093 220.58 127.095 223.011 123.945C229.718 110.012 235.812 91.2782 224.948 90.7152Z" fill="white"/>
<path d="M193.932 130.077C193.935 130.067 193.935 130.056 193.932 130.046V130.015C193.932 130.015 193.932 130.015 193.932 129.984V129.953L187.998 118.612V118.575V118.538V118.507V118.47V118.433V118.396L187.967 118.359V118.328L187.881 118.247H187.85H187.819H187.788H187.751H187.714H187.677L179.702 113.23H179.658H179.621H179.584H179.547H179.51H179.473H179.436H179.398H179.361H179.231C179.193 113.232 179.156 113.248 179.126 113.273L178.285 114.214C178.285 114.214 178.285 114.214 178.316 114.214C178.347 114.214 178.235 114.374 178.316 114.56L184.249 125.907C184.58 126.432 185.032 126.871 185.567 127.188L192.49 131.184C192.849 131.389 193.059 131.395 193.109 131.246C193.112 131.269 193.112 131.292 193.109 131.314L193.95 130.374C193.952 130.36 193.952 130.345 193.95 130.331C193.954 130.316 193.954 130.302 193.95 130.287L193.932 130.077ZM178.409 113.991C178.409 113.991 178.409 113.991 178.458 113.991H178.409ZM193.084 131.005C193.08 130.924 193.057 130.846 193.016 130.776C193.052 130.841 193.078 130.913 193.09 130.986C193.09 130.986 193.096 131.017 193.096 131.024L193.084 131.005Z" fill="#455A64"/>
<path d="M152.405 35.7913C152.567 35.898 152.703 36.0416 152.799 36.2104C152.896 36.3791 152.952 36.5684 152.962 36.7626V42.3309C152.962 42.6898 152.708 42.8321 152.399 42.6526C152.237 42.5465 152.102 42.4039 152.005 42.2363C151.909 42.0687 151.853 41.8807 151.842 41.6875V36.1192C151.86 35.7603 152.095 35.6119 152.405 35.7913Z" fill="#E2231C"/>
<path d="M155.399 34.555C155.563 34.6611 155.699 34.8043 155.797 34.9732C155.895 35.142 155.951 35.3315 155.962 35.5264L155.931 47.0403C155.931 47.393 155.677 47.5353 155.368 47.3559C155.205 47.2504 155.069 47.1081 154.971 46.9404C154.874 46.7728 154.817 46.5845 154.805 46.3907L154.842 34.8767C154.842 34.5241 155.096 34.3756 155.399 34.555Z" fill="#E2231C"/>
<path d="M158.388 38.1739C158.551 38.2794 158.687 38.4217 158.785 38.5893C158.883 38.757 158.94 38.9453 158.951 39.1391V46.7367C158.951 47.0893 158.698 47.2378 158.388 47.0584C158.226 46.9523 158.092 46.8097 157.995 46.642C157.898 46.4744 157.842 46.2865 157.831 46.0932V38.4956C157.831 38.1368 158.085 37.9945 158.388 38.1739Z" fill="#E2231C"/>
<path d="M161.389 37.2702C161.551 37.3764 161.685 37.519 161.782 37.6866C161.879 37.8542 161.935 38.0422 161.946 38.2354V47.5159C161.946 47.8685 161.692 48.0108 161.383 47.8314C161.221 47.7253 161.086 47.5827 160.989 47.415C160.893 47.2474 160.837 47.0594 160.826 46.8662V37.5858C160.832 37.2207 161.079 37.0908 161.389 37.2702Z" fill="#E2231C"/>
<path d="M164.37 40.7911C164.534 40.8972 164.67 41.0405 164.768 41.2093C164.866 41.3781 164.923 41.5677 164.933 41.7625V47.4545C164.933 47.8072 164.686 47.9557 164.37 47.7762C164.208 47.6695 164.072 47.5259 163.976 47.3571C163.879 47.1884 163.823 46.9992 163.813 46.8049V41.1191C163.813 40.7602 164.067 40.6117 164.37 40.7911Z" fill="#E2231C"/>
<path d="M167.372 41.4653C167.534 41.5714 167.668 41.714 167.765 41.8816C167.862 42.0493 167.918 42.2372 167.929 42.4305L167.898 53.9259C167.898 54.2785 167.638 54.4208 167.335 54.2476C167.171 54.1415 167.034 53.9982 166.937 53.8294C166.839 53.6606 166.782 53.471 166.772 53.2762L166.809 41.7684C166.809 41.4282 167.056 41.2859 167.372 41.4653Z" fill="#E2231C"/>
<path d="M170.359 41.0748C170.523 41.1809 170.659 41.3242 170.757 41.493C170.855 41.6618 170.911 41.8514 170.922 42.0462L170.879 58.4788C170.879 58.8376 170.625 58.9738 170.309 58.7943C170.148 58.6882 170.013 58.5456 169.916 58.378C169.82 58.2104 169.764 58.0224 169.753 57.8292L169.802 41.3966C169.802 41.0439 170.056 40.9325 170.359 41.0748Z" fill="#E2231C"/>
<path d="M173.348 44.9172C173.51 45.0233 173.645 45.1659 173.742 45.3336C173.838 45.5012 173.894 45.6891 173.905 45.8824L173.874 57.3963C173.874 57.749 173.621 57.8913 173.311 57.718C173.149 57.6113 173.013 57.4677 172.917 57.299C172.82 57.1302 172.764 56.941 172.754 56.7467L172.785 45.2389C172.785 44.8863 173.039 44.7378 173.348 44.9172Z" fill="#E2231C"/>
<path d="M176.336 49.5949C176.498 49.7017 176.634 49.8452 176.73 50.014C176.827 50.1828 176.883 50.372 176.893 50.5663V57.7308C176.893 58.0834 176.633 58.2319 176.33 58.0525C176.166 57.9465 176.029 57.8032 175.932 57.6344C175.834 57.4656 175.777 57.276 175.767 57.0812V49.9105C175.767 49.5949 176.02 49.4279 176.336 49.5949Z" fill="#E2231C"/>
<path d="M179.33 48.3567C179.492 48.4628 179.626 48.6054 179.723 48.773C179.82 48.9407 179.876 49.1286 179.887 49.3219L179.856 60.8358C179.856 61.1885 179.608 61.337 179.293 61.1575C179.13 61.0508 178.995 60.9072 178.898 60.7384C178.801 60.5697 178.746 60.3805 178.736 60.1862L178.767 48.6784C178.767 48.3567 179.02 48.1896 179.33 48.3567Z" fill="#E2231C"/>
<path d="M185.307 53.2696C185.469 53.3758 185.603 53.5184 185.7 53.686C185.797 53.8536 185.853 54.0416 185.864 54.2348V63.2183C185.864 63.571 185.616 63.7194 185.301 63.54C185.138 63.4333 185.003 63.2897 184.906 63.1209C184.809 62.9522 184.754 62.763 184.744 62.5687V53.5852C184.744 53.2263 184.998 53.0902 185.307 53.2696Z" fill="#E2231C"/>
<path d="M182.325 49.0323C182.488 49.139 182.623 49.2826 182.72 49.4514C182.817 49.6201 182.872 49.8093 182.882 50.0036L182.839 65.5453C182.839 65.898 182.585 66.0465 182.276 65.867C182.114 65.7609 181.979 65.6183 181.883 65.4507C181.786 65.283 181.73 65.0951 181.719 64.9019L181.762 49.3602C181.762 48.9766 182.01 48.8528 182.325 49.0323Z" fill="#E2231C"/>
<path d="M188.296 56.5114C188.459 56.6181 188.594 56.7617 188.691 56.9305C188.787 57.0993 188.843 57.2885 188.853 57.4827V63.6078C188.853 63.9605 188.599 64.1028 188.29 63.9234C188.128 63.8173 187.993 63.6747 187.897 63.507C187.8 63.3394 187.744 63.1514 187.733 62.9582V56.8331C187.745 56.4805 187.987 56.3382 188.296 56.5114Z" fill="#E2231C"/>
<g opacity="0.2">
<path d="M152.405 35.7908C152.567 35.8976 152.703 36.0412 152.799 36.2099C152.896 36.3787 152.952 36.5679 152.962 36.7622V42.3305C152.962 42.6893 152.708 42.8316 152.399 42.6522C152.237 42.5461 152.102 42.4035 152.005 42.2358C151.909 42.0682 151.853 41.8802 151.842 41.687V36.1188C151.86 35.7599 152.095 35.6114 152.405 35.7908Z" fill="black"/>
<path d="M155.399 34.5546C155.563 34.6606 155.699 34.8039 155.797 34.9727C155.895 35.1415 155.951 35.3311 155.962 35.5259L155.931 47.0399C155.931 47.3926 155.677 47.5349 155.368 47.3554C155.205 47.25 155.069 47.1077 154.971 46.94C154.874 46.7724 154.817 46.584 154.805 46.3903L154.842 34.8763C154.842 34.5236 155.096 34.3752 155.399 34.5546Z" fill="black"/>
<path d="M158.388 38.1735C158.551 38.2789 158.687 38.4212 158.785 38.5889C158.883 38.7566 158.94 38.9449 158.951 39.1387V46.7363C158.951 47.0889 158.698 47.2374 158.388 47.058C158.226 46.9519 158.092 46.8092 157.995 46.6416C157.898 46.474 157.842 46.286 157.831 46.0928V38.4952C157.831 38.1364 158.085 37.9941 158.388 38.1735Z" fill="black"/>
<path d="M161.389 37.2698C161.551 37.3759 161.685 37.5185 161.782 37.6862C161.879 37.8538 161.935 38.0418 161.946 38.235V47.5154C161.946 47.8681 161.692 48.0104 161.383 47.831C161.221 47.7248 161.086 47.5822 160.989 47.4146C160.893 47.247 160.837 47.059 160.826 46.8658V37.5853C160.832 37.2203 161.079 37.0904 161.389 37.2698Z" fill="black"/>
<path d="M164.37 40.7907C164.534 40.8968 164.67 41.04 164.768 41.2089C164.866 41.3777 164.923 41.5672 164.933 41.7621V47.4541C164.933 47.8067 164.686 47.9552 164.37 47.7758C164.208 47.6691 164.072 47.5255 163.976 47.3567C163.879 47.1879 163.823 46.9987 163.813 46.8045V41.1186C163.813 40.7598 164.067 40.6113 164.37 40.7907Z" fill="black"/>
<path d="M167.372 41.4649C167.534 41.571 167.668 41.7136 167.765 41.8812C167.862 42.0488 167.918 42.2368 167.929 42.43L167.898 53.9254C167.898 54.2781 167.638 54.4204 167.335 54.2471C167.171 54.1411 167.034 53.9978 166.937 53.829C166.839 53.6602 166.782 53.4706 166.772 53.2758L166.809 41.768C166.809 41.4277 167.056 41.2854 167.372 41.4649Z" fill="black"/>
<path d="M170.359 41.0744C170.523 41.1805 170.659 41.3237 170.757 41.4926C170.855 41.6614 170.911 41.8509 170.922 42.0458L170.879 58.4784C170.879 58.8372 170.625 58.9733 170.309 58.7939C170.148 58.6878 170.013 58.5452 169.916 58.3775C169.82 58.2099 169.764 58.022 169.753 57.8287L169.802 41.3961C169.802 41.0435 170.056 40.9321 170.359 41.0744Z" fill="black"/>
<path d="M173.348 44.9168C173.51 45.0229 173.645 45.1655 173.742 45.3331C173.838 45.5007 173.894 45.6887 173.905 45.8819L173.874 57.3959C173.874 57.7485 173.621 57.8908 173.311 57.7176C173.149 57.6109 173.013 57.4673 172.917 57.2985C172.82 57.1297 172.764 56.9405 172.754 56.7463L172.785 45.2385C172.785 44.8858 173.039 44.7373 173.348 44.9168Z" fill="black"/>
<path d="M176.336 49.5945C176.498 49.7012 176.634 49.8448 176.73 50.0136C176.827 50.1824 176.883 50.3716 176.893 50.5658V57.7304C176.893 58.083 176.633 58.2315 176.33 58.0521C176.166 57.946 176.029 57.8027 175.932 57.6339C175.834 57.4651 175.777 57.2756 175.767 57.0807V49.91C175.767 49.5945 176.02 49.4274 176.336 49.5945Z" fill="black"/>
<path d="M179.33 48.3563C179.492 48.4624 179.626 48.605 179.723 48.7726C179.82 48.9402 179.876 49.1282 179.887 49.3214L179.856 60.8354C179.856 61.188 179.608 61.3365 179.293 61.1571C179.13 61.0504 178.995 60.9068 178.898 60.738C178.801 60.5692 178.746 60.38 178.736 60.1858L178.767 48.678C178.767 48.3563 179.02 48.1892 179.33 48.3563Z" fill="black"/>
<path d="M185.307 53.2692C185.469 53.3754 185.603 53.518 185.7 53.6856C185.797 53.8532 185.853 54.0412 185.864 54.2344V63.2179C185.864 63.5705 185.616 63.719 185.301 63.5396C185.138 63.4328 185.003 63.2893 184.906 63.1205C184.809 62.9517 184.754 62.7625 184.744 62.5682V53.5848C184.744 53.2259 184.998 53.0898 185.307 53.2692Z" fill="black"/>
<path d="M182.325 49.0318C182.488 49.1386 182.623 49.2822 182.72 49.4509C182.817 49.6197 182.872 49.8089 182.882 50.0032L182.839 65.5449C182.839 65.8975 182.585 66.046 182.276 65.8666C182.114 65.7605 181.979 65.6179 181.883 65.4502C181.786 65.2826 181.73 65.0946 181.719 64.9014L181.762 49.3598C181.762 48.9762 182.01 48.8524 182.325 49.0318Z" fill="black"/>
<path d="M188.296 56.511C188.459 56.6177 188.594 56.7613 188.691 56.9301C188.787 57.0988 188.843 57.288 188.853 57.4823V63.6074C188.853 63.9601 188.599 64.1024 188.29 63.923C188.128 63.8168 187.993 63.6742 187.897 63.5066C187.8 63.339 187.744 63.151 187.733 62.9578V56.8327C187.745 56.48 187.987 56.3377 188.296 56.511Z" fill="black"/>
</g>
<path d="M233.065 74.0085C233.227 74.1147 233.362 74.2573 233.459 74.4249C233.555 74.5925 233.611 74.7805 233.622 74.9737V84.7491C233.622 85.1018 233.368 85.2441 233.059 85.0646C232.897 84.9585 232.763 84.8159 232.666 84.6483C232.569 84.4807 232.513 84.2927 232.502 84.0995V74.3302C232.502 73.9776 232.75 73.8291 233.065 74.0085Z" fill="#E2231C"/>
<path d="M236.06 71.7C236.223 71.806 236.36 71.9493 236.458 72.1181C236.556 72.287 236.612 72.4765 236.623 72.6714V88.8008C236.623 89.1534 236.369 89.3019 236.053 89.1163C235.892 89.0102 235.757 88.8676 235.66 88.7C235.564 88.5323 235.508 88.3444 235.497 88.1512L235.528 72.0217C235.497 71.6691 235.75 71.5206 236.06 71.7Z" fill="#E2231C"/>
<path d="M239.048 75.6108C239.21 75.7169 239.345 75.8595 239.441 76.0271C239.538 76.1948 239.594 76.3827 239.605 76.576V89.2654C239.605 89.6181 239.351 89.7666 239.048 89.5872C238.885 89.4817 238.749 89.3394 238.652 89.1718C238.554 89.0041 238.497 88.8158 238.485 88.622V75.9325C238.479 75.5799 238.739 75.4314 239.048 75.6108Z" fill="#E2231C"/>
<path d="M242.048 78.8101C242.21 78.9168 242.346 79.0604 242.442 79.2292C242.539 79.3979 242.595 79.5871 242.605 79.7814V89.0619C242.605 89.4145 242.351 89.563 242.042 89.3836C241.878 89.2797 241.741 89.1377 241.644 88.9696C241.547 88.8015 241.493 88.6124 241.485 88.4184V79.138C241.485 78.7791 241.732 78.6307 242.048 78.8101Z" fill="#E2231C"/>
<path d="M245.03 82.6764C245.193 82.7832 245.328 82.9267 245.425 83.0955C245.522 83.2643 245.577 83.4535 245.587 83.6478V89.3336C245.587 89.6924 245.34 89.8347 245.03 89.6553C244.867 89.5499 244.731 89.4076 244.634 89.2399C244.536 89.0722 244.479 88.8839 244.467 88.6902V82.9981C244.467 82.6393 244.721 82.497 245.03 82.6764Z" fill="#E2231C"/>
<path d="M248.024 80.7211C248.187 80.8278 248.322 80.9714 248.419 81.1402C248.516 81.309 248.571 81.4982 248.581 81.6925L248.55 93.2002C248.55 93.5529 248.297 93.7014 247.987 93.5219C247.826 93.4158 247.691 93.2732 247.594 93.1056C247.497 92.938 247.441 92.75 247.431 92.5568V81.0428C247.461 80.6902 247.709 80.5293 248.024 80.7211Z" fill="#E2231C"/>
<path d="M251.019 80.3391C251.183 80.4451 251.319 80.5884 251.417 80.7572C251.515 80.926 251.571 81.1156 251.582 81.3104L251.532 97.7369C251.532 98.0957 251.279 98.238 250.969 98.0524C250.806 97.9469 250.671 97.8046 250.573 97.637C250.475 97.4693 250.418 97.281 250.406 97.0872L250.456 80.6608C250.456 80.302 250.71 80.1597 251.019 80.3391Z" fill="#E2231C"/>
<path d="M254.008 84.1732C254.17 84.28 254.305 84.4235 254.402 84.5923C254.499 84.7611 254.555 84.9503 254.564 85.1446L254.534 96.6523C254.534 97.0112 254.274 97.1535 253.97 96.9741C253.808 96.8686 253.672 96.7263 253.574 96.5587C253.476 96.391 253.419 96.2027 253.407 96.0089L253.445 84.4949C253.445 84.1423 253.698 84 254.008 84.1732Z" fill="#E2231C"/>
<path d="M256.99 88.8697C257.151 88.9758 257.286 89.1184 257.383 89.286C257.479 89.4537 257.536 89.6416 257.546 89.8348V97.0056C257.546 97.3582 257.293 97.5005 256.983 97.3211C256.82 97.215 256.683 97.0717 256.585 96.9029C256.488 96.7341 256.431 96.5446 256.42 96.3497V89.1914C256.42 88.8326 256.674 88.6841 256.99 88.8697Z" fill="#E2231C"/>
<path d="M259.984 88.7518C260.148 88.8557 260.285 88.9977 260.381 89.1658C260.478 89.3339 260.533 89.5231 260.541 89.717L260.51 100.105C260.51 100.464 260.263 100.606 259.947 100.427C259.785 100.32 259.651 100.178 259.554 100.01C259.457 99.8426 259.401 99.6547 259.39 99.4614L259.421 89.0735C259.427 88.7147 259.675 88.5724 259.984 88.7518Z" fill="#E2231C"/>
<path d="M265.961 92.5271C266.125 92.6306 266.262 92.7726 266.359 92.9407C266.456 93.1089 266.51 93.2982 266.517 93.4923V102.476C266.517 102.828 266.27 102.977 265.961 102.797C265.798 102.692 265.662 102.55 265.564 102.382C265.466 102.214 265.409 102.026 265.398 101.832V92.8488C265.404 92.49 265.651 92.3477 265.961 92.5271Z" fill="#E2231C"/>
<path d="M262.979 86.2461C263.143 86.3522 263.279 86.4954 263.377 86.6643C263.475 86.8331 263.532 87.0226 263.542 87.2175L263.499 104.807C263.499 105.16 263.239 105.302 262.936 105.123C262.773 105.017 262.637 104.875 262.539 104.707C262.441 104.539 262.384 104.351 262.373 104.157L262.422 86.5678C262.422 86.209 262.67 86.0605 262.979 86.2461Z" fill="#E2231C"/>
<path d="M268.949 95.774C269.112 95.8794 269.248 96.0217 269.346 96.1894C269.443 96.357 269.5 96.5454 269.512 96.7391V102.864C269.512 103.217 269.258 103.359 268.949 103.186C268.786 103.079 268.651 102.936 268.554 102.767C268.458 102.598 268.402 102.409 268.392 102.215V96.0957C268.392 95.7368 268.64 95.5945 268.949 95.774Z" fill="#E2231C"/>
<g opacity="0.2">
<path d="M233.065 74.0086C233.227 74.1147 233.362 74.2573 233.459 74.4249C233.555 74.5925 233.611 74.7805 233.622 74.9737V84.7491C233.622 85.1018 233.369 85.2441 233.059 85.0647C232.897 84.9585 232.763 84.8159 232.666 84.6483C232.569 84.4807 232.513 84.2927 232.502 84.0995V74.3303C232.502 73.9776 232.75 73.8291 233.065 74.0086Z" fill="black"/>
<path d="M236.061 71.7C236.224 71.8061 236.361 71.9493 236.459 72.1182C236.556 72.287 236.613 72.4765 236.624 72.6714V88.8008C236.624 89.1535 236.37 89.302 236.054 89.1163C235.892 89.0102 235.758 88.8676 235.661 88.7C235.564 88.5324 235.508 88.3444 235.497 88.1512L235.528 72.0217C235.498 71.6691 235.751 71.5206 236.061 71.7Z" fill="black"/>
<path d="M239.049 75.6108C239.211 75.7169 239.346 75.8595 239.442 76.0272C239.539 76.1948 239.595 76.3828 239.606 76.576V89.2655C239.606 89.6181 239.352 89.7666 239.049 89.5872C238.886 89.4817 238.75 89.3394 238.652 89.1718C238.555 89.0041 238.498 88.8158 238.486 88.622V75.9325C238.48 75.5799 238.74 75.4314 239.049 75.6108Z" fill="black"/>
<path d="M242.049 78.8101C242.211 78.9168 242.346 79.0604 242.443 79.2292C242.54 79.398 242.595 79.5872 242.605 79.7814V89.0619C242.605 89.4146 242.352 89.5631 242.042 89.3836C241.878 89.2798 241.742 89.1377 241.645 88.9696C241.548 88.8015 241.493 88.6124 241.486 88.4185V79.138C241.486 78.7792 241.733 78.6307 242.049 78.8101Z" fill="black"/>
<path d="M245.03 82.6764C245.193 82.7832 245.328 82.9268 245.425 83.0955C245.522 83.2643 245.577 83.4535 245.587 83.6478V89.3336C245.587 89.6925 245.34 89.8348 245.03 89.6553C244.867 89.5499 244.732 89.4076 244.634 89.2399C244.536 89.0723 244.479 88.8839 244.467 88.6902V82.9982C244.467 82.6393 244.721 82.497 245.03 82.6764Z" fill="black"/>
<path d="M248.025 80.7211C248.188 80.8279 248.323 80.9714 248.42 81.1402C248.517 81.309 248.572 81.4982 248.582 81.6925L248.551 93.2002C248.551 93.5529 248.298 93.7014 247.988 93.522C247.826 93.4158 247.692 93.2732 247.595 93.1056C247.498 92.938 247.442 92.75 247.431 92.5568V81.0428C247.462 80.6902 247.71 80.5293 248.025 80.7211Z" fill="black"/>
<path d="M251.02 80.3391C251.184 80.4451 251.32 80.5884 251.418 80.7572C251.516 80.9261 251.572 81.1156 251.583 81.3104L251.533 97.7369C251.533 98.0957 251.28 98.238 250.97 98.0524C250.807 97.947 250.671 97.8046 250.574 97.637C250.476 97.4693 250.419 97.281 250.407 97.0872L250.457 80.6608C250.457 80.302 250.71 80.1597 251.02 80.3391Z" fill="black"/>
<path d="M254.008 84.1732C254.17 84.28 254.306 84.4236 254.402 84.5923C254.499 84.7611 254.555 84.9503 254.565 85.1446L254.534 96.6524C254.534 97.0112 254.274 97.1535 253.971 96.9741C253.808 96.8686 253.672 96.7263 253.574 96.5587C253.476 96.391 253.419 96.2027 253.408 96.0089L253.445 84.495C253.445 84.1423 253.698 84 254.008 84.1732Z" fill="black"/>
<path d="M256.99 88.8697C257.152 88.9758 257.287 89.1184 257.384 89.2861C257.48 89.4537 257.536 89.6417 257.547 89.8349V97.0056C257.547 97.3582 257.294 97.5005 256.984 97.3211C256.82 97.2151 256.684 97.0718 256.586 96.903C256.488 96.7341 256.432 96.5446 256.421 96.3498V89.1914C256.421 88.8326 256.675 88.6841 256.99 88.8697Z" fill="black"/>
<path d="M259.985 88.7518C260.149 88.8557 260.285 88.9978 260.382 89.1659C260.479 89.334 260.534 89.5231 260.542 89.717L260.511 100.105C260.511 100.464 260.264 100.606 259.948 100.427C259.786 100.321 259.652 100.178 259.555 100.01C259.458 99.8427 259.402 99.6547 259.391 99.4615L259.422 89.0735C259.428 88.7147 259.676 88.5724 259.985 88.7518Z" fill="black"/>
<path d="M265.962 92.5254C266.126 92.6289 266.262 92.7709 266.359 92.9391C266.456 93.1072 266.511 93.2966 266.518 93.4906V102.474C266.518 102.827 266.271 102.975 265.962 102.796C265.799 102.69 265.663 102.548 265.565 102.38C265.467 102.213 265.41 102.024 265.398 101.831V92.8471C265.405 92.4883 265.652 92.346 265.962 92.5254Z" fill="black"/>
<path d="M262.979 86.2461C263.143 86.3522 263.279 86.4955 263.377 86.6643C263.475 86.8331 263.532 87.0226 263.542 87.2175L263.499 104.807C263.499 105.16 263.239 105.302 262.936 105.123C262.773 105.017 262.637 104.875 262.539 104.707C262.442 104.54 262.385 104.351 262.373 104.157L262.422 86.5678C262.422 86.209 262.67 86.0605 262.979 86.2461Z" fill="black"/>
<path d="M268.949 95.7723C269.112 95.8777 269.248 96.02 269.346 96.1877C269.443 96.3554 269.5 96.5437 269.512 96.7374V102.863C269.512 103.215 269.258 103.358 268.949 103.184C268.786 103.078 268.651 102.934 268.554 102.765C268.458 102.596 268.402 102.407 268.392 102.213V96.094C268.392 95.7352 268.64 95.5929 268.949 95.7723Z" fill="black"/>
</g>
<path d="M168.718 114.999L162.865 111.454L174.19 101.357L180.044 104.892L168.718 114.999Z" fill="#E2231C"/>
<path opacity="0.3" d="M168.718 114.999L162.865 111.454L174.19 101.357L180.044 104.892L168.718 114.999Z" fill="black"/>
<path d="M172.315 117.33C169.324 115.114 164.119 116.787 159.718 118.241C158.661 118.61 157.703 118.943 156.837 119.237C156.559 119.91 156.412 120.635 156.403 121.368C156.403 124.933 159.294 123.962 165.581 121.796C167.702 121.037 169.873 120.44 172.077 120.009C172.267 121.826 173.472 123.494 178.173 120.885L172.315 117.33Z" fill="#E2231C"/>
<path opacity="0.3" d="M172.315 117.33C169.324 115.114 164.119 116.787 159.718 118.241C158.661 118.61 157.703 118.943 156.837 119.237C156.559 119.91 156.412 120.635 156.403 121.368C156.403 124.933 159.294 123.962 165.581 121.796C167.702 121.037 169.873 120.44 172.077 120.009C172.267 121.826 173.472 123.494 178.173 120.885L172.315 117.33Z" fill="black"/>
<path d="M157.808 163.753L151.954 160.218V152.988L157.808 156.533V163.753Z" fill="#E2231C"/>
<path opacity="0.3" d="M157.808 163.753L151.954 160.218V152.988L157.808 156.533V163.753Z" fill="black"/>
<path d="M167.728 136.316C167.728 139.188 165.661 141.752 162.603 143.615C157.721 146.577 155.826 144.162 155.407 141.802L154.378 141.18C155.212 140.911 156.011 140.538 156.759 140.07C159.074 138.661 160.817 136.843 161.522 134.802C165.127 133.567 167.728 133.084 167.728 136.316Z" fill="#E2231C"/>
<path opacity="0.3" d="M167.728 136.316C167.728 139.188 165.661 141.752 162.603 143.615C157.721 146.577 155.826 144.162 155.407 141.802L154.378 141.18C155.212 140.911 156.011 140.538 156.759 140.07C159.074 138.661 160.817 136.843 161.522 134.802C165.127 133.567 167.728 133.084 167.728 136.316Z" fill="black"/>
<path d="M145.957 154.029C145.31 153.636 144.567 153.447 143.819 153.487C143.7 153.123 143.595 152.745 143.504 152.341L137.646 148.806C138.232 151.46 139.394 153.118 140.928 154.034L146.771 157.564C146.771 157.564 147.757 155.264 145.957 154.029Z" fill="#E2231C"/>
<path opacity="0.3" d="M145.957 154.029C145.31 153.636 144.567 153.447 143.819 153.487C143.7 153.123 143.595 152.745 143.504 152.341L137.646 148.806C138.232 151.46 139.394 153.118 140.928 154.034L146.771 157.564C146.771 157.564 147.757 155.264 145.957 154.029Z" fill="black"/>
<path d="M165.578 121.781C159.292 123.947 156.401 124.918 156.401 121.353C156.41 120.62 156.557 119.896 156.834 119.222C152.548 120.606 150.548 120.78 150.548 117.818C150.548 115.642 151.952 112.959 155.829 110.599C159.968 108.109 162.283 108.677 162.864 111.455L174.189 101.358C174.141 101.204 174.084 101.069 174.032 100.92C174.737 100.758 175.414 100.486 176.042 100.113L171.37 97.2105C171.222 97.1109 171.074 97.0163 170.922 96.9317L170.85 96.8869C169.468 96.1921 167.924 95.9293 166.402 96.1301C164.379 96.3677 162.405 96.9338 160.549 97.8079V97.6835L166.402 94.1485L160.549 90.6085L156.577 93.0233L151.205 96.2894V103.509C143.27 109.548 138.312 117.45 138.312 125.973C138.312 129.857 139.317 132.062 140.937 133.188L141.013 133.237C141.153 133.328 141.298 133.411 141.446 133.486L146.347 136.374C146.481 135.59 146.376 134.782 146.047 134.064C147.602 133.854 149.136 133.504 150.633 133.018C156.591 131.136 161.878 128.179 161.878 132.794C161.877 133.487 161.756 134.174 161.521 134.821C165.135 133.586 167.736 133.103 167.736 136.314C167.736 139.187 165.669 141.751 162.611 143.613C157.73 146.576 155.834 144.161 155.415 141.801L154.386 141.179L149.562 138.261L137.655 148.806L143.513 152.341C143.703 153.245 144.006 154.119 144.413 154.94C146.699 154.98 149.324 154.193 151.962 152.989V155.911L157.815 156.658L161.22 154.587V147.367C169.236 141.184 174.775 132.854 174.775 124.156C174.818 122.672 174.593 121.192 174.113 119.795C171.451 119.854 168.35 120.865 165.578 121.781Z" fill="#E2231C"/>
<path opacity="0.4" d="M165.578 121.781C159.292 123.947 156.401 124.918 156.401 121.353C156.41 120.62 156.557 119.896 156.834 119.222C152.548 120.606 150.548 120.78 150.548 117.818C150.548 115.642 151.952 112.959 155.829 110.599C159.968 108.109 162.283 108.677 162.864 111.455L174.189 101.358C174.141 101.204 174.084 101.069 174.032 100.92C174.737 100.758 175.414 100.486 176.042 100.113L171.37 97.2105C171.222 97.1109 171.074 97.0163 170.922 96.9317L170.85 96.8869C169.468 96.1921 167.924 95.9293 166.402 96.1301C164.379 96.3677 162.405 96.9338 160.549 97.8079V97.6835L166.402 94.1485L160.549 90.6085L156.577 93.0233L151.205 96.2894V103.509C143.27 109.548 138.312 117.45 138.312 125.973C138.312 129.857 139.317 132.062 140.937 133.188L141.013 133.237C141.153 133.328 141.298 133.411 141.446 133.486L146.347 136.374C146.481 135.59 146.376 134.782 146.047 134.064C147.602 133.854 149.136 133.504 150.633 133.018C156.591 131.136 161.878 128.179 161.878 132.794C161.877 133.487 161.756 134.174 161.521 134.821C165.135 133.586 167.736 133.103 167.736 136.314C167.736 139.187 165.669 141.751 162.611 143.613C157.73 146.576 155.834 144.161 155.415 141.801L154.386 141.179L149.562 138.261L137.655 148.806L143.513 152.341C143.703 153.245 144.006 154.119 144.413 154.94C146.699 154.98 149.324 154.193 151.962 152.989V155.911L157.815 156.658L161.22 154.587V147.367C169.236 141.184 174.775 132.854 174.775 124.156C174.818 122.672 174.593 121.192 174.113 119.795C171.451 119.854 168.35 120.865 165.578 121.781Z" fill="white"/>
<path d="M174.096 119.794C171.443 119.854 168.343 120.865 165.571 121.786C159.284 123.952 156.393 124.923 156.393 121.358C156.402 120.625 156.549 119.9 156.827 119.227C157.498 117.559 158.998 115.772 161.684 114.138C165.818 111.649 168.133 112.222 168.709 115.005L180.035 104.898C178.949 101.482 176.739 99.7048 173.458 99.6301C171.491 99.5753 169.128 100.128 166.395 101.353V94.1484L160.541 97.7033L157.055 99.8243V107.044C149.121 113.088 144.158 120.984 144.158 129.508C144.11 131.091 144.349 132.669 144.863 134.158C146.616 138.734 151.416 138.107 156.474 136.553C158.246 135.996 159.97 135.338 161.503 134.821C165.118 133.586 167.719 133.103 167.719 136.314C167.719 139.187 165.652 141.751 162.594 143.613C157.712 146.576 155.817 144.161 155.398 141.801L143.491 152.341C143.681 153.245 143.984 154.119 144.391 154.94C145.939 157.977 148.711 158.814 151.94 158.371C153.963 158.042 155.932 157.424 157.793 156.533V163.753L167.052 158.167V150.907C175.072 144.734 180.606 136.404 180.606 127.696C180.62 121.428 177.782 119.705 174.096 119.794Z" fill="#E2231C"/>
<path d="M157.064 107.028L151.206 103.488V96.2639L157.064 99.8038V107.028Z" fill="#E2231C"/>
<path opacity="0.3" d="M157.064 107.028L151.206 103.488V96.2639L157.064 99.8038V107.028Z" fill="black"/>
<path d="M151.206 96.264C152.197 96.8266 153.192 97.3842 154.173 97.9618C155.154 98.5393 156.145 99.1119 157.121 99.6994H157.007C157.783 99.2015 158.555 98.7385 159.336 98.2755L161.679 96.8664L164.036 95.4823C164.822 95.0193 165.613 94.5762 166.418 94.1281C165.651 94.626 164.889 95.1238 164.117 95.6217L161.803 97.0756L159.474 98.5095C158.702 99.0073 157.916 99.4505 157.135 99.9235L157.078 99.9583L157.021 99.9235C156.045 99.331 155.073 98.7335 154.111 98.1211C153.149 97.5087 152.187 96.8814 151.206 96.264Z" fill="white"/>
<path d="M157.064 107.03L156.941 99.8054H157.188L157.064 107.03Z" fill="white"/>
<path d="M157.065 107.024L156.036 107.875C155.703 108.134 155.317 108.483 154.879 108.871C154.441 109.26 153.95 109.723 153.45 110.23C152.95 110.738 152.388 111.326 151.807 111.923C151.226 112.521 150.669 113.218 150.116 113.955C149.835 114.313 149.545 114.677 149.278 115.07C149.011 115.463 148.721 115.837 148.473 116.25C148.225 116.663 147.954 117.071 147.706 117.495L147.001 118.784L146.363 120.113C146.158 120.562 145.992 121.025 145.806 121.473C145.468 122.361 145.183 123.271 144.954 124.196C144.901 124.42 144.834 124.644 144.792 124.868C144.749 125.092 144.706 125.311 144.668 125.535C144.574 125.961 144.504 126.391 144.458 126.825C144.411 127.253 144.344 127.661 144.325 128.065C144.306 128.468 144.287 128.851 144.272 129.225C144.249 129.904 144.264 130.584 144.315 131.261C144.356 131.783 144.428 132.302 144.53 132.815C144.62 133.238 144.711 133.566 144.782 133.81C144.854 134.054 144.896 134.149 144.896 134.149L144.773 133.815C144.662 133.497 144.569 133.173 144.492 132.844C144.374 132.332 144.285 131.814 144.225 131.291C144.149 130.612 144.118 129.928 144.13 129.245C144.13 128.866 144.153 128.478 144.163 128.07C144.172 127.661 144.239 127.253 144.272 126.825C144.306 126.397 144.387 125.959 144.463 125.516C144.532 125.059 144.626 124.607 144.744 124.161C144.969 123.224 145.251 122.303 145.587 121.403C145.773 120.945 145.939 120.482 146.144 120.029C146.349 119.576 146.568 119.133 146.778 118.68L147.502 117.38C147.749 116.957 148.021 116.549 148.278 116.135C148.535 115.722 148.83 115.339 149.102 114.945C149.373 114.552 149.664 114.189 149.949 113.83C150.507 113.088 151.121 112.446 151.678 111.839C152.236 111.231 152.807 110.654 153.355 110.166C153.902 109.678 154.383 109.215 154.845 108.841C155.307 108.468 155.693 108.124 156.031 107.875L157.065 107.024Z" fill="white"/>
<path d="M174.096 119.795H173.872C173.729 119.795 173.52 119.819 173.253 119.849C172.517 119.943 171.786 120.076 171.062 120.248C170.162 120.452 169.129 120.746 168.024 121.099C166.919 121.453 165.752 121.836 164.585 122.244L162.833 122.822C162.252 123.006 161.68 123.185 161.118 123.32C160.582 123.477 160.036 123.596 159.485 123.678C158.988 123.77 158.481 123.788 157.98 123.733C157.543 123.696 157.136 123.484 156.846 123.14L156.679 122.906C156.637 122.822 156.613 122.737 156.579 122.657C156.517 122.514 156.477 122.361 156.46 122.204C156.418 121.992 156.399 121.774 156.403 121.557C156.403 121.403 156.403 121.323 156.403 121.323C156.403 121.323 156.403 121.403 156.403 121.552C156.411 121.769 156.44 121.984 156.489 122.194C156.515 122.347 156.561 122.494 156.627 122.633C156.665 122.707 156.694 122.787 156.737 122.867L156.903 123.081C157.191 123.383 157.577 123.56 157.984 123.579C158.474 123.622 158.966 123.59 159.446 123.484C159.704 123.439 159.966 123.384 160.237 123.315C160.509 123.245 160.775 123.175 161.056 123.096C161.609 122.941 162.175 122.757 162.752 122.568L164.5 121.975C165.666 121.577 166.843 121.194 167.952 120.86C169.062 120.526 170.115 120.268 171.024 120.083C171.756 119.935 172.495 119.837 173.239 119.79C173.51 119.79 173.715 119.79 173.863 119.79L174.096 119.795Z" fill="white"/>
<path d="M167.728 136.315V136.529C167.726 136.731 167.713 136.932 167.69 137.132C167.657 137.443 167.6 137.751 167.519 138.053C167.415 138.447 167.273 138.829 167.095 139.193C166.885 139.624 166.642 140.035 166.366 140.423C166.057 140.854 165.714 141.259 165.342 141.633C164.527 142.439 163.626 143.144 162.656 143.734L161.904 144.147C161.656 144.286 161.384 144.391 161.127 144.515C160.614 144.735 160.081 144.902 159.537 145.013C159.022 145.115 158.494 145.115 157.979 145.013C157.741 144.961 157.508 144.884 157.284 144.784C157.081 144.678 156.89 144.549 156.712 144.401C156.402 144.147 156.142 143.83 155.95 143.47C155.803 143.196 155.682 142.907 155.588 142.609C155.531 142.415 155.483 142.219 155.445 142.021L155.407 141.812L155.46 142.021C155.506 142.215 155.563 142.407 155.631 142.594C155.736 142.882 155.868 143.159 156.027 143.42C156.232 143.754 156.494 144.048 156.798 144.286C156.969 144.422 157.155 144.538 157.351 144.63C157.563 144.721 157.786 144.786 158.013 144.824C158.506 144.905 159.008 144.897 159.498 144.799C160.026 144.687 160.541 144.521 161.037 144.301C161.284 144.177 161.542 144.077 161.789 143.933L162.537 143.51C163.021 143.218 163.49 142.901 163.942 142.559C164.381 142.227 164.799 141.866 165.195 141.478C165.904 140.802 166.504 140.01 166.971 139.133C167.16 138.782 167.319 138.413 167.447 138.033C167.543 137.741 167.614 137.441 167.662 137.137C167.697 136.939 167.719 136.74 167.728 136.539V136.315Z" fill="white"/>
<path d="M137.646 148.808L140.609 150.511L143.557 152.243H143.433L146.4 149.595L149.381 146.971C150.377 146.089 151.382 145.228 152.382 144.362C153.382 143.495 154.396 142.649 155.406 141.788C154.43 142.689 153.463 143.6 152.482 144.486C151.501 145.372 150.52 146.269 149.529 147.145L146.557 149.789L143.571 152.413L143.514 152.462L143.447 152.423L140.542 150.62L137.646 148.808Z" fill="white"/>
<path d="M167.066 150.907L167.97 150.15C168.261 149.911 168.613 149.622 168.994 149.264C169.375 148.905 169.833 148.532 170.285 148.074C170.738 147.616 171.261 147.148 171.757 146.58L172.538 145.754L173.319 144.858C173.59 144.559 173.848 144.24 174.105 143.912C174.362 143.583 174.629 143.259 174.881 142.916C175.357 142.224 175.891 141.527 176.338 140.79C176.786 140.053 177.234 139.296 177.653 138.559C178.072 137.822 178.42 137.066 178.72 136.284C179.02 135.502 179.282 134.79 179.544 134.078C179.644 133.715 179.744 133.366 179.839 133.023C179.886 132.854 179.934 132.684 179.977 132.525C180.02 132.366 180.048 132.196 180.082 132.027C180.21 131.385 180.344 130.797 180.401 130.265C180.458 129.732 180.544 129.269 180.553 128.885C180.596 128.119 180.62 127.676 180.62 127.676C180.62 127.676 180.62 128.119 180.596 128.89C180.582 129.353 180.546 129.815 180.487 130.275C180.434 130.876 180.345 131.473 180.22 132.062C180.187 132.221 180.158 132.391 180.125 132.56C180.091 132.729 180.039 132.893 179.996 133.058C179.906 133.401 179.815 133.76 179.72 134.128C179.467 134.84 179.244 135.622 178.92 136.364C178.596 137.106 178.239 137.892 177.858 138.669C177.477 139.446 177.034 140.197 176.548 140.924C176.062 141.651 175.595 142.363 175.067 143.055C174.81 143.399 174.538 143.722 174.276 144.051C174.014 144.38 173.752 144.698 173.481 144.997L172.666 145.928L171.866 146.745C171.357 147.282 170.833 147.74 170.361 148.188C169.89 148.637 169.409 149 169.033 149.344C168.656 149.687 168.275 149.961 167.98 150.19L167.066 150.907Z" fill="white"/>
<path d="M151.954 158.376C152.459 158.287 152.954 158.167 153.45 158.028C153.945 157.889 154.431 157.744 154.912 157.575C155.864 157.231 156.817 156.853 157.769 156.42L157.941 156.34V156.539C157.941 157.137 157.941 157.739 157.941 158.342V160.149C157.941 161.349 157.893 162.554 157.841 163.759C157.793 162.554 157.76 161.351 157.741 160.149V158.342C157.741 157.739 157.741 157.137 157.741 156.539L157.912 156.654C156.969 157.079 156.004 157.448 155.021 157.759C154.021 158.072 152.994 158.279 151.954 158.376Z" fill="white"/>
<path d="M161.713 114.133C162.027 113.948 162.327 113.749 162.665 113.58C163.003 113.411 163.299 113.241 163.618 113.082C163.773 113.005 163.932 112.937 164.094 112.878C164.261 112.806 164.433 112.746 164.608 112.699C164.78 112.654 164.951 112.589 165.127 112.559C165.304 112.529 165.485 112.485 165.666 112.475C165.846 112.462 166.028 112.462 166.208 112.475C166.393 112.48 166.576 112.504 166.756 112.544C166.937 112.58 167.113 112.639 167.28 112.719C167.448 112.799 167.608 112.898 167.756 113.012C167.903 113.132 168.036 113.269 168.152 113.421C168.27 113.575 168.372 113.742 168.456 113.919C168.543 114.088 168.616 114.264 168.675 114.446C168.737 114.631 168.776 114.815 168.828 114.999L168.642 114.934L171.471 112.4L174.329 109.881L177.186 107.391L180.044 104.902L177.258 107.486L174.453 110.04L171.628 112.579L168.771 115.099L168.637 115.218L168.59 115.034C168.542 114.86 168.504 114.68 168.447 114.506C168.394 114.334 168.325 114.167 168.242 114.008C168.169 113.847 168.076 113.696 167.966 113.56C167.862 113.418 167.742 113.289 167.609 113.177C167.475 113.066 167.33 112.972 167.175 112.898C167.025 112.818 166.864 112.759 166.699 112.724C166.532 112.679 166.361 112.653 166.189 112.644C166.015 112.631 165.84 112.631 165.666 112.644C165.489 112.644 165.318 112.694 165.142 112.719C164.965 112.744 164.799 112.798 164.627 112.838C164.456 112.878 164.284 112.943 164.118 112.997C163.948 113.048 163.781 113.11 163.618 113.182C163.284 113.311 162.956 113.46 162.637 113.62C162.317 113.779 162.013 113.963 161.713 114.133Z" fill="white"/>
<path d="M181.036 237.21L113.183 198.04L79.26 217.622L147.112 256.791L181.036 237.21Z" fill="#E2231C"/>
<path opacity="0.4" d="M82.8298 217.623L147.112 254.744L177.466 237.223L113.183 200.101L82.8298 217.623ZM84.6178 217.623L113.183 201.128L175.672 237.211L147.112 253.705L84.6178 217.623Z" fill="black"/>
<g opacity="0.4">
<path d="M131.416 237.557C126.788 237.557 122.043 236.493 118.386 234.383C114.829 232.323 112.787 229.52 112.787 226.686C112.787 224.088 114.458 221.694 117.495 219.936C123.979 216.193 134.93 216.428 141.903 220.456C145.467 222.51 147.508 225.313 147.508 228.147C147.508 230.745 145.832 233.146 142.8 234.897C139.768 236.647 135.636 237.557 131.416 237.557ZM128.879 217.876C124.79 217.876 120.805 218.73 117.799 220.462C114.959 222.102 113.393 224.317 113.393 226.686C113.393 229.297 115.324 231.908 118.696 233.857C125.501 237.786 136.18 238.015 142.491 234.371C145.337 232.731 146.902 230.522 146.902 228.147C146.902 225.536 144.966 222.925 141.6 220.982C138.03 218.916 133.396 217.876 128.879 217.876Z" fill="black"/>
</g>
<g opacity="0.2">
<path d="M131.411 235.374C127.018 235.374 122.675 234.316 119.488 232.479C116.63 230.827 114.984 228.717 114.984 226.688C114.984 224.906 116.265 223.186 118.597 221.843C121.252 220.309 124.902 219.467 128.88 219.467C133.273 219.467 137.622 220.519 140.809 222.357C143.667 224.009 145.313 226.125 145.313 228.148C145.313 229.93 144.026 231.65 141.7 232.992C139.045 234.527 135.389 235.374 131.411 235.374Z" fill="black"/>
</g>
<path opacity="0.2" d="M143.536 250.08L124.888 239.228L126.379 239.42C127.713 239.588 129.057 239.673 130.401 239.673C134.943 239.594 139.399 238.422 143.394 236.258C146.691 234.352 150.026 230.943 150.026 227.596C150.016 226.439 149.759 225.298 149.271 224.249L148.869 223.383L169.286 235.237L167.046 236.536C166.891 236.601 166.755 236.706 166.652 236.839C166.549 236.973 166.482 237.13 166.459 237.297C166.482 237.466 166.548 237.626 166.651 237.761C166.754 237.897 166.89 238.003 167.046 238.071L169.292 239.364L150.688 250.036L148.752 248.917C148.244 248.66 147.684 248.527 147.115 248.527C146.547 248.527 145.986 248.66 145.479 248.917L143.536 250.08Z" fill="black"/>
<path d="M151.722 242.507C150.643 242.521 149.578 242.259 148.628 241.746C148.241 241.57 147.908 241.295 147.661 240.948C147.415 240.602 147.264 240.196 147.224 239.773C147.248 239.4 147.372 239.041 147.584 238.733C147.795 238.425 148.085 238.179 148.424 238.022C149.339 237.58 150.346 237.361 151.361 237.381C152.377 237.402 153.374 237.661 154.271 238.139C154.659 238.315 154.994 238.589 155.242 238.936C155.49 239.283 155.641 239.689 155.681 240.113C155.657 240.487 155.533 240.847 155.321 241.156C155.11 241.465 154.82 241.712 154.481 241.87C153.631 242.315 152.681 242.534 151.722 242.507Z" fill="#E2231C"/>
<path opacity="0.2" d="M111.508 231.389L91.0905 219.633L93.3364 218.34C93.7138 218.124 93.9551 217.852 93.918 217.573C93.8972 217.405 93.8325 217.246 93.7304 217.111C93.6283 216.977 93.4923 216.871 93.3364 216.806L91.0905 215.507L109.651 204.933L111.588 206.053C112.096 206.302 112.655 206.432 113.221 206.432C113.788 206.432 114.346 206.302 114.855 206.053L116.791 204.933L135.433 215.661L133.923 215.47C132.587 215.296 131.242 215.209 129.895 215.21C125.478 215.21 120.2 216.546 116.76 218.532C112.466 221.007 110.289 223.667 110.289 226.433C110.305 227.828 110.572 229.209 111.074 230.51L111.508 231.389Z" fill="black"/>
<path d="M109.032 217.95C107.954 217.963 106.89 217.703 105.938 217.195C105.551 217.018 105.217 216.743 104.969 216.397C104.722 216.05 104.57 215.645 104.528 215.221C104.551 214.847 104.675 214.487 104.886 214.178C105.097 213.868 105.388 213.622 105.728 213.464C106.645 213.024 107.652 212.805 108.669 212.826C109.685 212.846 110.683 213.105 111.581 213.582C111.967 213.76 112.299 214.036 112.546 214.382C112.792 214.728 112.944 215.133 112.985 215.555C112.962 215.929 112.838 216.29 112.627 216.599C112.416 216.908 112.125 217.155 111.785 217.313C110.938 217.758 109.989 217.978 109.032 217.95Z" fill="#E2231C"/>
<path d="M181.036 237.209V245.456L147.113 265.044V256.791L181.036 237.209Z" fill="#E2231C"/>
<g opacity="0.1">
<path d="M181.035 237.209V245.456L147.112 265.044V256.791L181.035 237.209Z" fill="black"/>
</g>
<g opacity="0.1">
<path d="M147.112 258.637L157.821 252.673L147.106 259.138L147.112 258.637Z" fill="black"/>
<path d="M181.036 241.128L177.466 243.399L181.036 241.543V241.128Z" fill="black"/>
<path d="M181.035 243.096L163.179 253.707L181.035 243.703V243.096Z" fill="black"/>
<path d="M147.106 260.599L164.961 250.613L147.106 261.249V260.599Z" fill="black"/>
</g>
<path d="M147.112 265.047L79.2596 225.872V217.624L147.112 256.794V265.047Z" fill="#E2231C"/>
<g opacity="0.2">
<path d="M147.112 265.048L79.2595 225.872V217.625L147.112 256.794V265.048Z" fill="black"/>
</g>
<g style="mix-blend-mode:multiply" opacity="0.3">
<path d="M147.113 258.635L143.537 256.791L147.106 259.136L147.113 258.635Z" fill="black"/>
</g>
<g style="mix-blend-mode:multiply" opacity="0.3">
<path d="M147.106 260.597L129.157 250.562L147.106 261.247V260.597Z" fill="black"/>
</g>
<g style="mix-blend-mode:multiply" opacity="0.3">
<path d="M79.2593 221.508L91.757 228.964L79.2593 221.991V221.508Z" fill="black"/>
</g>
<g style="mix-blend-mode:multiply" opacity="0.3">
<path d="M79.2595 223.581L86.3992 227.937L79.2595 224.039V223.581Z" fill="black"/>
</g>
<path d="M153.021 219.664L117.916 239.939L107.2 233.758L142.305 213.483L153.021 219.664Z" fill="#455A64"/>
<path d="M107.2 233.759V242.73L117.916 248.911V239.939L107.2 233.759Z" fill="#263238"/>
<path d="M117.916 248.911L118.54 248.553L117.916 248.187V248.911Z" fill="#E0E0E0"/>
<path d="M153.021 219.664V221.037L151.834 220.35L153.021 219.664Z" fill="#E0E0E0"/>
<g style="mix-blend-mode:multiply" opacity="0.3">
<path d="M118.54 248.545V240.304L117.916 239.939V248.186L118.54 248.545Z" fill="black"/>
</g>
<g style="mix-blend-mode:multiply" opacity="0.2">
<path d="M118.54 240.304L152.464 220.716L151.833 220.351L117.916 239.939L118.54 240.304Z" fill="black"/>
</g>
<path d="M151.865 219.002L116.754 239.27L115.863 238.757L150.974 218.488L151.865 219.002Z" fill="#FAFAFA"/>
<path d="M144.365 214.672L109.253 234.941L108.363 234.427L143.467 214.159L144.365 214.672Z" fill="#FAFAFA"/>
<path d="M116.754 239.27V248.241L115.863 247.728V238.757L116.754 239.27Z" fill="#E0E0E0"/>
<path d="M109.254 234.94V243.911L108.357 243.397L108.363 234.426L109.254 234.94Z" fill="#E0E0E0"/>
</svg>
